<svg width="908" height="353" viewBox="0 0 908 353" fill="none" xmlns="http://www.w3.org/2000/svg">
<path d="M473.225 216V138.256H505.989C509.913 138.256 513.393 138.811 516.429 139.922C519.538 141.033 522.167 142.514 524.314 144.365C526.461 146.216 528.09 148.4 529.201 150.917C530.385 153.361 530.978 155.989 530.978 158.803C530.978 161.912 530.422 164.467 529.312 166.466C528.275 168.465 527.128 170.094 525.869 171.353C524.314 172.834 522.574 173.981 520.649 174.796V175.018C523.314 175.906 525.684 177.165 527.757 178.794C529.534 180.201 531.163 182.126 532.644 184.569C534.125 186.939 534.865 190.011 534.865 193.787C534.865 196.823 534.236 199.711 532.977 202.45C531.792 205.116 530.052 207.448 527.757 209.447C525.462 211.446 522.648 213.038 519.316 214.223C516.058 215.408 512.356 216 508.21 216H473.225ZM507.099 201.562C510.431 201.562 513.023 200.71 514.874 199.007C516.725 197.23 517.65 194.935 517.65 192.122C517.65 189.308 516.725 187.05 514.874 185.347C513.023 183.57 510.431 182.681 507.099 182.681H489.885V201.562H507.099ZM504.878 168.243C507.692 168.243 509.876 167.503 511.431 166.022C512.986 164.541 513.763 162.69 513.763 160.469C513.763 158.247 512.986 156.396 511.431 154.916C509.876 153.435 507.692 152.694 504.878 152.694H489.885V168.243H504.878ZM543.798 146.03C543.798 143.809 544.649 141.884 546.352 140.255C548.055 138.552 550.091 137.701 552.461 137.701C554.83 137.701 556.829 138.552 558.458 140.255C560.161 141.884 561.012 143.809 561.012 146.03C561.012 148.252 560.161 150.214 558.458 151.917C556.755 153.546 554.719 154.36 552.35 154.36C549.98 154.36 547.944 153.546 546.241 151.917C544.612 150.214 543.798 148.252 543.798 146.03ZM544.908 161.579H559.902V216H544.908V161.579ZM572.08 161.579H587.073V169.354H587.628C588.739 167.725 590.109 166.244 591.738 164.911C593.07 163.801 594.736 162.801 596.736 161.912C598.809 160.95 601.141 160.469 603.732 160.469H604.843V176.573C604.473 176.499 604.066 176.388 603.621 176.24C603.177 176.166 602.622 176.128 601.955 176.128C601.363 176.054 600.66 176.017 599.845 176.017C596.217 176.017 593.182 177.313 590.738 179.905C588.295 182.496 587.073 186.013 587.073 190.456V216H572.08V161.579ZM612.049 162.69C616.121 162.69 618.158 160.469 618.158 156.026V146.03H631.485V162.69H643.702V176.573H631.485V194.898C631.485 197.416 632.114 199.341 633.373 200.673C634.706 202.006 636.483 202.672 638.704 202.672C639.519 202.672 640.296 202.635 641.037 202.561C641.777 202.413 642.443 202.265 643.036 202.117C643.702 201.969 644.294 201.784 644.813 201.562V215.445C643.924 215.741 642.962 216.037 641.925 216.333C641.037 216.481 639.963 216.629 638.704 216.777C637.52 217 636.224 217.111 634.817 217.111C629.264 217.111 624.821 215.408 621.489 212.002C618.158 208.522 616.492 203.561 616.492 197.119V176.573H607.051V162.69H612.049ZM669.845 138.256V169.354H670.4C671.511 167.725 672.881 166.244 674.51 164.911C675.843 163.801 677.508 162.801 679.508 161.912C681.581 160.95 683.913 160.469 686.505 160.469C689.318 160.469 691.91 161.024 694.279 162.135C696.722 163.171 698.833 164.689 700.61 166.688C702.461 168.613 703.904 170.983 704.941 173.796C705.978 176.61 706.496 179.757 706.496 183.237V216H691.502V185.458C691.502 182.126 690.614 179.534 688.837 177.683C687.06 175.832 684.616 174.907 681.507 174.907C678.175 174.907 675.398 176.054 673.177 178.35C670.956 180.571 669.845 183.496 669.845 187.124V216H654.852V138.256H669.845ZM715.337 188.79C715.337 184.643 716.004 180.83 717.337 177.35C718.669 173.87 720.446 170.872 722.668 168.354C724.963 165.837 727.591 163.912 730.553 162.579C733.515 161.172 736.587 160.469 739.771 160.469C742.733 160.469 745.25 160.95 747.324 161.912C749.471 162.801 751.285 163.801 752.766 164.911C754.395 166.244 755.801 167.725 756.986 169.354H757.541V138.256H772.535V216H757.541V208.226H756.986C755.801 209.855 754.395 211.335 752.766 212.668C751.285 213.779 749.471 214.815 747.324 215.778C745.25 216.666 742.733 217.111 739.771 217.111C736.587 217.111 733.515 216.407 730.553 215C727.591 213.594 724.963 211.669 722.668 209.225C720.446 206.708 718.669 203.709 717.337 200.229C716.004 196.749 715.337 192.936 715.337 188.79ZM730.331 188.79C730.331 190.863 730.664 192.788 731.331 194.565C732.071 196.342 733.07 197.86 734.329 199.118C735.588 200.377 737.069 201.377 738.772 202.117C740.475 202.858 742.289 203.228 744.214 203.228C746.287 203.228 748.175 202.858 749.878 202.117C751.581 201.303 753.025 200.266 754.209 199.007C755.468 197.675 756.431 196.157 757.097 194.454C757.763 192.677 758.097 190.789 758.097 188.79C758.097 186.791 757.763 184.939 757.097 183.237C756.431 181.459 755.468 179.942 754.209 178.683C753.025 177.35 751.581 176.314 749.878 175.573C748.175 174.759 746.287 174.351 744.214 174.351C742.289 174.351 740.475 174.722 738.772 175.462C737.069 176.203 735.588 177.202 734.329 178.461C733.07 179.72 732.071 181.237 731.331 183.014C730.664 184.791 730.331 186.716 730.331 188.79ZM799.203 217.111C796.685 217.111 794.39 216.74 792.317 216C790.318 215.186 788.578 214.075 787.097 212.668C785.69 211.261 784.58 209.632 783.765 207.781C782.951 205.856 782.543 203.783 782.543 201.562C782.543 197.119 783.95 193.343 786.764 190.233C789.651 187.05 793.613 185.014 798.648 184.125L815.862 181.015L815.751 180.46C815.381 178.757 814.418 177.239 812.864 175.906C811.309 174.5 809.161 173.796 806.422 173.796C804.497 173.796 802.757 174.129 801.202 174.796C799.721 175.388 798.462 176.054 797.426 176.795C796.167 177.757 795.094 178.794 794.205 179.905L785.32 171.02C786.949 169.02 788.837 167.243 790.984 165.689C792.909 164.43 795.242 163.245 797.981 162.135C800.721 161.024 803.904 160.469 807.533 160.469C811.013 160.469 814.159 161.024 816.973 162.135C819.86 163.245 822.341 164.763 824.414 166.688C826.487 168.613 828.079 170.909 829.19 173.574C830.3 176.24 830.856 179.09 830.856 182.126V216H815.862V209.336H815.307C814.196 210.817 812.827 212.113 811.198 213.223C809.865 214.186 808.199 215.074 806.2 215.889C804.201 216.703 801.868 217.111 799.203 217.111ZM803.645 193.787C801.72 194.158 800.202 194.824 799.092 195.787C798.055 196.749 797.537 197.934 797.537 199.341C797.537 201.044 798.092 202.413 799.203 203.45C800.313 204.412 801.979 204.894 804.201 204.894C807.533 204.894 810.309 203.783 812.53 201.562C814.752 199.267 815.862 196.305 815.862 192.677V191.566L803.645 193.787ZM850.322 161.579L863.094 197.675H863.65L875.866 161.579H891.971L869.758 220.443C867.463 226.588 864.612 231.253 861.206 234.436C857.874 237.694 853.691 239.323 848.656 239.323C847.249 239.323 845.954 239.212 844.769 238.99C843.584 238.842 842.511 238.694 841.548 238.546C840.512 238.25 839.549 237.953 838.66 237.657V223.774C839.179 223.997 839.771 224.182 840.437 224.33C841.696 224.7 843.14 224.885 844.769 224.885C847.286 224.885 849.285 224.256 850.766 222.997C852.247 221.738 853.395 220.146 854.209 218.221L855.32 215.445L834.218 161.579H850.322ZM473.225 307V229.256H505.989C510.135 229.256 513.911 229.922 517.317 231.255C520.723 232.514 523.648 234.328 526.091 236.697C528.534 238.993 530.422 241.732 531.755 244.916C533.088 248.1 533.754 251.58 533.754 255.356C533.754 259.132 533.088 262.612 531.755 265.796C530.422 268.98 528.534 271.756 526.091 274.125C523.648 276.421 520.723 278.235 517.317 279.568C513.911 280.826 510.135 281.456 505.989 281.456H489.885V307H473.225ZM489.885 244.805V265.907H505.433C508.765 265.907 511.431 264.944 513.43 263.019C515.503 261.02 516.54 258.466 516.54 255.356C516.54 252.246 515.503 249.729 513.43 247.804C511.431 245.804 508.765 244.805 505.433 244.805H489.885ZM554.236 308.111C551.718 308.111 549.423 307.74 547.35 307C545.351 306.186 543.611 305.075 542.13 303.668C540.723 302.261 539.613 300.632 538.798 298.781C537.984 296.856 537.576 294.783 537.576 292.562C537.576 288.119 538.983 284.343 541.797 281.233C544.684 278.05 548.646 276.014 553.681 275.125L570.895 272.015L570.784 271.46C570.414 269.757 569.451 268.239 567.897 266.906C566.342 265.5 564.194 264.796 561.455 264.796C559.53 264.796 557.79 265.129 556.235 265.796C554.754 266.388 553.495 267.054 552.459 267.795C551.2 268.757 550.127 269.794 549.238 270.905L540.353 262.02C541.982 260.02 543.87 258.243 546.017 256.689C547.942 255.43 550.275 254.245 553.014 253.135C555.754 252.024 558.937 251.469 562.566 251.469C566.045 251.469 569.192 252.024 572.006 253.135C574.893 254.245 577.374 255.763 579.447 257.688C581.52 259.613 583.112 261.909 584.223 264.574C585.333 267.24 585.889 270.09 585.889 273.126V307H570.895V300.336H570.34C569.229 301.817 567.86 303.113 566.231 304.223C564.898 305.186 563.232 306.074 561.233 306.889C559.234 307.703 556.901 308.111 554.236 308.111ZM558.678 284.787C556.753 285.158 555.235 285.824 554.125 286.787C553.088 287.749 552.57 288.934 552.57 290.341C552.57 292.044 553.125 293.413 554.236 294.45C555.346 295.412 557.012 295.894 559.234 295.894C562.566 295.894 565.342 294.783 567.563 292.562C569.785 290.267 570.895 287.305 570.895 283.677V282.566L558.678 284.787ZM598.11 252.579H613.103V260.354H613.659C614.769 258.725 616.139 257.244 617.768 255.911C619.101 254.801 620.767 253.801 622.766 252.912C624.839 251.95 627.171 251.469 629.763 251.469H630.873V267.573C630.503 267.499 630.096 267.388 629.652 267.24C629.207 267.166 628.652 267.128 627.986 267.128C627.393 267.054 626.69 267.017 625.876 267.017C622.248 267.017 619.212 268.313 616.768 270.905C614.325 273.496 613.103 277.013 613.103 281.456V307H598.11V252.579ZM638.079 253.69C642.152 253.69 644.188 251.469 644.188 247.026V237.03H657.515V253.69H669.732V267.573H657.515V285.898C657.515 288.416 658.145 290.341 659.404 291.673C660.736 293.006 662.513 293.672 664.735 293.672C665.549 293.672 666.326 293.635 667.067 293.561C667.807 293.413 668.474 293.265 669.066 293.117C669.732 292.969 670.325 292.784 670.843 292.562V306.445C669.954 306.741 668.992 307.037 667.955 307.333C667.067 307.481 665.993 307.629 664.735 307.777C663.55 308 662.254 308.111 660.847 308.111C655.294 308.111 650.852 306.408 647.52 303.002C644.188 299.522 642.522 294.561 642.522 288.119V267.573H633.082V253.69H638.079ZM687.572 252.579L700.344 288.675H700.899L713.116 252.579H729.22L707.008 311.443C704.712 317.588 701.862 322.253 698.456 325.436C695.124 328.694 690.941 330.323 685.906 330.323C684.499 330.323 683.203 330.212 682.019 329.99C680.834 329.842 679.76 329.694 678.798 329.546C677.761 329.25 676.799 328.953 675.91 328.657V314.774C676.429 314.997 677.021 315.182 677.687 315.33C678.946 315.7 680.39 315.885 682.019 315.885C684.536 315.885 686.535 315.256 688.016 313.997C689.497 312.738 690.645 311.146 691.459 309.221L692.57 306.445L671.468 252.579H687.572Z" fill="#333333"/>
<path d="M212.729 247.256V307.373H0.759766C0.759766 283.612 4.32828 263.573 11.4653 247.256C18.6023 230.938 27.595 216.911 38.4432 205.174C49.2915 193.437 60.9962 183.417 73.5574 175.115C86.1185 166.814 97.8232 158.941 108.671 151.498C119.52 143.769 128.512 135.896 135.649 127.881C142.786 119.865 146.355 110.275 146.355 99.1104C146.355 88.2322 142.358 79.0715 134.365 71.6284C126.657 64.1854 116.379 60.4638 103.533 60.4638C94.3975 60.4638 86.5467 62.3246 79.9807 66.0461C73.7001 69.7677 68.4187 73.9186 64.1365 78.4989C59.2833 83.9381 55.2866 90.0929 52.1463 96.9634L0.759766 71.199C5.89842 58.0306 13.3209 46.1503 23.0273 35.5583C31.3062 26.6839 42.2972 18.6683 56.0003 11.5115C69.7034 4.06845 86.975 0.346924 107.815 0.346924C123.802 0.346924 138.219 2.78023 151.065 7.64684C164.197 12.5134 175.331 19.2408 184.467 27.8289C193.602 36.1308 200.596 46.0072 205.449 57.458C210.303 68.9088 212.729 81.3616 212.729 94.8164C212.729 109.13 210.303 121.583 205.449 132.175C200.882 142.767 194.744 152.214 187.036 160.516C179.328 168.817 170.764 176.404 161.343 183.274C151.922 189.858 142.358 196.443 132.652 203.027C123.231 209.611 114.238 216.482 105.674 223.638C97.1095 230.509 89.9725 238.381 84.2629 247.256H212.729Z" fill="#FC2C38"/>
<path d="M437.629 247.256V307.373H225.659C225.659 283.612 229.228 263.573 236.365 247.256C243.502 230.938 252.495 216.911 263.343 205.174C274.191 193.437 285.896 183.417 298.457 175.115C311.018 166.814 322.723 158.941 333.571 151.498C344.419 143.769 353.412 135.896 360.549 127.881C367.686 119.865 371.255 110.275 371.255 99.1104C371.255 88.2322 367.258 79.0715 359.264 71.6284C351.557 64.1854 341.279 60.4638 328.433 60.4638C319.297 60.4638 311.446 62.3246 304.88 66.0461C298.6 69.7677 293.318 73.9186 289.036 78.4989C284.183 83.9381 280.186 90.0929 277.046 96.9634L225.659 71.199C230.798 58.0306 238.221 46.1503 247.927 35.5583C256.206 26.6839 267.197 18.6683 280.9 11.5115C294.603 4.06845 311.875 0.346924 332.715 0.346924C348.702 0.346924 363.118 2.78023 375.965 7.64684C389.097 12.5134 400.231 19.2408 409.366 27.8289C418.502 36.1308 425.496 46.0072 430.349 57.458C435.202 68.9088 437.629 81.3616 437.629 94.8164C437.629 109.13 435.202 121.583 430.349 132.175C425.782 142.767 419.644 152.214 411.936 160.516C404.228 168.817 395.663 176.404 386.242 183.274C376.822 189.858 367.258 196.443 357.552 203.027C348.131 209.611 339.138 216.482 330.574 223.638C322.009 230.509 314.872 238.381 309.163 247.256H437.629Z" fill="#FC2C38"/>
<path d="M471.605 339.391L471.912 337.396H476.731L477.683 332.485H473.14L473.447 330.489H478.051L479.279 324.197H481.274L480.046 330.489H485.879L487.106 324.197H489.102L487.874 330.489H492.632L492.325 332.485H487.506L486.554 337.396H491.097L490.79 339.391H486.186L484.958 345.684H482.963L484.19 339.391H478.358L477.13 345.684H475.135L476.363 339.391H471.605ZM478.727 337.396H484.559L485.51 332.485H479.678L478.727 337.396ZM497.838 330.95V332.73H497.869C498.135 332.341 498.462 331.994 498.851 331.687C499.199 331.421 499.629 331.185 500.14 330.981C500.652 330.756 501.266 330.643 501.982 330.643C502.882 330.643 503.629 330.776 504.223 331.042C504.816 331.308 505.297 331.605 505.665 331.932C506.095 332.301 506.443 332.73 506.709 333.221H506.77C507.057 332.73 507.436 332.301 507.906 331.932C508.315 331.605 508.837 331.308 509.472 331.042C510.106 330.776 510.884 330.643 511.805 330.643C512.603 330.643 513.35 330.776 514.045 331.042C514.741 331.308 515.345 331.707 515.856 332.239C516.368 332.771 516.767 333.436 517.054 334.234C517.34 335.012 517.483 335.912 517.483 336.936V345.684H515.335V336.936C515.335 335.524 514.987 334.459 514.291 333.743C513.616 333.007 512.736 332.638 511.651 332.638C511.119 332.638 510.607 332.751 510.116 332.976C509.646 333.201 509.226 333.528 508.858 333.958C508.489 334.367 508.193 334.879 507.968 335.493C507.763 336.086 507.661 336.772 507.661 337.55V345.684H505.512V336.936C505.512 335.544 505.164 334.48 504.468 333.743C503.793 333.007 502.913 332.638 501.828 332.638C501.296 332.638 500.785 332.751 500.294 332.976C499.823 333.201 499.403 333.528 499.035 333.958C498.667 334.367 498.37 334.879 498.145 335.493C497.94 336.086 497.838 336.772 497.838 337.55V345.684H495.689V330.95H497.838ZM526.542 345.991C525.785 345.991 525.079 345.868 524.424 345.623C523.79 345.377 523.237 345.06 522.767 344.671C522.316 344.262 521.958 343.801 521.692 343.29C521.447 342.758 521.324 342.226 521.324 341.693C521.324 340.466 521.692 339.473 522.429 338.716C523.166 337.959 524.23 337.468 525.621 337.243L531.3 336.322V336.26C531.3 335.728 531.208 335.247 531.024 334.818C530.84 334.367 530.584 333.989 530.256 333.682C529.929 333.354 529.54 333.099 529.09 332.914C528.64 332.73 528.149 332.638 527.616 332.638C526.962 332.638 526.378 332.751 525.867 332.976C525.355 333.18 524.925 333.426 524.578 333.713C524.148 334.02 523.78 334.378 523.473 334.787L522.091 333.406C522.501 332.894 522.981 332.434 523.534 332.024C524.005 331.676 524.578 331.359 525.253 331.073C525.949 330.786 526.737 330.643 527.616 330.643C528.456 330.643 529.233 330.786 529.949 331.073C530.666 331.359 531.28 331.758 531.791 332.27C532.323 332.781 532.732 333.385 533.019 334.081C533.305 334.777 533.449 335.524 533.449 336.322V345.684H531.3V343.75H531.269C530.942 344.159 530.553 344.528 530.103 344.855C529.694 345.142 529.192 345.408 528.599 345.653C528.026 345.878 527.34 345.991 526.542 345.991ZM526.235 339.084C524.393 339.412 523.473 340.281 523.473 341.693C523.473 342.307 523.728 342.85 524.24 343.32C524.772 343.771 525.539 343.996 526.542 343.996C527.238 343.996 527.872 343.883 528.445 343.658C529.039 343.412 529.54 343.075 529.949 342.645C530.379 342.215 530.707 341.704 530.932 341.11C531.177 340.496 531.3 339.821 531.3 339.084V338.163L526.235 339.084ZM538.039 326.039C538.039 325.65 538.172 325.322 538.438 325.056C538.704 324.79 539.031 324.657 539.42 324.657C539.809 324.657 540.136 324.79 540.402 325.056C540.668 325.322 540.801 325.65 540.801 326.039C540.801 326.427 540.668 326.755 540.402 327.021C540.136 327.287 539.809 327.42 539.42 327.42C539.031 327.42 538.704 327.287 538.438 327.021C538.172 326.755 538.039 326.427 538.039 326.039ZM538.346 330.95H540.494V345.684H538.346V330.95ZM545.574 324.197H547.722V345.684H545.574V324.197ZM552.794 330.95H554.943V332.884H555.004C555.311 332.474 555.7 332.096 556.171 331.748C556.58 331.462 557.081 331.206 557.675 330.981C558.289 330.756 559.015 330.643 559.854 330.643H560.468V332.792H559.547C558.933 332.792 558.35 332.904 557.798 333.129C557.245 333.354 556.754 333.672 556.324 334.081C555.894 334.49 555.557 334.992 555.311 335.585C555.066 336.158 554.943 336.813 554.943 337.55V345.684H552.794V330.95ZM565.525 330.95V339.545C565.525 340.2 565.627 340.803 565.832 341.356C566.057 341.888 566.353 342.359 566.722 342.768C567.111 343.157 567.55 343.464 568.042 343.689C568.553 343.893 569.096 343.996 569.668 343.996C570.282 343.996 570.855 343.883 571.387 343.658C571.94 343.412 572.411 343.075 572.799 342.645C573.209 342.215 573.526 341.704 573.751 341.11C573.997 340.496 574.119 339.821 574.119 339.084V330.95H576.268V345.684H574.119V343.75H574.089C573.761 344.159 573.372 344.528 572.922 344.855C572.513 345.142 572.012 345.408 571.418 345.653C570.845 345.878 570.16 345.991 569.362 345.991C568.523 345.991 567.735 345.837 566.998 345.53C566.282 345.223 565.647 344.783 565.095 344.211C564.563 343.638 564.143 342.962 563.836 342.185C563.529 341.386 563.376 340.507 563.376 339.545V330.95H565.525ZM587.164 345.377C586.202 345.377 585.302 345.193 584.463 344.824C583.624 344.436 582.887 343.914 582.253 343.259C581.639 342.584 581.148 341.806 580.779 340.926C580.431 340.026 580.257 339.054 580.257 338.01C580.257 336.966 580.431 336.005 580.779 335.125C581.148 334.224 581.639 333.447 582.253 332.792C582.887 332.116 583.624 331.595 584.463 331.226C585.302 330.837 586.202 330.643 587.164 330.643C588.044 330.643 588.781 330.756 589.374 330.981C589.988 331.206 590.499 331.462 590.909 331.748C591.359 332.096 591.738 332.474 592.044 332.884H592.075V330.95H594.224V344.763C594.224 345.807 594.029 346.768 593.641 347.648C593.272 348.549 592.761 349.326 592.106 349.981C591.451 350.657 590.684 351.178 589.804 351.547C588.944 351.936 588.013 352.13 587.01 352.13C585.967 352.13 585.066 351.966 584.309 351.639C583.552 351.332 582.907 350.984 582.375 350.595C581.782 350.145 581.281 349.633 580.871 349.06L582.253 347.679C582.6 348.129 583.01 348.539 583.48 348.907C583.89 349.214 584.381 349.49 584.954 349.736C585.547 350.002 586.233 350.135 587.01 350.135C587.706 350.135 588.361 349.992 588.975 349.705C589.589 349.439 590.121 349.071 590.571 348.6C591.042 348.129 591.41 347.567 591.676 346.912C591.942 346.257 592.075 345.541 592.075 344.763V343.136H592.044C591.738 343.545 591.359 343.914 590.909 344.241C590.499 344.528 589.988 344.794 589.374 345.039C588.781 345.264 588.044 345.377 587.164 345.377ZM582.406 338.01C582.406 338.767 582.529 339.483 582.774 340.159C583.04 340.814 583.388 341.376 583.818 341.847C584.248 342.318 584.749 342.696 585.322 342.983C585.895 343.249 586.509 343.382 587.164 343.382C587.86 343.382 588.504 343.249 589.098 342.983C589.691 342.696 590.203 342.318 590.632 341.847C591.083 341.376 591.431 340.814 591.676 340.159C591.942 339.483 592.075 338.767 592.075 338.01C592.075 337.232 591.942 336.516 591.676 335.861C591.431 335.206 591.083 334.644 590.632 334.173C590.203 333.702 589.691 333.334 589.098 333.068C588.504 332.781 587.86 332.638 587.164 332.638C586.509 332.638 585.895 332.781 585.322 333.068C584.749 333.334 584.248 333.702 583.818 334.173C583.388 334.644 583.04 335.206 582.774 335.861C582.529 336.516 582.406 337.232 582.406 338.01ZM599.138 330.95H601.286V332.884H601.348C601.655 332.474 602.043 332.096 602.514 331.748C602.923 331.462 603.425 331.206 604.018 330.981C604.632 330.756 605.359 330.643 606.198 330.643H606.812V332.792H605.891C605.277 332.792 604.694 332.904 604.141 333.129C603.588 333.354 603.097 333.672 602.668 334.081C602.238 334.49 601.9 334.992 601.655 335.585C601.409 336.158 601.286 336.813 601.286 337.55V345.684H599.138V330.95ZM615.866 345.991C614.822 345.991 613.84 345.796 612.919 345.408C612.018 344.998 611.231 344.456 610.555 343.781C609.88 343.085 609.338 342.266 608.928 341.325C608.54 340.384 608.345 339.381 608.345 338.317C608.345 337.232 608.54 336.23 608.928 335.309C609.338 334.367 609.88 333.559 610.555 332.884C611.231 332.188 612.018 331.646 612.919 331.257C613.84 330.848 614.822 330.643 615.866 330.643C616.909 330.643 617.881 330.848 618.782 331.257C619.703 331.646 620.501 332.188 621.176 332.884C621.851 333.559 622.383 334.367 622.772 335.309C623.181 336.23 623.386 337.232 623.386 338.317C623.386 339.381 623.181 340.384 622.772 341.325C622.383 342.266 621.851 343.085 621.176 343.781C620.501 344.456 619.703 344.998 618.782 345.408C617.881 345.796 616.909 345.991 615.866 345.991ZM615.866 343.996C616.602 343.996 617.288 343.852 617.922 343.566C618.577 343.279 619.15 342.88 619.641 342.369C620.132 341.857 620.521 341.253 620.808 340.558C621.094 339.862 621.237 339.115 621.237 338.317C621.237 337.519 621.094 336.772 620.808 336.076C620.521 335.38 620.132 334.777 619.641 334.265C619.15 333.753 618.577 333.354 617.922 333.068C617.288 332.781 616.602 332.638 615.866 332.638C615.129 332.638 614.433 332.781 613.778 333.068C613.144 333.354 612.581 333.753 612.09 334.265C611.599 334.777 611.21 335.38 610.924 336.076C610.637 336.772 610.494 337.519 610.494 338.317C610.494 339.115 610.637 339.862 610.924 340.558C611.21 341.253 611.599 341.857 612.09 342.369C612.581 342.86 613.144 343.259 613.778 343.566C614.433 343.852 615.129 343.996 615.866 343.996ZM629.374 330.95V339.545C629.374 340.2 629.476 340.803 629.681 341.356C629.906 341.888 630.203 342.359 630.571 342.768C630.96 343.157 631.4 343.464 631.891 343.689C632.403 343.893 632.945 343.996 633.518 343.996C634.132 343.996 634.705 343.883 635.237 343.658C635.79 343.412 636.26 343.075 636.649 342.645C637.058 342.215 637.376 341.704 637.601 341.11C637.846 340.496 637.969 339.821 637.969 339.084V330.95H640.118V345.684H637.969V343.75H637.938C637.611 344.159 637.222 344.528 636.772 344.855C636.363 345.142 635.861 345.408 635.268 345.653C634.695 345.878 634.009 345.991 633.211 345.991C632.372 345.991 631.584 345.837 630.848 345.53C630.131 345.223 629.497 344.783 628.944 344.211C628.412 343.638 627.993 342.962 627.686 342.185C627.379 341.386 627.225 340.507 627.225 339.545V330.95H629.374ZM645.181 330.95H647.33V333.037H647.361C647.709 332.587 648.138 332.188 648.65 331.84C649.059 331.533 649.571 331.257 650.185 331.011C650.819 330.766 651.556 330.643 652.395 330.643C653.397 330.643 654.329 330.837 655.188 331.226C656.068 331.595 656.835 332.127 657.49 332.822C658.145 333.498 658.657 334.306 659.025 335.247C659.414 336.189 659.608 337.212 659.608 338.317C659.608 339.422 659.414 340.445 659.025 341.386C658.657 342.328 658.145 343.146 657.49 343.842C656.835 344.517 656.068 345.05 655.188 345.438C654.329 345.807 653.397 345.991 652.395 345.991C651.556 345.991 650.819 345.868 650.185 345.623C649.571 345.356 649.059 345.08 648.65 344.794C648.138 344.446 647.709 344.047 647.361 343.597H647.33V352.13H645.181V330.95ZM647.33 338.317C647.33 339.115 647.473 339.862 647.76 340.558C648.046 341.253 648.425 341.857 648.895 342.369C649.366 342.88 649.898 343.279 650.492 343.566C651.106 343.852 651.74 343.996 652.395 343.996C653.091 343.996 653.745 343.863 654.359 343.597C654.973 343.31 655.505 342.921 655.955 342.43C656.426 341.919 656.794 341.315 657.061 340.619C657.327 339.923 657.46 339.156 657.46 338.317C657.46 337.478 657.327 336.711 657.061 336.015C656.794 335.319 656.426 334.726 655.955 334.234C655.505 333.723 654.973 333.334 654.359 333.068C653.745 332.781 653.091 332.638 652.395 332.638C651.74 332.638 651.106 332.781 650.492 333.068C649.898 333.354 649.366 333.753 648.895 334.265C648.425 334.777 648.046 335.38 647.76 336.076C647.473 336.772 647.33 337.519 647.33 338.317Z" fill="#333333"/>
</svg>
