<svg width="573" height="68" viewBox="0 0 573 68" fill="none" xmlns="http://www.w3.org/2000/svg">
<path d="M95.3564 25.7443V1.17919H105.723C106.965 1.17919 108.066 1.35466 109.027 1.70559C110.011 2.05652 110.842 2.52442 111.522 3.10931C112.201 3.69419 112.717 4.38435 113.068 5.17979C113.443 5.95184 113.63 6.78237 113.63 7.6714C113.63 8.654 113.455 9.46114 113.103 10.0928C112.775 10.7245 112.412 11.2392 112.014 11.6369C111.522 12.1048 110.971 12.4674 110.362 12.7248V12.795C111.205 13.0757 111.955 13.4734 112.611 13.9881C113.173 14.4326 113.689 15.0409 114.157 15.813C114.626 16.5616 114.86 17.5325 114.86 18.7257C114.86 19.6849 114.661 20.5973 114.263 21.4629C113.888 22.3052 113.337 23.0421 112.611 23.6738C111.885 24.3055 110.995 24.8085 109.94 25.1828C108.91 25.5571 107.738 25.7443 106.426 25.7443H95.3564ZM106.075 21.1822C107.129 21.1822 107.949 20.9132 108.535 20.3751C109.12 19.8136 109.413 19.0883 109.413 18.1993C109.413 17.3103 109.12 16.5967 108.535 16.0586C107.949 15.4971 107.129 15.2164 106.075 15.2164H100.628V21.1822H106.075ZM105.372 10.6543C106.262 10.6543 106.953 10.4203 107.445 9.95244C107.937 9.48454 108.183 8.89965 108.183 8.19779C108.183 7.49593 107.937 6.91105 107.445 6.44314C106.953 5.97523 106.262 5.74128 105.372 5.74128H100.628V10.6543H105.372Z" fill="#333333"/>
<path d="M117.687 3.6357C117.687 2.93384 117.956 2.32556 118.495 1.81087C119.034 1.27277 119.678 1.00373 120.428 1.00373C121.177 1.00373 121.81 1.27277 122.325 1.81087C122.864 2.32556 123.134 2.93384 123.134 3.6357C123.134 4.33756 122.864 4.95754 122.325 5.49563C121.787 6.01033 121.142 6.26768 120.393 6.26768C119.643 6.26768 118.999 6.01033 118.46 5.49563C117.944 4.95754 117.687 4.33756 117.687 3.6357ZM118.038 8.54872H122.782V25.7443H118.038V8.54872Z" fill="#333333"/>
<path d="M126.635 8.54872H131.38V11.0052H131.555C131.907 10.4905 132.34 10.0226 132.856 9.60151C133.277 9.25058 133.804 8.93474 134.437 8.654C135.093 8.34986 135.831 8.19779 136.651 8.19779H137.002V13.2863C136.885 13.2629 136.756 13.2278 136.616 13.181C136.475 13.1576 136.299 13.1459 136.089 13.1459C135.901 13.1225 135.679 13.1108 135.421 13.1108C134.273 13.1108 133.312 13.5202 132.539 14.3391C131.766 15.1579 131.38 16.2692 131.38 17.6729V25.7443H126.635V8.54872Z" fill="#333333"/>
<path d="M139.282 8.89965C140.571 8.89965 141.215 8.19779 141.215 6.79407V3.6357H145.432V8.89965H149.298V13.2863H145.432V19.0766C145.432 19.8721 145.631 20.4803 146.03 20.9015C146.451 21.3226 147.014 21.5331 147.716 21.5331C147.974 21.5331 148.22 21.5214 148.454 21.498C148.689 21.4512 148.9 21.4045 149.087 21.3577C149.298 21.3109 149.485 21.2524 149.649 21.1822V25.5688C149.368 25.6624 149.064 25.756 148.736 25.8496C148.454 25.8964 148.115 25.9431 147.716 25.9899C147.342 26.0601 146.932 26.0952 146.487 26.0952C144.729 26.0952 143.324 25.5571 142.27 24.4809C141.215 23.3814 140.688 21.8139 140.688 19.7785V13.2863H137.701V8.89965H139.282Z" fill="#333333"/>
<path d="M157.57 1.17919V11.0052H157.746C158.097 10.4905 158.53 10.0226 159.046 9.60151C159.468 9.25058 159.995 8.93474 160.627 8.654C161.283 8.34986 162.021 8.19779 162.841 8.19779C163.731 8.19779 164.551 8.37326 165.301 8.72419C166.074 9.05172 166.742 9.53133 167.304 10.163C167.89 10.7713 168.347 11.5199 168.675 12.409C169.003 13.298 169.167 14.2923 169.167 15.3919V25.7443H164.423V16.0937C164.423 15.0409 164.141 14.2221 163.579 13.6372C163.017 13.0523 162.244 12.7599 161.26 12.7599C160.206 12.7599 159.327 13.1225 158.624 13.8478C157.921 14.5496 157.57 15.4737 157.57 16.6201V25.7443H152.826V1.17919H157.57Z" fill="#333333"/>
<path d="M171.964 17.1465C171.964 15.8364 172.175 14.6315 172.597 13.5319C173.019 12.4323 173.581 11.4848 174.284 10.6894C175.01 9.89395 175.842 9.28567 176.779 8.86456C177.716 8.42005 178.688 8.19779 179.696 8.19779C180.633 8.19779 181.429 8.34986 182.085 8.654C182.765 8.93474 183.339 9.25058 183.807 9.60151C184.323 10.0226 184.768 10.4905 185.143 11.0052H185.318V1.17919H190.062V25.7443H185.318V23.2878H185.143C184.768 23.8025 184.323 24.2704 183.807 24.6915C183.339 25.0424 182.765 25.37 182.085 25.6741C181.429 25.9548 180.633 26.0952 179.696 26.0952C178.688 26.0952 177.716 25.873 176.779 25.4285C175.842 24.9839 175.01 24.3757 174.284 23.6036C173.581 22.8082 173.019 21.8607 172.597 20.7611C172.175 19.6615 171.964 18.4566 171.964 17.1465ZM176.709 17.1465C176.709 17.8016 176.814 18.4099 177.025 18.9713C177.259 19.5328 177.575 20.0124 177.974 20.4102C178.372 20.8079 178.84 21.1237 179.379 21.3577C179.918 21.5916 180.492 21.7086 181.101 21.7086C181.757 21.7086 182.355 21.5916 182.894 21.3577C183.432 21.1003 183.889 20.7728 184.264 20.3751C184.662 19.9539 184.967 19.4743 185.178 18.9362C185.389 18.3748 185.494 17.7782 185.494 17.1465C185.494 16.5148 185.389 15.9299 185.178 15.3919C184.967 14.8304 184.662 14.3508 184.264 13.953C183.889 13.5319 183.432 13.2044 182.894 12.9704C182.355 12.7131 181.757 12.5844 181.101 12.5844C180.492 12.5844 179.918 12.7014 179.379 12.9353C178.84 13.1693 178.372 13.4851 177.974 13.8829C177.575 14.2806 177.259 14.7602 177.025 15.3217C176.814 15.8832 176.709 16.4914 176.709 17.1465Z" fill="#333333"/>
<path d="M198.501 26.0952C197.704 26.0952 196.978 25.9782 196.322 25.7443C195.689 25.4869 195.139 25.136 194.67 24.6915C194.225 24.247 193.874 23.7323 193.616 23.1474C193.358 22.5391 193.229 21.8841 193.229 21.1822C193.229 19.7785 193.674 18.5853 194.565 17.6027C195.478 16.5967 196.732 15.9533 198.325 15.6726L203.772 14.69L203.737 14.5145C203.62 13.9764 203.315 13.4968 202.823 13.0757C202.331 12.6312 201.652 12.409 200.785 12.409C200.176 12.409 199.625 12.5142 199.133 12.7248C198.665 12.912 198.266 13.1225 197.938 13.3565C197.54 13.6606 197.2 13.9881 196.919 14.3391L194.108 11.5316C194.623 10.9 195.221 10.3385 195.9 9.84716C196.509 9.44944 197.247 9.07512 198.114 8.72419C198.981 8.37326 199.988 8.19779 201.136 8.19779C202.237 8.19779 203.233 8.37326 204.123 8.72419C205.037 9.07512 205.822 9.55472 206.478 10.163C207.134 10.7713 207.638 11.4965 207.989 12.3388C208.34 13.181 208.516 14.0817 208.516 15.0409V25.7443H203.772V23.6387H203.596C203.245 24.1066 202.811 24.516 202.296 24.867C201.874 25.1711 201.347 25.4518 200.715 25.7092C200.082 25.9665 199.344 26.0952 198.501 26.0952ZM199.906 18.7257C199.297 18.8427 198.817 19.0532 198.466 19.3574C198.138 19.6615 197.974 20.0358 197.974 20.4803C197.974 21.0184 198.149 21.4512 198.501 21.7788C198.852 22.0829 199.379 22.235 200.082 22.235C201.136 22.235 202.015 21.8841 202.718 21.1822C203.421 20.4569 203.772 19.5211 203.772 18.3748V18.0238L199.906 18.7257Z" fill="#333333"/>
<path d="M214.676 8.54872L218.717 19.9539H218.893L222.758 8.54872H227.854L220.825 27.148C220.099 29.0898 219.197 30.5637 218.119 31.5697C217.065 32.5991 215.742 33.1138 214.148 33.1138C213.703 33.1138 213.293 33.0787 212.918 33.0085C212.544 32.9617 212.204 32.915 211.899 32.8682C211.571 32.7746 211.267 32.681 210.986 32.5874V28.2008C211.15 28.271 211.337 28.3295 211.548 28.3763C211.946 28.4932 212.403 28.5517 212.918 28.5517C213.715 28.5517 214.348 28.3529 214.816 27.9551C215.285 27.5574 215.648 27.0544 215.906 26.4461L216.257 25.5688L209.58 8.54872H214.676Z" fill="#333333"/>
<path d="M95.3564 54.864V30.2989H105.723C107.035 30.2989 108.23 30.5095 109.308 30.9306C110.385 31.3283 111.311 31.9015 112.084 32.6501C112.857 33.3754 113.455 34.241 113.876 35.247C114.298 36.253 114.509 37.3526 114.509 38.5458C114.509 39.7389 114.298 40.8385 113.876 41.8445C113.455 42.8505 112.857 43.7278 112.084 44.4765C111.311 45.2017 110.385 45.7749 109.308 46.196C108.23 46.5938 107.035 46.7926 105.723 46.7926H100.628V54.864H95.3564ZM100.628 35.2119V41.8796H105.548C106.602 41.8796 107.445 41.5755 108.078 40.9672C108.734 40.3355 109.062 39.5284 109.062 38.5458C109.062 37.5632 108.734 36.7677 108.078 36.1594C107.445 35.5278 106.602 35.2119 105.548 35.2119H100.628Z" fill="#333333"/>
<path d="M120.989 55.2149C120.193 55.2149 119.467 55.098 118.811 54.864C118.178 54.6067 117.628 54.2557 117.159 53.8112C116.714 53.3667 116.362 52.852 116.105 52.2671C115.847 51.6589 115.718 51.0038 115.718 50.3019C115.718 48.8982 116.163 47.705 117.054 46.7224C117.967 45.7164 119.221 45.0731 120.814 44.7923L126.261 43.8097L126.226 43.6343C126.108 43.0962 125.804 42.6166 125.312 42.1954C124.82 41.7509 124.14 41.5287 123.274 41.5287C122.665 41.5287 122.114 41.6339 121.622 41.8445C121.153 42.0317 120.755 42.2422 120.427 42.4762C120.029 42.7803 119.689 43.1079 119.408 43.4588L116.597 40.6513C117.112 40.0197 117.71 39.4582 118.389 38.9669C118.998 38.5692 119.736 38.1948 120.603 37.8439C121.47 37.493 122.477 37.3175 123.625 37.3175C124.726 37.3175 125.722 37.493 126.612 37.8439C127.526 38.1948 128.311 38.6744 128.967 39.2827C129.623 39.891 130.126 40.6163 130.478 41.4585C130.829 42.3007 131.005 43.2014 131.005 44.1606V54.864H126.261V52.7584H126.085C125.734 53.2263 125.3 53.6357 124.785 53.9867C124.363 54.2908 123.836 54.5716 123.203 54.8289C122.571 55.0863 121.833 55.2149 120.989 55.2149ZM122.395 47.8454C121.786 47.9624 121.306 48.1729 120.954 48.4771C120.626 48.7812 120.462 49.1555 120.462 49.6001C120.462 50.1381 120.638 50.571 120.989 50.8985C121.341 51.2026 121.868 51.3547 122.571 51.3547C123.625 51.3547 124.504 51.0038 125.206 50.3019C125.909 49.5767 126.261 48.6409 126.261 47.4945V47.1436L122.395 47.8454Z" fill="#333333"/>
<path d="M134.872 37.6684H139.616V40.125H139.792C140.143 39.6103 140.577 39.1423 141.092 38.7212C141.514 38.3703 142.041 38.0545 142.673 37.7737C143.329 37.4696 144.067 37.3175 144.887 37.3175H145.239V42.406C145.122 42.3826 144.993 42.3475 144.852 42.3007C144.712 42.2773 144.536 42.2656 144.325 42.2656C144.138 42.2422 143.915 42.2305 143.657 42.2305C142.509 42.2305 141.549 42.6399 140.776 43.4588C140.003 44.2776 139.616 45.3889 139.616 46.7926V54.864H134.872V37.6684Z" fill="#333333"/>
<path d="M147.519 38.0194C148.807 38.0194 149.452 37.3175 149.452 35.9138V32.7554H153.669V38.0194H157.534V42.406H153.669V48.1963C153.669 48.9918 153.868 49.6001 154.266 50.0212C154.688 50.4423 155.25 50.6529 155.953 50.6529C156.211 50.6529 156.457 50.6411 156.691 50.6178C156.925 50.571 157.136 50.5242 157.323 50.4774C157.534 50.4306 157.722 50.3721 157.886 50.3019V54.6885C157.605 54.7821 157.3 54.8757 156.972 54.9693C156.691 55.0161 156.351 55.0629 155.953 55.1097C155.578 55.1798 155.168 55.2149 154.723 55.2149C152.966 55.2149 151.56 54.6768 150.506 53.6007C149.452 52.5011 148.924 50.9336 148.924 48.8982V42.406H145.937V38.0194H147.519Z" fill="#333333"/>
<path d="M163.179 37.6684L167.22 49.0737H167.396L171.262 37.6684H176.357L169.329 56.2677C168.602 58.2095 167.701 59.6834 166.623 60.6894C165.569 61.7188 164.245 62.2335 162.652 62.2335C162.207 62.2335 161.797 62.1984 161.422 62.1283C161.047 62.0815 160.707 62.0347 160.403 61.9879C160.075 61.8943 159.77 61.8007 159.489 61.7071V57.3205C159.653 57.3907 159.84 57.4492 160.051 57.496C160.45 57.613 160.906 57.6715 161.422 57.6715C162.218 57.6715 162.851 57.4726 163.319 57.0749C163.788 56.6771 164.151 56.1741 164.409 55.5659L164.76 54.6885L158.083 37.6684H163.179Z" fill="#333333"/>
<path d="M178.282 30.2989H183.904L183.026 47.319H179.16L178.282 30.2989ZM178.282 52.4075C178.282 51.6121 178.551 50.9453 179.09 50.4072C179.629 49.8691 180.297 49.6001 181.093 49.6001C181.89 49.6001 182.557 49.8691 183.096 50.4072C183.635 50.9453 183.904 51.6121 183.904 52.4075C183.904 53.2029 183.635 53.8697 183.096 54.4078C182.557 54.9459 181.89 55.2149 181.093 55.2149C180.297 55.2149 179.629 54.9459 179.09 54.4078C178.551 53.8697 178.282 53.2029 178.282 52.4075Z" fill="#333333"/>
<path d="M38.6942 44.7006V55.5842H0.212891C0.212891 51.2826 0.860725 47.6547 2.15639 44.7006C3.45206 41.7464 5.0846 39.2069 7.05402 37.082C9.02344 34.9571 11.1483 33.1432 13.4287 31.6402C15.7091 30.1372 17.834 28.712 19.8034 27.3645C21.7728 25.9652 23.4054 24.54 24.701 23.0888C25.9967 21.6377 26.6445 19.9015 26.6445 17.8802C26.6445 15.9108 25.919 14.2524 24.4678 12.9049C23.0685 11.5574 21.2027 10.8836 18.8705 10.8836C17.2121 10.8836 15.7868 11.2205 14.5948 11.8942C13.4546 12.568 12.4958 13.3195 11.7184 14.1487C10.8374 15.1334 10.1118 16.2477 9.5417 17.4915L0.212891 12.8271C1.14577 10.4431 2.49327 8.29228 4.25538 6.37469C5.75835 4.76806 7.75368 3.31691 10.2414 2.02124C12.729 0.673748 15.8646 0 19.6479 0C22.5502 0 25.1675 0.440528 27.4997 1.32158C29.8837 2.20264 31.9049 3.42056 33.5634 4.97537C35.2219 6.47834 36.4916 8.26637 37.3727 10.3394C38.2537 12.4125 38.6942 14.667 38.6942 17.1028C38.6942 19.6942 38.2537 21.9486 37.3727 23.8662C36.5434 25.7838 35.4292 27.4941 34.0298 28.9971C32.6305 30.5 31.0757 31.8734 29.3654 33.1173C27.6551 34.3093 25.919 35.5013 24.1568 36.6933C22.4466 37.8853 20.814 39.1292 19.2592 40.4249C17.7044 41.6687 16.4087 43.0939 15.3722 44.7006H38.6942Z" fill="#FC2C38"/>
<path d="M80.3004 44.7006V55.5842H41.819C41.819 51.2826 42.4669 47.6547 43.7625 44.7006C45.0582 41.7464 46.6908 39.2069 48.6602 37.082C50.6296 34.9571 52.7545 33.1432 55.0349 31.6402C57.3152 30.1372 59.4401 28.712 61.4095 27.3645C63.379 25.9652 65.0115 24.54 66.3072 23.0888C67.6028 21.6377 68.2507 19.9015 68.2507 17.8802C68.2507 15.9108 67.5251 14.2524 66.074 12.9049C64.6746 11.5574 62.8089 10.8836 60.4767 10.8836C58.8182 10.8836 57.393 11.2205 56.201 11.8942C55.0608 12.568 54.102 13.3195 53.3246 14.1487C52.4435 15.1334 51.7179 16.2477 51.1479 17.4915L41.819 12.8271C42.7519 10.4431 44.0994 8.29228 45.8615 6.37469C47.3645 4.76806 49.3598 3.31691 51.8475 2.02124C54.3352 0.673748 57.4707 0 61.2541 0C64.1564 0 66.7736 0.440528 69.1058 1.32158C71.4898 2.20264 73.5111 3.42056 75.1695 4.97537C76.828 6.47834 78.0977 8.26637 78.9788 10.3394C79.8599 12.4125 80.3004 14.667 80.3004 17.1028C80.3004 19.6942 79.8599 21.9486 78.9788 23.8662C78.1496 25.7838 77.0353 27.4941 75.636 28.9971C74.2367 30.5 72.6819 31.8734 70.9716 33.1173C69.2613 34.3093 67.5251 35.5013 65.763 36.6933C64.0527 37.8853 62.4202 39.1292 60.8654 40.4249C59.3106 41.6687 58.0149 43.0939 56.9784 44.7006H80.3004Z" fill="#FC2C38"/>
<path d="M315.78 26.23C314.63 26.23 313.549 26.0153 312.537 25.586C311.54 25.1567 310.666 24.5663 309.915 23.815C309.164 23.0637 308.573 22.1897 308.144 21.193C307.715 20.181 307.5 19.1 307.5 17.95C307.5 16.8 307.715 15.7267 308.144 14.73C308.573 13.718 309.164 12.8363 309.915 12.085C310.666 11.3337 311.54 10.7433 312.537 10.314C313.549 9.88467 314.63 9.67 315.78 9.67C316.93 9.67 318.003 9.88467 319 10.314C320.012 10.7433 320.894 11.3337 321.645 12.085C322.396 12.8363 322.987 13.718 323.416 14.73C323.845 15.7267 324.06 16.8 324.06 17.95C324.06 19.1 323.845 20.181 323.416 21.193C322.987 22.1897 322.396 23.0637 321.645 23.815C320.894 24.5663 320.012 25.1567 319 25.586C318.003 26.0153 316.93 26.23 315.78 26.23ZM315.78 24.62C316.7 24.62 317.559 24.4513 318.356 24.114C319.153 23.7767 319.843 23.309 320.426 22.711C321.024 22.113 321.492 21.4077 321.829 20.595C322.166 19.7823 322.335 18.9007 322.335 17.95C322.335 16.9993 322.166 16.1177 321.829 15.305C321.492 14.4923 321.024 13.787 320.426 13.189C319.843 12.591 319.153 12.1233 318.356 11.786C317.559 11.4487 316.7 11.28 315.78 11.28C314.86 11.28 314.001 11.4487 313.204 11.786C312.407 12.1233 311.709 12.591 311.111 13.189C310.528 13.787 310.068 14.4923 309.731 15.305C309.394 16.1177 309.225 16.9993 309.225 17.95C309.225 18.9007 309.394 19.7823 309.731 20.595C310.068 21.4077 310.528 22.113 311.111 22.711C311.709 23.309 312.407 23.7767 313.204 24.114C314.001 24.4513 314.86 24.62 315.78 24.62ZM328.887 14.96V16.524H328.91C329.155 16.1867 329.446 15.8877 329.784 15.627C330.09 15.397 330.466 15.19 330.911 15.006C331.355 14.822 331.869 14.73 332.452 14.73C333.111 14.73 333.717 14.845 334.269 15.075C334.821 15.2897 335.288 15.604 335.672 16.018C336.07 16.4167 336.377 16.9073 336.592 17.49C336.822 18.0727 336.937 18.7243 336.937 19.445V26H335.327V19.445C335.327 18.4637 335.043 17.6817 334.476 17.099C333.924 16.5163 333.211 16.225 332.337 16.225C331.846 16.225 331.386 16.317 330.957 16.501C330.543 16.6697 330.182 16.915 329.876 17.237C329.569 17.559 329.324 17.95 329.14 18.41C328.971 18.8547 328.887 19.353 328.887 19.905V26H327.277V14.96H328.887ZM340.733 9.9H342.343V26H340.733V9.9ZM345.914 11.28C345.914 10.9887 346.013 10.7433 346.213 10.544C346.412 10.3447 346.657 10.245 346.949 10.245C347.24 10.245 347.485 10.3447 347.685 10.544C347.884 10.7433 347.984 10.9887 347.984 11.28C347.984 11.5713 347.884 11.8167 347.685 12.016C347.485 12.2153 347.24 12.315 346.949 12.315C346.657 12.315 346.412 12.2153 346.213 12.016C346.013 11.8167 345.914 11.5713 345.914 11.28ZM346.144 14.96H347.754V26H346.144V14.96ZM353.054 14.96V16.524H353.077C353.323 16.1867 353.614 15.8877 353.951 15.627C354.258 15.397 354.634 15.19 355.078 15.006C355.523 14.822 356.037 14.73 356.619 14.73C357.279 14.73 357.884 14.845 358.436 15.075C358.988 15.2897 359.456 15.604 359.839 16.018C360.238 16.4167 360.545 16.9073 360.759 17.49C360.989 18.0727 361.104 18.7243 361.104 19.445V26H359.494V19.445C359.494 18.4637 359.211 17.6817 358.643 17.099C358.091 16.5163 357.378 16.225 356.504 16.225C356.014 16.225 355.554 16.317 355.124 16.501C354.71 16.6697 354.35 16.915 354.043 17.237C353.737 17.559 353.491 17.95 353.307 18.41C353.139 18.8547 353.054 19.353 353.054 19.905V26H351.444V14.96H353.054ZM374.101 23.93C373.764 24.3593 373.373 24.7427 372.928 25.08C372.53 25.3713 372.047 25.6397 371.479 25.885C370.912 26.115 370.253 26.23 369.501 26.23C368.75 26.23 368.037 26.0843 367.362 25.793C366.703 25.4863 366.12 25.08 365.614 24.574C365.108 24.0527 364.71 23.4393 364.418 22.734C364.127 22.0287 363.981 21.2773 363.981 20.48C363.981 19.6673 364.127 18.916 364.418 18.226C364.71 17.5207 365.101 16.915 365.591 16.409C366.097 15.8877 366.672 15.4813 367.316 15.19C367.976 14.8833 368.666 14.73 369.386 14.73C370.138 14.73 370.835 14.868 371.479 15.144C372.123 15.42 372.683 15.8033 373.158 16.294C373.634 16.7693 374.002 17.3443 374.262 18.019C374.538 18.6937 374.676 19.4373 374.676 20.25C374.676 20.48 374.653 20.6793 374.607 20.848C374.577 21.0013 374.561 21.0703 374.561 21.055H365.591C365.622 21.5457 365.745 22.0133 365.959 22.458C366.174 22.9027 366.458 23.2937 366.81 23.631C367.163 23.9683 367.569 24.2367 368.029 24.436C368.489 24.6353 368.98 24.735 369.501 24.735C370.084 24.735 370.59 24.643 371.019 24.459C371.464 24.2597 371.84 24.045 372.146 23.815C372.499 23.539 372.806 23.2323 373.066 22.895L374.101 23.93ZM373.066 19.675C373.005 19.1843 372.867 18.732 372.652 18.318C372.453 17.8887 372.192 17.5207 371.87 17.214C371.548 16.9073 371.173 16.6697 370.743 16.501C370.329 16.317 369.877 16.225 369.386 16.225C368.896 16.225 368.428 16.317 367.983 16.501C367.554 16.685 367.171 16.938 366.833 17.26C366.496 17.582 366.22 17.95 366.005 18.364C365.791 18.778 365.653 19.215 365.591 19.675H373.066ZM382.373 14.96H383.983V16.524H384.006C384.267 16.1867 384.589 15.8877 384.972 15.627C385.279 15.397 385.662 15.19 386.122 15.006C386.598 14.822 387.15 14.73 387.778 14.73C388.53 14.73 389.227 14.8757 389.871 15.167C390.531 15.443 391.106 15.8417 391.596 16.363C392.087 16.869 392.47 17.4747 392.746 18.18C393.038 18.8853 393.183 19.652 393.183 20.48C393.183 21.308 393.038 22.0747 392.746 22.78C392.47 23.4853 392.087 24.0987 391.596 24.62C391.106 25.126 390.531 25.5247 389.871 25.816C389.227 26.092 388.53 26.23 387.778 26.23C387.15 26.23 386.598 26.138 386.122 25.954C385.662 25.7547 385.279 25.5477 384.972 25.333C384.589 25.0723 384.267 24.7733 384.006 24.436H383.983V30.83H382.373V14.96ZM383.983 20.48C383.983 21.078 384.091 21.6377 384.305 22.159C384.52 22.6803 384.804 23.1327 385.156 23.516C385.509 23.8993 385.908 24.1983 386.352 24.413C386.812 24.6277 387.288 24.735 387.778 24.735C388.3 24.735 388.79 24.6353 389.25 24.436C389.71 24.2213 390.109 23.93 390.446 23.562C390.799 23.1787 391.075 22.7263 391.274 22.205C391.474 21.6837 391.573 21.1087 391.573 20.48C391.573 19.8513 391.474 19.2763 391.274 18.755C391.075 18.2337 390.799 17.789 390.446 17.421C390.109 17.0377 389.71 16.7463 389.25 16.547C388.79 16.3323 388.3 16.225 387.778 16.225C387.288 16.225 386.812 16.3323 386.352 16.547C385.908 16.7617 385.509 17.0607 385.156 17.444C384.804 17.8273 384.52 18.2797 384.305 18.801C384.091 19.3223 383.983 19.882 383.983 20.48ZM399.157 26.23C398.59 26.23 398.061 26.138 397.57 25.954C397.095 25.77 396.681 25.5323 396.328 25.241C395.991 24.9343 395.722 24.5893 395.523 24.206C395.339 23.8073 395.247 23.4087 395.247 23.01C395.247 22.09 395.523 21.3463 396.075 20.779C396.627 20.2117 397.424 19.8437 398.467 19.675L402.722 18.985V18.939C402.722 18.5403 402.653 18.18 402.515 17.858C402.377 17.5207 402.185 17.237 401.94 17.007C401.695 16.7617 401.403 16.57 401.066 16.432C400.729 16.294 400.361 16.225 399.962 16.225C399.471 16.225 399.034 16.3093 398.651 16.478C398.268 16.6313 397.946 16.8153 397.685 17.03C397.363 17.26 397.087 17.5283 396.857 17.835L395.822 16.8C396.129 16.4167 396.489 16.0717 396.903 15.765C397.256 15.5043 397.685 15.2667 398.191 15.052C398.712 14.8373 399.303 14.73 399.962 14.73C400.591 14.73 401.173 14.8373 401.71 15.052C402.247 15.2667 402.707 15.5657 403.09 15.949C403.489 16.3323 403.795 16.7847 404.01 17.306C404.225 17.8273 404.332 18.387 404.332 18.985V26H402.722V24.551H402.699C402.454 24.8577 402.162 25.1337 401.825 25.379C401.518 25.5937 401.143 25.793 400.698 25.977C400.269 26.1457 399.755 26.23 399.157 26.23ZM398.927 21.055C397.547 21.3003 396.857 21.952 396.857 23.01C396.857 23.47 397.049 23.8763 397.432 24.229C397.831 24.5663 398.406 24.735 399.157 24.735C399.678 24.735 400.154 24.6507 400.583 24.482C401.028 24.298 401.403 24.045 401.71 23.723C402.032 23.401 402.277 23.0177 402.446 22.573C402.63 22.113 402.722 21.607 402.722 21.055V20.365L398.927 21.055ZM408.001 14.96H409.611V16.409H409.657C409.887 16.1023 410.178 15.8187 410.531 15.558C410.838 15.3433 411.213 15.1517 411.658 14.983C412.118 14.8143 412.662 14.73 413.291 14.73H413.751V16.34H413.061C412.601 16.34 412.164 16.4243 411.75 16.593C411.336 16.7617 410.968 16.9993 410.646 17.306C410.324 17.6127 410.071 17.9883 409.887 18.433C409.703 18.8623 409.611 19.353 409.611 19.905V26H408.001V14.96ZM416.045 14.96C416.658 14.96 416.965 14.5767 416.965 13.81V11.28H418.46V14.96H420.875V16.455H418.46V23.01C418.46 23.5927 418.59 24.0297 418.851 24.321C419.127 24.597 419.495 24.735 419.955 24.735C420.17 24.735 420.361 24.7197 420.53 24.689C420.714 24.643 420.875 24.597 421.013 24.551C421.166 24.505 421.312 24.4513 421.45 24.39V25.885C421.312 25.9463 421.159 26.0077 420.99 26.069C420.852 26.0997 420.683 26.1303 420.484 26.161C420.3 26.207 420.101 26.23 419.886 26.23C418.935 26.23 418.192 25.954 417.655 25.402C417.118 24.85 416.85 24.0527 416.85 23.01V16.455H414.78V14.96H416.045ZM424.223 14.96L427.765 23.884H427.811L431.353 14.96H433.078L428.018 27.61C427.788 28.1927 427.551 28.6833 427.305 29.082C427.075 29.496 426.822 29.8257 426.546 30.071C426.27 30.3317 425.971 30.5233 425.649 30.646C425.327 30.7687 424.967 30.83 424.568 30.83C424.185 30.83 423.855 30.7917 423.579 30.715C423.441 30.6843 423.311 30.646 423.188 30.6V29.105C423.296 29.151 423.418 29.1893 423.556 29.22C423.786 29.2967 424.047 29.335 424.338 29.335C424.86 29.335 425.281 29.1893 425.603 28.898C425.925 28.622 426.194 28.1927 426.408 27.61L426.983 26L422.498 14.96H424.223ZM309.57 40.96V42.524H309.593C309.838 42.1867 310.13 41.8877 310.467 41.627C310.774 41.397 311.149 41.19 311.594 41.006C312.039 40.822 312.552 40.73 313.135 40.73C313.794 40.73 314.4 40.845 314.952 41.075C315.504 41.2897 315.972 41.604 316.355 42.018C316.754 42.4167 317.06 42.9073 317.275 43.49C317.505 44.0727 317.62 44.7243 317.62 45.445V52H316.01V45.445C316.01 44.4637 315.726 43.6817 315.159 43.099C314.607 42.5163 313.894 42.225 313.02 42.225C312.529 42.225 312.069 42.317 311.64 42.501C311.226 42.6697 310.866 42.915 310.559 43.237C310.252 43.559 310.007 43.95 309.823 44.41C309.654 44.8547 309.57 45.353 309.57 45.905V52H307.96V40.96H309.57ZM330.617 49.93C330.28 50.3593 329.889 50.7427 329.444 51.08C329.045 51.3713 328.562 51.6397 327.995 51.885C327.428 52.115 326.768 52.23 326.017 52.23C325.266 52.23 324.553 52.0843 323.878 51.793C323.219 51.4863 322.636 51.08 322.13 50.574C321.624 50.0527 321.225 49.4393 320.934 48.734C320.643 48.0287 320.497 47.2773 320.497 46.48C320.497 45.6673 320.643 44.916 320.934 44.226C321.225 43.5207 321.616 42.915 322.107 42.409C322.613 41.8877 323.188 41.4813 323.832 41.19C324.491 40.8833 325.181 40.73 325.902 40.73C326.653 40.73 327.351 40.868 327.995 41.144C328.639 41.42 329.199 41.8033 329.674 42.294C330.149 42.7693 330.517 43.3443 330.778 44.019C331.054 44.6937 331.192 45.4373 331.192 46.25C331.192 46.48 331.169 46.6793 331.123 46.848C331.092 47.0013 331.077 47.0703 331.077 47.055H322.107C322.138 47.5457 322.26 48.0133 322.475 48.458C322.69 48.9027 322.973 49.2937 323.326 49.631C323.679 49.9683 324.085 50.2367 324.545 50.436C325.005 50.6353 325.496 50.735 326.017 50.735C326.6 50.735 327.106 50.643 327.535 50.459C327.98 50.2597 328.355 50.045 328.662 49.815C329.015 49.539 329.321 49.2323 329.582 48.895L330.617 49.93ZM329.582 45.675C329.521 45.1843 329.383 44.732 329.168 44.318C328.969 43.8887 328.708 43.5207 328.386 43.214C328.064 42.9073 327.688 42.6697 327.259 42.501C326.845 42.317 326.393 42.225 325.902 42.225C325.411 42.225 324.944 42.317 324.499 42.501C324.07 42.685 323.686 42.938 323.349 43.26C323.012 43.582 322.736 43.95 322.521 44.364C322.306 44.778 322.168 45.215 322.107 45.675H329.582ZM334.29 40.96L337.832 49.769H337.878L341.42 40.96H343.145L338.66 52H337.05L332.565 40.96H334.29ZM354.65 49.93C354.313 50.3593 353.922 50.7427 353.477 51.08C353.078 51.3713 352.595 51.6397 352.028 51.885C351.461 52.115 350.801 52.23 350.05 52.23C349.299 52.23 348.586 52.0843 347.911 51.793C347.252 51.4863 346.669 51.08 346.163 50.574C345.657 50.0527 345.258 49.4393 344.967 48.734C344.676 48.0287 344.53 47.2773 344.53 46.48C344.53 45.6673 344.676 44.916 344.967 44.226C345.258 43.5207 345.649 42.915 346.14 42.409C346.646 41.8877 347.221 41.4813 347.865 41.19C348.524 40.8833 349.214 40.73 349.935 40.73C350.686 40.73 351.384 40.868 352.028 41.144C352.672 41.42 353.232 41.8033 353.707 42.294C354.182 42.7693 354.55 43.3443 354.811 44.019C355.087 44.6937 355.225 45.4373 355.225 46.25C355.225 46.48 355.202 46.6793 355.156 46.848C355.125 47.0013 355.11 47.0703 355.11 47.055H346.14C346.171 47.5457 346.293 48.0133 346.508 48.458C346.723 48.9027 347.006 49.2937 347.359 49.631C347.712 49.9683 348.118 50.2367 348.578 50.436C349.038 50.6353 349.529 50.735 350.05 50.735C350.633 50.735 351.139 50.643 351.568 50.459C352.013 50.2597 352.388 50.045 352.695 49.815C353.048 49.539 353.354 49.2323 353.615 48.895L354.65 49.93ZM353.615 45.675C353.554 45.1843 353.416 44.732 353.201 44.318C353.002 43.8887 352.741 43.5207 352.419 43.214C352.097 42.9073 351.721 42.6697 351.292 42.501C350.878 42.317 350.426 42.225 349.935 42.225C349.444 42.225 348.977 42.317 348.532 42.501C348.103 42.685 347.719 42.938 347.382 43.26C347.045 43.582 346.769 43.95 346.554 44.364C346.339 44.778 346.201 45.215 346.14 45.675H353.615ZM358.093 40.96H359.703V42.409H359.749C359.979 42.1023 360.27 41.8187 360.623 41.558C360.93 41.3433 361.305 41.1517 361.75 40.983C362.21 40.8143 362.754 40.73 363.383 40.73H363.843V42.34H363.153C362.693 42.34 362.256 42.4243 361.842 42.593C361.428 42.7617 361.06 42.9993 360.738 43.306C360.416 43.6127 360.163 43.9883 359.979 44.433C359.795 44.8623 359.703 45.353 359.703 45.905V52H358.093V40.96ZM372.127 35.9V46.825L377.647 40.96H379.602L375.347 45.445L380.062 52H378.222L374.312 46.595L372.127 48.895V52H370.517V35.9H372.127ZM381.896 37.28C381.896 36.9887 381.996 36.7433 382.195 36.544C382.394 36.3447 382.64 36.245 382.931 36.245C383.222 36.245 383.468 36.3447 383.667 36.544C383.866 36.7433 383.966 36.9887 383.966 37.28C383.966 37.5713 383.866 37.8167 383.667 38.016C383.468 38.2153 383.222 38.315 382.931 38.315C382.64 38.315 382.394 38.2153 382.195 38.016C381.996 37.8167 381.896 37.5713 381.896 37.28ZM382.126 40.96H383.736V52H382.126V40.96ZM387.542 35.9H389.152V52H387.542V35.9ZM393.067 35.9H394.677V52H393.067V35.9ZM407.793 49.93C407.455 50.3593 407.064 50.7427 406.62 51.08C406.221 51.3713 405.738 51.6397 405.171 51.885C404.603 52.115 403.944 52.23 403.193 52.23C402.441 52.23 401.728 52.0843 401.054 51.793C400.394 51.4863 399.812 51.08 399.306 50.574C398.8 50.0527 398.401 49.4393 398.11 48.734C397.818 48.0287 397.673 47.2773 397.673 46.48C397.673 45.6673 397.818 44.916 398.11 44.226C398.401 43.5207 398.792 42.915 399.283 42.409C399.789 41.8877 400.364 41.4813 401.008 41.19C401.667 40.8833 402.357 40.73 403.078 40.73C403.829 40.73 404.527 40.868 405.171 41.144C405.815 41.42 406.374 41.8033 406.85 42.294C407.325 42.7693 407.693 43.3443 407.954 44.019C408.23 44.6937 408.368 45.4373 408.368 46.25C408.368 46.48 408.345 46.6793 408.299 46.848C408.268 47.0013 408.253 47.0703 408.253 47.055H399.283C399.313 47.5457 399.436 48.0133 399.651 48.458C399.865 48.9027 400.149 49.2937 400.502 49.631C400.854 49.9683 401.261 50.2367 401.721 50.436C402.181 50.6353 402.671 50.735 403.193 50.735C403.775 50.735 404.281 50.643 404.711 50.459C405.155 50.2597 405.531 50.045 405.838 49.815C406.19 49.539 406.497 49.2323 406.758 48.895L407.793 49.93ZM406.758 45.675C406.696 45.1843 406.558 44.732 406.344 44.318C406.144 43.8887 405.884 43.5207 405.562 43.214C405.24 42.9073 404.864 42.6697 404.435 42.501C404.021 42.317 403.568 42.225 403.078 42.225C402.587 42.225 402.119 42.317 401.675 42.501C401.245 42.685 400.862 42.938 400.525 43.26C400.187 43.582 399.911 43.95 399.697 44.364C399.482 44.778 399.344 45.215 399.283 45.675H406.758ZM410.431 46.48C410.431 45.652 410.569 44.8853 410.845 44.18C411.136 43.4747 411.527 42.869 412.018 42.363C412.508 41.8417 413.076 41.443 413.72 41.167C414.379 40.8757 415.084 40.73 415.836 40.73C416.464 40.73 417.009 40.822 417.469 41.006C417.944 41.19 418.343 41.397 418.665 41.627C419.033 41.8877 419.347 42.1867 419.608 42.524H419.631V35.9H421.241V52H419.631V50.436H419.608C419.347 50.7733 419.033 51.0723 418.665 51.333C418.343 51.5477 417.944 51.7547 417.469 51.954C417.009 52.138 416.464 52.23 415.836 52.23C415.084 52.23 414.379 52.092 413.72 51.816C413.076 51.5247 412.508 51.126 412.018 50.62C411.527 50.0987 411.136 49.4853 410.845 48.78C410.569 48.0747 410.431 47.308 410.431 46.48ZM412.041 46.48C412.041 47.1087 412.14 47.6837 412.34 48.205C412.539 48.7263 412.807 49.1787 413.145 49.562C413.497 49.93 413.904 50.2213 414.364 50.436C414.824 50.6353 415.314 50.735 415.836 50.735C416.326 50.735 416.794 50.6277 417.239 50.413C417.699 50.1983 418.105 49.8993 418.458 49.516C418.81 49.1327 419.094 48.6803 419.309 48.159C419.523 47.6377 419.631 47.078 419.631 46.48C419.631 45.882 419.523 45.3223 419.309 44.801C419.094 44.2797 418.81 43.8273 418.458 43.444C418.105 43.0607 417.699 42.7617 417.239 42.547C416.794 42.3323 416.326 42.225 415.836 42.225C415.314 42.225 414.824 42.3323 414.364 42.547C413.904 42.7463 413.497 43.0377 413.145 43.421C412.807 43.789 412.539 44.2337 412.34 44.755C412.14 45.2763 412.041 45.8513 412.041 46.48ZM431.466 40.96V42.524H431.489C431.734 42.1867 432.025 41.8877 432.363 41.627C432.669 41.397 433.045 41.19 433.49 41.006C433.934 40.822 434.448 40.73 435.031 40.73C435.69 40.73 436.296 40.845 436.848 41.075C437.4 41.2897 437.867 41.604 438.251 42.018C438.649 42.4167 438.956 42.9073 439.171 43.49C439.401 44.0727 439.516 44.7243 439.516 45.445V52H437.906V45.445C437.906 44.4637 437.622 43.6817 437.055 43.099C436.503 42.5163 435.79 42.225 434.916 42.225C434.425 42.225 433.965 42.317 433.536 42.501C433.122 42.6697 432.761 42.915 432.455 43.237C432.148 43.559 431.903 43.95 431.719 44.41C431.55 44.8547 431.466 45.353 431.466 45.905V52H429.856V40.96H431.466ZM448.027 52.23C447.245 52.23 446.509 52.0843 445.819 51.793C445.145 51.4863 444.554 51.08 444.048 50.574C443.542 50.0527 443.136 49.4393 442.829 48.734C442.538 48.0287 442.392 47.2773 442.392 46.48C442.392 45.6673 442.538 44.916 442.829 44.226C443.136 43.5207 443.542 42.915 444.048 42.409C444.554 41.8877 445.145 41.4813 445.819 41.19C446.509 40.8833 447.245 40.73 448.027 40.73C448.809 40.73 449.538 40.8833 450.212 41.19C450.902 41.4813 451.5 41.8877 452.006 42.409C452.512 42.915 452.911 43.5207 453.202 44.226C453.509 44.916 453.662 45.6673 453.662 46.48C453.662 47.2773 453.509 48.0287 453.202 48.734C452.911 49.4393 452.512 50.0527 452.006 50.574C451.5 51.08 450.902 51.4863 450.212 51.793C449.538 52.0843 448.809 52.23 448.027 52.23ZM448.027 50.735C448.579 50.735 449.093 50.6277 449.568 50.413C450.059 50.1983 450.488 49.8993 450.856 49.516C451.224 49.1327 451.516 48.6803 451.73 48.159C451.945 47.6377 452.052 47.078 452.052 46.48C452.052 45.882 451.945 45.3223 451.73 44.801C451.516 44.2797 451.224 43.8273 450.856 43.444C450.488 43.0607 450.059 42.7617 449.568 42.547C449.093 42.3323 448.579 42.225 448.027 42.225C447.475 42.225 446.954 42.3323 446.463 42.547C445.988 42.7617 445.566 43.0607 445.198 43.444C444.83 43.8273 444.539 44.2797 444.324 44.801C444.11 45.3223 444.002 45.882 444.002 46.48C444.002 47.078 444.11 47.6377 444.324 48.159C444.539 48.6803 444.83 49.1327 445.198 49.516C445.566 49.884 445.988 50.183 446.463 50.413C446.954 50.6277 447.475 50.735 448.027 50.735ZM456.654 35.9H458.264V42.524H458.287C458.548 42.1867 458.87 41.8877 459.253 41.627C459.56 41.397 459.943 41.19 460.403 41.006C460.879 40.822 461.431 40.73 462.059 40.73C462.811 40.73 463.508 40.8757 464.152 41.167C464.812 41.443 465.387 41.8417 465.877 42.363C466.368 42.869 466.751 43.4747 467.027 44.18C467.319 44.8853 467.464 45.652 467.464 46.48C467.464 47.308 467.319 48.0747 467.027 48.78C466.751 49.4853 466.368 50.0987 465.877 50.62C465.387 51.126 464.812 51.5247 464.152 51.816C463.508 52.092 462.811 52.23 462.059 52.23C461.431 52.23 460.879 52.138 460.403 51.954C459.943 51.7547 459.56 51.5477 459.253 51.333C458.87 51.0723 458.548 50.7733 458.287 50.436H458.264V52H456.654V35.9ZM458.264 46.48C458.264 47.078 458.372 47.6377 458.586 48.159C458.801 48.6803 459.085 49.1327 459.437 49.516C459.79 49.8993 460.189 50.1983 460.633 50.413C461.093 50.6277 461.569 50.735 462.059 50.735C462.581 50.735 463.071 50.6353 463.531 50.436C463.991 50.2213 464.39 49.93 464.727 49.562C465.08 49.1787 465.356 48.7263 465.555 48.205C465.755 47.6837 465.854 47.1087 465.854 46.48C465.854 45.8513 465.755 45.2763 465.555 44.755C465.356 44.2337 465.08 43.789 464.727 43.421C464.39 43.0377 463.991 42.7463 463.531 42.547C463.071 42.3323 462.581 42.225 462.059 42.225C461.569 42.225 461.093 42.3323 460.633 42.547C460.189 42.7617 459.79 43.0607 459.437 43.444C459.085 43.8273 458.801 44.2797 458.586 44.801C458.372 45.3223 458.264 45.882 458.264 46.48ZM475.16 52.23C474.378 52.23 473.642 52.0843 472.952 51.793C472.278 51.4863 471.687 51.08 471.181 50.574C470.675 50.0527 470.269 49.4393 469.962 48.734C469.671 48.0287 469.525 47.2773 469.525 46.48C469.525 45.6673 469.671 44.916 469.962 44.226C470.269 43.5207 470.675 42.915 471.181 42.409C471.687 41.8877 472.278 41.4813 472.952 41.19C473.642 40.8833 474.378 40.73 475.16 40.73C475.942 40.73 476.671 40.8833 477.345 41.19C478.035 41.4813 478.633 41.8877 479.139 42.409C479.645 42.915 480.044 43.5207 480.335 44.226C480.642 44.916 480.795 45.6673 480.795 46.48C480.795 47.2773 480.642 48.0287 480.335 48.734C480.044 49.4393 479.645 50.0527 479.139 50.574C478.633 51.08 478.035 51.4863 477.345 51.793C476.671 52.0843 475.942 52.23 475.16 52.23ZM475.16 50.735C475.712 50.735 476.226 50.6277 476.701 50.413C477.192 50.1983 477.621 49.8993 477.989 49.516C478.357 49.1327 478.649 48.6803 478.863 48.159C479.078 47.6377 479.185 47.078 479.185 46.48C479.185 45.882 479.078 45.3223 478.863 44.801C478.649 44.2797 478.357 43.8273 477.989 43.444C477.621 43.0607 477.192 42.7617 476.701 42.547C476.226 42.3323 475.712 42.225 475.16 42.225C474.608 42.225 474.087 42.3323 473.596 42.547C473.121 42.7617 472.699 43.0607 472.331 43.444C471.963 43.8273 471.672 44.2797 471.457 44.801C471.243 45.3223 471.135 45.882 471.135 46.48C471.135 47.078 471.243 47.6377 471.457 48.159C471.672 48.6803 471.963 49.1327 472.331 49.516C472.699 49.884 473.121 50.183 473.596 50.413C474.087 50.6277 474.608 50.735 475.16 50.735ZM482.867 46.48C482.867 45.652 483.005 44.8853 483.281 44.18C483.572 43.4747 483.963 42.869 484.454 42.363C484.945 41.8417 485.512 41.443 486.156 41.167C486.815 40.8757 487.521 40.73 488.272 40.73C488.901 40.73 489.445 40.822 489.905 41.006C490.38 41.19 490.779 41.397 491.101 41.627C491.469 41.8877 491.783 42.1867 492.044 42.524H492.067V35.9H493.677V52H492.067V50.436H492.044C491.783 50.7733 491.469 51.0723 491.101 51.333C490.779 51.5477 490.38 51.7547 489.905 51.954C489.445 52.138 488.901 52.23 488.272 52.23C487.521 52.23 486.815 52.092 486.156 51.816C485.512 51.5247 484.945 51.126 484.454 50.62C483.963 50.0987 483.572 49.4853 483.281 48.78C483.005 48.0747 482.867 47.308 482.867 46.48ZM484.477 46.48C484.477 47.1087 484.577 47.6837 484.776 48.205C484.975 48.7263 485.244 49.1787 485.581 49.562C485.934 49.93 486.34 50.2213 486.8 50.436C487.26 50.6353 487.751 50.735 488.272 50.735C488.763 50.735 489.23 50.6277 489.675 50.413C490.135 50.1983 490.541 49.8993 490.894 49.516C491.247 49.1327 491.53 48.6803 491.745 48.159C491.96 47.6377 492.067 47.078 492.067 46.48C492.067 45.882 491.96 45.3223 491.745 44.801C491.53 44.2797 491.247 43.8273 490.894 43.444C490.541 43.0607 490.135 42.7617 489.675 42.547C489.23 42.3323 488.763 42.225 488.272 42.225C487.751 42.225 487.26 42.3323 486.8 42.547C486.34 42.7463 485.934 43.0377 485.581 43.421C485.244 43.789 484.975 44.2337 484.776 44.755C484.577 45.2763 484.477 45.8513 484.477 46.48ZM497.693 40.96L501.235 49.884H501.281L504.823 40.96H506.548L501.488 53.61C501.258 54.1927 501.02 54.6833 500.775 55.082C500.545 55.496 500.292 55.8257 500.016 56.071C499.74 56.3317 499.441 56.5233 499.119 56.646C498.797 56.7687 498.437 56.83 498.038 56.83C497.655 56.83 497.325 56.7917 497.049 56.715C496.911 56.6843 496.781 56.646 496.658 56.6V55.105C496.765 55.151 496.888 55.1893 497.026 55.22C497.256 55.2967 497.517 55.335 497.808 55.335C498.329 55.335 498.751 55.1893 499.073 54.898C499.395 54.622 499.663 54.1927 499.878 53.61L500.453 52L495.968 40.96H497.693Z" fill="#333333"/>
<line x1="267.267" y1="2" x2="267.267" y2="65.4949" stroke="#333333"/>
</svg>
