<svg width="131" height="126" viewBox="0 0 131 126" fill="none" xmlns="http://www.w3.org/2000/svg">
<path d="M44.6807 124.979C41.5965 124.979 37.9594 123.065 36.34 122.114C35.0047 121.332 34.5613 119.613 35.3485 118.282C36.1358 116.952 37.8497 116.504 39.1801 117.291C40.9389 118.322 43.161 119.209 44.2871 119.368C45.7868 114.65 52.1893 90.8289 56.3895 74.9498C56.7881 73.455 58.3177 72.5632 59.8124 72.9568C61.3072 73.3554 62.199 74.885 61.8054 76.3797C60.6545 80.7294 50.5251 118.95 49.2546 122.129C48.7663 123.349 47.7997 124.261 46.5392 124.695C45.9612 124.894 45.3334 124.979 44.6807 124.979Z" fill="#E5E8E8" stroke="#333333" stroke-miterlimit="10"/>
<path d="M100.131 107.391C101.67 107.241 102.796 105.871 102.647 104.331C102.438 102.184 101.436 95.0191 97.3355 93.0212C95.7113 92.229 94.2265 92.9963 91.9744 94.1472C88.7607 95.7964 82.9661 98.5766 78.5516 97.1616C77.0718 94.9045 72.5976 85.9212 68.8109 77.8695C68.1532 76.4694 66.4841 75.8665 65.084 76.5242C63.684 77.1819 63.0711 78.856 63.7388 80.2511C70.8338 95.0092 71.5463 100.714 76.0305 102.239C83.4345 104.755 90.6391 101.123 94.5254 99.1297C94.8044 98.9852 95.1134 98.8307 95.3974 98.6862C96.0999 99.9069 96.8373 102.523 97.0715 104.874C97.211 106.319 98.4317 107.401 99.8567 107.401C99.9463 107.406 100.036 107.401 100.131 107.391Z" fill="#E5E8E8" stroke="#333333" stroke-miterlimit="10"/>
<path d="M112.866 79.6749L1 79.6749L1 45.7991L112.866 45.7991L112.866 79.6749Z" fill="#E5E8E8" stroke="#333333" stroke-miterlimit="10"/>
<path d="M112.865 45.8023H130V79.6781H112.865V45.8023Z" fill="#FC2C38" stroke="#333333" stroke-miterlimit="10"/>
<path d="M35.0441 65.6475H13.3505C11.0386 65.6475 9.16021 63.7691 9.16021 61.4572C9.16021 59.1454 11.0386 57.267 13.3505 57.267H35.0441C37.356 57.267 39.2344 59.1454 39.2344 61.4572C39.2344 63.7691 37.356 65.6475 35.0441 65.6475Z" fill="white" stroke="#333333" stroke-miterlimit="10"/>
<path d="M17.053 64.6609C15.1461 64.6609 13.6002 63.115 13.6002 61.2081C13.6002 59.3011 15.1461 57.7552 17.053 57.7552C18.96 57.7552 20.5059 59.3011 20.5059 61.2081C20.5059 63.115 18.96 64.6609 17.053 64.6609Z" fill="#FC2C38" stroke="#333333" stroke-miterlimit="10"/>
<path d="M79.4133 65.6475H57.7196C55.4077 65.6475 53.5294 63.7691 53.5294 61.4572C53.5294 59.1454 55.4077 57.267 57.7196 57.267H79.4133C81.7251 57.267 83.6035 59.1454 83.6035 61.4572C83.6035 63.7691 81.7301 65.6475 79.4133 65.6475Z" fill="white" stroke="#333333" stroke-miterlimit="10"/>
<path d="M61.4222 64.6609C59.5152 64.6609 57.9693 63.115 57.9693 61.2081C57.9693 59.3011 59.5152 57.7552 61.4222 57.7552C63.3291 57.7552 64.875 59.3011 64.875 61.2081C64.875 63.115 63.3291 64.6609 61.4222 64.6609Z" fill="#FC2C38" stroke="#333333" stroke-miterlimit="10"/>
<path d="M108.496 71.9055C108.496 73.9533 106.837 75.6074 104.794 75.6074C102.751 75.6074 101.092 73.9483 101.092 71.9055C101.092 69.8577 102.751 68.2035 104.794 68.2035C106.837 68.2035 108.496 69.8626 108.496 71.9055Z" fill="white" stroke="#333333" stroke-miterlimit="10"/>
<path d="M108.496 61.3277C108.496 63.3755 106.837 65.0297 104.794 65.0297C102.751 65.0297 101.092 63.3705 101.092 61.3277C101.092 59.2849 102.751 57.6257 104.794 57.6257C106.837 57.6257 108.496 59.2849 108.496 61.3277Z" fill="white" stroke="#333333" stroke-miterlimit="10"/>
<path d="M99.1582 4.42295C99.1582 2.5346 97.6286 1 95.7353 1C93.8419 1 92.3123 2.5346 92.3123 4.42295C92.3123 5.98745 93.3636 7.3078 94.8035 7.71138V45.8023H96.672V7.71138C98.1069 7.3078 99.1582 5.98745 99.1582 4.42295Z" fill="#FC2C38" stroke="#333333" stroke-miterlimit="10"/>
</svg>
