<svg width="213" height="297" viewBox="0 0 213 297" fill="none" xmlns="http://www.w3.org/2000/svg">
<path d="M95.0768 255.06C92.4173 252.119 91.1963 248.041 91.4364 242.908C92.4862 220.472 119.704 204.785 120.862 204.127C122.6 203.139 124.678 203.65 125.498 205.274C126.316 206.892 125.576 209.005 123.838 209.992C123.478 210.197 99.2443 224.243 98.3973 242.493C98.2039 246.614 99.2599 249.467 101.608 251.207C106.555 254.865 116.506 253.003 119.927 251.976C121.766 251.426 123.573 252.372 124.001 254.118L125.812 261.492C126.247 263.279 125.085 265.24 123.216 265.865C121.346 266.49 119.47 265.545 119.035 263.757L117.948 259.338C112.892 260.351 103.295 261.437 97.0907 256.872C96.3441 256.326 95.6704 255.723 95.0768 255.06Z" fill="#E5E8E8" stroke="#333333" stroke-miterlimit="10"/>
<path d="M178.301 234.574C174.472 236.589 170.074 237.07 165.19 235.994C143.852 231.294 138.712 203.058 138.504 201.864C138.188 200.064 139.452 198.194 141.324 197.691C143.196 197.188 144.966 198.24 145.279 200.034C145.347 200.405 150.003 225.554 167.358 229.371C171.276 230.239 174.423 229.712 176.977 227.789C182.344 223.732 184.217 214.047 184.483 210.656C184.625 208.83 186.212 207.288 188.058 207.178L195.867 206.696C197.761 206.578 199.229 207.994 199.145 209.86C199.061 211.726 197.457 213.336 195.563 213.453L190.88 213.746C189.995 218.677 187.507 227.894 180.797 232.984C179.993 233.588 179.161 234.116 178.301 234.574Z" fill="#E5E8E8" stroke="#333333" stroke-miterlimit="10"/>
<path d="M6.94366 82.0547L75.3429 230.825L190.842 169.973L132.701 43.5163L92.9219 36.7557L6.94366 82.0547Z" fill="#E5E8E8" stroke="#333333" stroke-miterlimit="10"/>
<path d="M125.525 42.4203L86.66 35.8289L96.6819 57.5798L125.525 42.4203Z" fill="#E5E8E8" stroke="#333333" stroke-miterlimit="10" stroke-linejoin="bevel"/>
<path d="M99.6269 101.718L128.849 86.6204C132.294 84.8403 136.282 85.9002 137.753 88.9868C139.223 92.0733 137.621 96.0215 134.176 97.8016L104.954 112.899C101.509 114.679 97.5207 113.619 96.0501 110.533C94.5721 107.45 96.1741 103.502 99.6269 101.718Z" fill="white" stroke="#333333" stroke-miterlimit="10"/>
<path d="M124.609 90.3187C121.735 91.8364 120.363 95.1254 121.546 97.6648C122.728 100.204 126.017 101.032 128.892 99.5148C131.766 97.9971 133.138 94.7081 131.955 92.1687C130.773 89.6293 127.484 88.801 124.609 90.3187Z" fill="#FC2C38" stroke="#333333" stroke-miterlimit="10"/>
<path d="M49.6832 124.48L78.8737 109.421C82.3153 107.645 86.2331 108.564 87.6205 111.471C89.0079 114.379 87.3414 118.178 83.8998 119.953L54.7093 135.013C51.2677 136.788 47.35 135.87 45.9625 132.962C44.5676 130.059 46.2341 126.259 49.6832 124.48Z" fill="white" stroke="#333333" stroke-miterlimit="10"/>
<path d="M74.3402 112.432C71.458 113.954 70.1513 117.401 71.4218 120.13C72.6922 122.859 76.0586 123.837 78.9408 122.315C81.823 120.793 83.1297 117.346 81.8592 114.617C80.5888 111.888 77.2224 110.91 74.3402 112.432Z" fill="#FC2C38" stroke="#333333" stroke-miterlimit="10"/>
<path d="M112.465 124.135C116.069 131.889 112.241 141.692 103.907 146.031C95.573 150.369 85.8978 147.598 82.2937 139.843" stroke="#333333" stroke-miterlimit="10"/>
<path d="M76.849 141.128L88.0066 135.683" stroke="#333333" stroke-miterlimit="10"/>
<path d="M105.803 126.852L116.952 121.403" stroke="#333333" stroke-miterlimit="10"/>
</svg>
