<svg width="125" height="104" viewBox="0 0 125 104" fill="none" xmlns="http://www.w3.org/2000/svg">
<path d="M3.80945 52.8138C14.7354 50.6003 25.426 57.6881 27.6394 68.6141C29.7775 79.1539 23.2549 89.4724 12.9788 92.1756L9.08407 83.8022L3.55985 83.124C2.7404 83.0251 1.9916 83.6091 1.8927 84.4285C1.7938 85.248 2.37777 85.9968 3.19722 86.0957L7.07312 86.5713L7.91613 88.3798L7.61943 88.1302L3.47037 89.1804C2.66975 89.3829 2.18468 90.1976 2.38719 90.9982C2.5897 91.7989 3.39973 92.2981 4.20505 92.0814L6.8612 91.408L8.81563 93.0563L4.53001 93.9275L3.14071 97.5962C2.84872 98.3686 3.23961 99.2351 4.01196 99.5271C4.28511 99.6307 4.57239 99.6496 4.83612 99.593C5.32591 99.4941 5.74976 99.1551 5.94285 98.6559L6.74346 96.5319L11.7308 95.5193L12.4419 95.3733L14.3022 94.9966L14.2645 94.9212C25.7603 91.6105 32.9941 79.9357 30.5781 68.0113C28.035 55.4652 15.7621 47.3272 3.21606 49.8703" fill="#FC2C38"/>
<path d="M3.80945 52.8138C14.7354 50.6003 25.426 57.6881 27.6394 68.6141C29.7775 79.1539 23.2549 89.4724 12.9788 92.1756L9.08407 83.8022L3.55985 83.124C2.7404 83.0251 1.9916 83.6091 1.8927 84.4285C1.7938 85.248 2.37777 85.9968 3.19722 86.0957L7.07312 86.5713L7.91613 88.3798L7.61943 88.1302L3.47037 89.1804C2.66975 89.3829 2.18468 90.1976 2.38719 90.9982C2.5897 91.7989 3.39973 92.2981 4.20505 92.0814L6.8612 91.408L8.81563 93.0563L4.53001 93.9275L3.14071 97.5962C2.84872 98.3686 3.23961 99.2351 4.01196 99.5271C4.28511 99.6307 4.57239 99.6496 4.83612 99.593C5.32591 99.4941 5.74976 99.1551 5.94285 98.6559L6.74346 96.5319L11.7308 95.5193L12.4419 95.3733L14.3022 94.9966L14.2645 94.9212C25.7603 91.6105 32.9941 79.9357 30.5781 68.0113C28.035 55.4652 15.7621 47.3272 3.21606 49.8703" stroke="#333333" stroke-miterlimit="10"/>
<path d="M71.1953 97.8976C72.0901 98.0672 72.9472 97.4785 73.1167 96.5837C73.3522 95.3357 73.9597 91.1254 71.9676 89.3264C71.1811 88.6153 70.2157 88.8036 68.7557 89.0862C66.6694 89.4912 63.2409 90.1553 60.6837 88.5917C60.2175 87.0753 59.1625 81.2732 58.3431 76.1022C58.2018 75.2026 57.3588 74.5904 56.4593 74.7317C55.5598 74.873 54.9475 75.716 55.0888 76.6155C57.2411 90.1929 57.7921 90.5885 58.4279 91.0453C62.1672 93.7203 66.8578 92.8067 69.3774 92.3169C69.5564 92.2839 69.7589 92.2415 69.9425 92.2086C70.1403 93.0139 70.1262 94.6104 69.8719 95.9762C69.7165 96.8145 70.2251 97.6245 71.0304 97.86C71.0869 97.8788 71.1435 97.8882 71.1953 97.8976Z" fill="#FC2C38" stroke="#333333" stroke-miterlimit="10"/>
<path d="M46.666 102.748C47.2688 103.427 48.3096 103.492 48.9878 102.89C49.9391 102.047 53.0003 99.0938 52.534 96.4565C52.3504 95.411 51.4744 94.9683 50.1463 94.2948C48.2531 93.3341 45.1355 91.7564 44.0758 88.9543C44.6362 87.4708 47.363 82.2386 49.8873 77.6562C50.3253 76.8603 50.0333 75.8572 49.2374 75.4192C48.4415 74.9813 47.4384 75.2732 47.0004 76.0691C40.3742 88.116 40.5673 88.7612 40.7886 89.5147C42.1025 93.9181 46.3693 96.0797 48.6581 97.2383C48.823 97.323 49.0019 97.4125 49.1715 97.4973C48.8324 98.2508 47.8434 99.5082 46.8073 100.431C46.1668 100.996 46.0726 101.952 46.5671 102.631C46.5954 102.668 46.6284 102.706 46.666 102.748Z" fill="#FC2C38" stroke="#333333" stroke-miterlimit="10"/>
<path d="M65.7134 7.74869L70.0696 1H104.863V7.74869V17.097V78.3768H1.00038V7.74869H65.7134Z" fill="#FC2C38" stroke="#333333" stroke-miterlimit="10"/>
<path d="M69.415 48.6223H17.6296C12.1054 48.6223 7.62664 44.1436 7.62664 38.6194C7.62664 33.0952 12.1054 28.6165 17.6296 28.6165H69.415C74.9393 28.6165 79.418 33.0952 79.418 38.6194C79.418 44.1436 74.9393 48.6223 69.415 48.6223Z" fill="white" stroke="#333333" stroke-miterlimit="10"/>
<path d="M26.9939 48.3304C21.6047 48.3304 17.2359 43.9616 17.2359 38.5724C17.2359 33.1832 21.6047 28.8143 26.9939 28.8143C32.3831 28.8143 36.752 33.1832 36.752 38.5724C36.752 43.9616 32.3831 48.3304 26.9939 48.3304Z" fill="#75787B" stroke="#333333" stroke-miterlimit="10"/>
<path d="M96.7665 56.4495C107.692 54.2361 118.383 61.3238 120.596 72.2498C122.735 82.7896 116.212 93.1081 105.936 95.8114L102.041 87.4379L96.5169 86.7597C95.6974 86.6608 94.9486 87.2448 94.8497 88.0643C94.7508 88.8837 95.3348 89.6325 96.1543 89.7314L100.03 90.2071L100.873 92.0155L100.576 91.7659L96.4274 92.8161C95.6268 93.0186 95.1417 93.8334 95.3442 94.634C95.5467 95.4346 96.3568 95.9338 97.1621 95.7172L99.8182 95.0437L101.773 96.692L97.487 97.5633L96.0977 101.232C95.8058 102.004 96.1966 102.871 96.969 103.163C97.2421 103.266 97.5294 103.285 97.7932 103.229C98.2829 103.13 98.7068 102.791 98.8999 102.292L99.7005 100.168L104.688 99.1551L105.399 99.0091L107.259 98.6323L107.222 98.557C118.717 95.2462 125.951 83.5714 123.535 71.647C120.992 59.1009 108.719 50.963 96.1731 53.5061" fill="#FC2C38"/>
<path d="M96.7665 56.4495C107.692 54.2361 118.383 61.3238 120.596 72.2498C122.735 82.7896 116.212 93.1081 105.936 95.8114L102.041 87.4379L96.5169 86.7597C95.6974 86.6608 94.9486 87.2448 94.8497 88.0643C94.7508 88.8837 95.3348 89.6325 96.1543 89.7314L100.03 90.2071L100.873 92.0155L100.576 91.7659L96.4274 92.8161C95.6268 93.0186 95.1417 93.8334 95.3442 94.634C95.5467 95.4346 96.3568 95.9338 97.1621 95.7172L99.8182 95.0437L101.773 96.692L97.487 97.5633L96.0977 101.232C95.8058 102.004 96.1966 102.871 96.969 103.163C97.2421 103.266 97.5294 103.285 97.7932 103.229C98.2829 103.13 98.7068 102.791 98.8999 102.292L99.7005 100.168L104.688 99.1551L105.399 99.0091L107.259 98.6323L107.222 98.557C118.717 95.2462 125.951 83.5714 123.535 71.647C120.992 59.1009 108.719 50.963 96.1731 53.5061" stroke="#333333" stroke-miterlimit="10"/>
</svg>
