<svg width="64" height="140" viewBox="0 0 64 140" fill="none" xmlns="http://www.w3.org/2000/svg">
<path d="M33.8446 73.305C40.0052 65.2037 38.4279 53.6009 30.3266 47.4403C29.8022 47.0439 29.0549 47.143 28.6585 47.6674C28.2621 48.1918 28.3612 48.9391 28.8856 49.3355C35.9422 54.7034 37.3172 64.8073 31.9494 71.8639C26.7715 78.6687 17.1878 80.184 10.1807 75.4645L13.1413 68.7423L10.6473 65.0839C10.2757 64.543 9.53661 64.4026 8.99157 64.7701C8.44652 65.1417 8.31026 65.8808 8.67775 66.4259L10.4285 68.9901L9.78848 70.4435L9.78435 70.1338L6.98069 68.2055C6.43978 67.8339 5.69654 67.9702 5.32493 68.5111C4.95331 69.052 5.08131 69.7994 5.63048 70.1668L7.42664 71.4015L7.4638 73.433L4.69317 71.3271L1.7739 72.4213C1.15866 72.6526 0.844852 73.338 1.07608 73.9532C1.15866 74.1721 1.29492 74.3496 1.46835 74.4818C1.78216 74.7213 2.21158 74.7997 2.60798 74.6511L4.29678 74.0193L7.51748 76.4679L7.97581 76.8188L9.17738 77.7314L9.20628 77.6694C17.2167 82.806 27.9896 81.0057 33.8446 73.305Z" fill="#FC2C38" stroke="#333333" stroke-width="0.7" stroke-miterlimit="10"/>
<path d="M47.1087 17.3199L26.5664 17.4858L27.283 106.2L47.8253 106.034L47.1087 17.3199Z" fill="#FC2C38" stroke="#333333" stroke-width="0.7" stroke-miterlimit="10"/>
<path d="M47.8235 106.032L27.2812 106.197L37.8105 137.966L47.8235 106.032Z" fill="#E5E8E8" stroke="#333333" stroke-width="0.7" stroke-miterlimit="10"/>
<path d="M40.3217 1.00021L33.0958 1.05802C29.4209 1.08692 26.4645 4.09291 26.4934 7.7678L26.5718 17.4836L47.1141 17.3184L47.0356 7.60264C47.0026 3.92774 43.9966 0.971306 40.3217 1.00021Z" fill="#E5E8E8" stroke="#333333" stroke-width="0.7" stroke-miterlimit="10"/>
<path d="M33.583 125.199L37.8153 137.967L41.8371 125.133L33.583 125.199Z" fill="#FC2C38" stroke="#333333" stroke-width="0.7" stroke-miterlimit="10"/>
<path d="M17.7892 38.5625L32.1089 38.4469C33.6367 38.4345 34.8671 37.1875 34.8548 35.6598C34.8424 34.132 33.5954 32.9015 32.0676 32.9139L17.7479 33.0295C16.2201 33.0419 14.9897 34.2889 15.002 35.8167C15.0103 37.3486 16.2614 38.5749 17.7892 38.5625Z" fill="white" stroke="#333333" stroke-width="0.7" stroke-miterlimit="10"/>
<path d="M21.2793 37.7319C22.5381 37.7319 23.5585 36.7114 23.5585 35.4526C23.5585 34.1938 22.5381 33.1733 21.2793 33.1733C20.0205 33.1733 19 34.1938 19 35.4526C19 36.7114 20.0205 37.7319 21.2793 37.7319Z" fill="#FC2C38" stroke="#333333" stroke-width="0.7" stroke-miterlimit="10"/>
<path d="M39.715 38.385L54.0347 38.2694C55.5625 38.257 56.7929 37.01 56.7805 35.4823C56.7681 33.9545 55.5212 32.724 53.9934 32.7364L39.6737 32.852C38.1459 32.8644 36.9154 34.1114 36.9278 35.6392C36.9361 37.1711 38.1872 38.3974 39.715 38.385Z" fill="white" stroke="#333333" stroke-width="0.7" stroke-miterlimit="10"/>
<path d="M43.205 37.5585C44.4638 37.5585 45.4843 36.5381 45.4843 35.2793C45.4843 34.0205 44.4638 33 43.205 33C41.9462 33 40.9258 34.0205 40.9258 35.2793C40.9258 36.5381 41.9462 37.5585 43.205 37.5585Z" fill="#FC2C38" stroke="#333333" stroke-width="0.7" stroke-miterlimit="10"/>
<path d="M44.4066 51.5777C53.2717 51.5075 60.5389 58.6591 60.6133 67.5243C60.6835 76.0756 54.0274 83.1364 45.5999 83.6897L43.8285 76.5629L39.6168 75.1961C38.9892 74.9938 38.3203 75.3365 38.1179 75.96C37.9156 76.5835 38.2583 77.2566 38.8818 77.4589L41.8341 78.4168L42.2181 79.957L42.0241 79.7175L38.6258 79.9074C37.9693 79.9446 37.4655 80.5062 37.5027 81.1627C37.5399 81.8192 38.0973 82.3312 38.7579 82.2858L40.934 82.1661L42.2057 83.7516L38.729 83.7805L37.0898 86.4314C36.7429 86.993 36.9164 87.7238 37.4779 88.0707C37.6761 88.1945 37.895 88.2524 38.1138 88.2482C38.5102 88.2441 38.8942 88.0459 39.1172 87.6825L40.0669 86.1465L44.1134 86.1135L44.6915 86.1094L46.2027 86.097L46.1862 86.0309C55.6583 85.1886 63.0783 77.1781 62.9999 67.5036C62.9173 57.3254 54.5724 49.1126 44.3942 49.1952" fill="#FC2C38"/>
<path d="M44.4066 51.5777C53.2717 51.5075 60.5389 58.6591 60.6133 67.5243C60.6835 76.0756 54.0274 83.1364 45.5999 83.6897L43.8285 76.5629L39.6168 75.1961C38.9892 74.9938 38.3203 75.3365 38.1179 75.96C37.9156 76.5835 38.2583 77.2566 38.8818 77.4589L41.8341 78.4168L42.2181 79.957L42.0241 79.7175L38.6258 79.9074C37.9693 79.9446 37.4655 80.5062 37.5027 81.1627C37.5399 81.8192 38.0973 82.3312 38.7579 82.2858L40.934 82.1661L42.2057 83.7516L38.729 83.7805L37.0898 86.4314C36.7429 86.993 36.9164 87.7238 37.4779 88.0707C37.6761 88.1945 37.895 88.2524 38.1138 88.2482C38.5102 88.2441 38.8942 88.0459 39.1172 87.6825L40.0669 86.1465L44.1134 86.1135L44.6915 86.1094L46.2027 86.097L46.1862 86.0309C55.6583 85.1886 63.0783 77.1781 62.9999 67.5036C62.9173 57.3254 54.5724 49.1126 44.3942 49.1952" stroke="#333333" stroke-width="0.7" stroke-miterlimit="10"/>
</svg>
