<svg width="174" height="61" viewBox="0 0 174 61" fill="none" xmlns="http://www.w3.org/2000/svg">
<g clip-path="url(#clip0)">
<path d="M173.31 59.5179C173.169 26.9167 146.702 0.527771 114.064 0.527771C81.4266 0.527771 54.9593 26.9167 54.8184 59.5179H173.31Z" fill="#E5E8E8" stroke="#333333" stroke-width="2" stroke-miterlimit="10"/>
<path d="M59.0998 54.9657C58.938 54.4959 55.0749 43.6845 41.0321 42.2802C34.1256 41.5912 26.5352 46.7698 19.8427 51.3428C14.4552 55.0232 10.0754 58.0144 6.27494 58.0144C5.79988 58.0144 5.33527 57.9674 4.8811 57.8735C3.20536 57.5185 1.84284 56.511 0.835314 54.877C0.229752 53.8956 0.532533 52.6113 1.51396 52.0058C2.49539 51.4002 3.7796 51.703 4.38516 52.6844C4.89676 53.5197 5.38225 53.7128 5.74246 53.7911C8.12294 54.2923 12.8787 51.0452 17.4831 47.9026C24.7655 42.9276 33.0189 37.2948 41.4445 38.13C58.2593 39.811 62.8689 53.076 63.0569 53.6398" fill="#E5E8E8"/>
<path d="M59.0998 54.9657C58.938 54.4959 55.0749 43.6845 41.0321 42.2802C34.1256 41.5912 26.5352 46.7698 19.8427 51.3428C14.4552 55.0232 10.0754 58.0144 6.27494 58.0144C5.79988 58.0144 5.33527 57.9674 4.8811 57.8735C3.20536 57.5185 1.84284 56.511 0.835314 54.877C0.229752 53.8956 0.532533 52.6113 1.51396 52.0058C2.49539 51.4002 3.7796 51.703 4.38516 52.6844C4.89676 53.5197 5.38225 53.7128 5.74246 53.7911C8.12294 54.2923 12.8787 51.0452 17.4831 47.9026C24.7655 42.9276 33.0189 37.2948 41.4445 38.13C58.2593 39.811 62.8689 53.076 63.0569 53.6398" stroke="#333333" stroke-width="2" stroke-miterlimit="10"/>
<path d="M108.092 50.1213H162.322C167.819 50.1213 172.272 45.6828 172.272 40.2026C172.272 34.7223 167.819 30.2839 162.322 30.2839H108.092C102.595 30.2839 98.1426 34.7223 98.1426 40.2026C98.1569 45.6828 102.609 50.1213 108.092 50.1213Z" fill="white" stroke="#333333" stroke-width="2" stroke-miterlimit="10"/>
<path d="M152.174 48.5551C156.931 48.5551 160.788 44.8156 160.788 40.2026C160.788 35.5896 156.931 31.85 152.174 31.85C147.417 31.85 143.561 35.5896 143.561 40.2026C143.561 44.8156 147.417 48.5551 152.174 48.5551Z" fill="#FC2C38" stroke="#333333" stroke-width="2" stroke-miterlimit="10"/>
</g>
<defs>
<clipPath id="clip0">
<rect width="174" height="60.0342" fill="white" transform="translate(0 0.0057373)"/>
</clipPath>
</defs>
</svg>
