<svg width="49" height="117" viewBox="0 0 49 117" fill="none" xmlns="http://www.w3.org/2000/svg">
<path d="M16.894 116.221C15.5818 116.221 14.0391 115.349 13.3523 114.914C12.7885 114.555 12.5988 113.771 12.932 113.166C13.2651 112.556 13.9929 112.356 14.5619 112.715C15.3102 113.186 16.2533 113.591 16.73 113.663C17.3655 111.51 20.0872 100.639 21.8708 93.397C22.04 92.7153 22.6909 92.3104 23.3265 92.4898C23.962 92.6692 24.3413 93.3713 24.1722 94.053C23.6852 96.0366 19.3798 113.479 18.8417 114.924C18.6366 115.483 18.2266 115.898 17.6884 116.093C17.4373 116.185 17.1707 116.221 16.894 116.221Z" fill="#FC2C38" stroke="#333333" stroke-width="0.697611" stroke-miterlimit="10"/>
<path d="M26.894 116.221C25.5819 116.221 24.0391 115.349 23.3523 114.914C22.7885 114.555 22.5988 113.771 22.932 113.166C23.2651 112.556 23.993 112.356 24.5619 112.715C25.3102 113.186 26.2533 113.591 26.73 113.663C27.3655 111.51 30.0872 100.639 31.8708 93.397C32.04 92.7153 32.6909 92.3104 33.3265 92.4898C33.962 92.6692 34.3413 93.3713 34.1722 94.053C33.6852 96.0366 29.3798 113.479 28.8417 114.924C28.6366 115.483 28.2266 115.898 27.6884 116.093C27.4373 116.185 27.1708 116.221 26.894 116.221Z" fill="#FC2C38" stroke="#333333" stroke-width="0.697611" stroke-miterlimit="10"/>
<path d="M43.4435 28.9442H10.707V89.835H10.7122C10.7122 89.8913 10.707 89.9426 10.707 89.999C10.707 95.1245 18.0365 99.2812 27.0727 99.2812C36.1089 99.2812 43.4384 95.1245 43.4384 89.999C43.4384 89.9426 43.4332 89.8913 43.4332 89.835H43.4384V28.9442H43.4435Z" fill="#FC2C38" stroke="#333333" stroke-width="0.697611" stroke-miterlimit="10"/>
<path d="M30.0758 54.8973L45.0989 54.6794C46.6999 54.6562 47.9819 53.3366 47.9587 51.7356C47.9355 50.1346 46.6158 48.8526 45.0148 48.8758L29.9916 49.0937C28.3907 49.1169 27.1087 50.4365 27.1319 52.0375C27.1551 53.6385 28.4714 54.9205 30.0758 54.8973Z" fill="white" stroke="#333333" stroke-width="0.697611" stroke-miterlimit="10"/>
<path d="M42.5249 54.0334C43.8455 54.0142 44.9006 52.9282 44.8814 51.6076C44.8623 50.287 43.7762 49.2319 42.4556 49.2511C41.135 49.2702 40.08 50.3563 40.0991 51.6769C40.1183 52.9975 41.2043 54.0525 42.5249 54.0334Z" fill="#E5E8E8" stroke="#333333" stroke-width="0.697611" stroke-miterlimit="10"/>
<path d="M19.7698 48.3015L4.74505 48.3015C3.14388 48.3015 1.84294 49.6024 1.84294 51.2036C1.84294 52.8048 3.14388 54.1057 4.74505 54.1057L19.7698 54.1057C21.3709 54.1057 22.6719 52.8048 22.6719 51.2036C22.6719 49.6024 21.3744 48.3015 19.7698 48.3015Z" fill="white" stroke="#333333" stroke-width="0.697611" stroke-miterlimit="10"/>
<path d="M7.30978 48.9844C5.98905 48.9844 4.91838 50.0551 4.91838 51.3758C4.91838 52.6966 5.98905 53.7672 7.30978 53.7672C8.63051 53.7672 9.70117 52.6966 9.70117 51.3758C9.70117 50.0551 8.63051 48.9844 7.30978 48.9844Z" fill="#E5E8E8" stroke="#333333" stroke-width="0.697611" stroke-miterlimit="10"/>
<path d="M27.0727 38.063C36.1112 38.063 43.4384 33.9072 43.4384 28.7808C43.4384 23.6543 36.1112 19.4985 27.0727 19.4985C18.0342 19.4985 10.707 23.6543 10.707 28.7808C10.707 33.9072 18.0342 38.063 27.0727 38.063Z" fill="#FC2C38" stroke="#333333" stroke-width="0.697611" stroke-miterlimit="10"/>
<path d="M35.4481 9.67712H18.7031V28.0212H18.7082C18.7082 28.0469 18.7031 28.0776 18.7031 28.1032C18.7031 30.7224 22.4499 32.8494 27.073 32.8494C31.6962 32.8494 35.443 30.7224 35.443 28.1032C35.443 28.0776 35.4378 28.0469 35.4378 28.0212H35.443V9.67712H35.4481Z" fill="#E5E8E8" stroke="#333333" stroke-width="0.697611" stroke-miterlimit="10"/>
<path d="M27.073 14.3364C31.6956 14.3364 35.443 12.2114 35.443 9.59019C35.443 6.96894 31.6956 4.84399 27.073 4.84399C22.4505 4.84399 18.7031 6.96894 18.7031 9.59019C18.7031 12.2114 22.4505 14.3364 27.073 14.3364Z" fill="#E5E8E8" stroke="#333333" stroke-width="0.697611" stroke-miterlimit="10"/>
<path d="M32.6814 4.2345H21.4668V7.79671C21.4668 7.81721 21.4668 7.83259 21.4668 7.85309C21.4668 9.61113 23.9783 11.0309 27.0741 11.0309C30.1699 11.0309 32.6814 9.60601 32.6814 7.85309C32.6814 7.83259 32.6814 7.81721 32.6814 7.79671V4.2345V4.2345Z" fill="#E5E8E8" stroke="#333333" stroke-width="0.697611" stroke-miterlimit="10"/>
<path d="M27.0741 7.3556C30.1709 7.3556 32.6814 5.93285 32.6814 4.1778C32.6814 2.42275 30.1709 1 27.0741 1C23.9773 1 21.4668 2.42275 21.4668 4.1778C21.4668 5.93285 23.9773 7.3556 27.0741 7.3556Z" fill="#E5E8E8" stroke="#333333" stroke-width="0.697611" stroke-miterlimit="10"/>
<path d="M21.6096 5.17224H1V7.12505H21.6096V5.17224Z" fill="#E5E8E8" stroke="#333333" stroke-width="0.697611" stroke-miterlimit="10"/>
</svg>
