<svg width="104" height="174" viewBox="0 0 104 174" fill="none" xmlns="http://www.w3.org/2000/svg">
<path d="M10.0907 151.926C9.32133 148.915 9.73885 145.64 11.3341 142.166C18.3065 126.98 39.1203 126.023 40.0036 125.989C41.3285 125.937 42.4347 127.05 42.4694 128.476C42.5044 129.897 41.4617 131.093 40.1368 131.144C39.8622 131.155 21.3081 132.062 15.6408 144.417C14.3597 147.206 14.1889 149.571 15.1105 151.635C17.0539 155.977 23.5693 158.315 25.9184 158.85C27.1804 159.139 28.0007 160.455 27.7647 161.822L26.7707 167.6C26.5276 168.999 25.2744 169.936 23.9725 169.687C22.6705 169.439 21.8086 168.099 22.0518 166.7L22.6469 163.237C19.3177 162.096 13.2346 159.348 10.7908 153.918C10.4958 153.266 10.2606 152.602 10.0907 151.926Z" fill="#E5E8E8" stroke="#333333" stroke-miterlimit="10"/>
<path d="M70.0035 166.978C67.091 166.979 64.2701 165.691 61.5992 163.127C49.9285 151.928 54.8791 130.16 55.094 129.243C55.4169 127.859 56.7239 127.011 58.0099 127.35C59.2958 127.689 60.0739 129.083 59.7513 130.461C59.6862 130.748 55.3247 150.164 64.8183 159.27C66.9598 161.33 69.0305 162.123 71.1394 161.714C75.575 160.846 79.4909 154.723 80.6244 152.436C81.2339 151.204 82.644 150.706 83.8015 151.311L88.7033 153.861C89.8922 154.478 90.3824 156.017 89.7969 157.299C89.2113 158.581 87.7718 159.12 86.5829 158.503L83.6416 156.976C81.6897 160.118 77.5324 165.684 71.9817 166.782C71.3186 166.91 70.6593 166.974 70.0035 166.978Z" fill="#E5E8E8" stroke="#333333" stroke-miterlimit="10"/>
<path d="M9.57586 4.83984L8.69842 133.016L95.4054 132.921L96.1508 23.9683L74.1211 4.76799L9.57586 4.83984Z" fill="#E5E8E8" stroke="#333333" stroke-miterlimit="10"/>
<path d="M96.1508 23.9681L74.1211 4.76779L73.9891 23.9918L96.1508 23.9681Z" fill="#E5E8E8" stroke="#333333" stroke-miterlimit="10" stroke-linejoin="bevel"/>
<path d="M61.1152 52.4079L84.3296 52.4079C87.0666 52.4079 89.2871 54.7104 89.2871 57.5486C89.2871 60.3868 87.0666 62.6894 84.3296 62.6894L61.1152 62.6894C58.3781 62.6894 56.1576 60.3868 56.1576 57.5486C56.1517 54.7104 58.3722 52.4079 61.1152 52.4079Z" fill="white" stroke="#333333" stroke-miterlimit="10"/>
<path d="M80.7184 53.5503C78.5102 53.5503 76.72 55.3404 76.72 57.5486C76.72 59.7569 78.5102 61.547 80.7184 61.547C82.9267 61.547 84.7168 59.7569 84.7168 57.5486C84.7168 55.3404 82.9267 53.5503 80.7184 53.5503Z" fill="#FC2C38" stroke="#333333" stroke-miterlimit="10"/>
<path d="M21.1308 51.2655L44.3452 51.2655C47.0822 51.2655 49.3027 53.4401 49.3027 56.1206C49.3027 58.8012 47.0822 60.9758 44.3452 60.9758L21.1308 60.9758C18.3938 60.9758 16.1733 58.8012 16.1733 56.1206C16.1673 53.4401 18.3878 51.2655 21.1308 51.2655Z" fill="white" stroke="#333333" stroke-miterlimit="10"/>
<path d="M40.736 51.8367C38.5277 51.8367 36.7376 53.7547 36.7376 56.1206C36.7376 58.4866 38.5277 60.4046 40.736 60.4046C42.9442 60.4046 44.7344 58.4866 44.7344 56.1206C44.7344 53.7547 42.9442 51.8367 40.736 51.8367Z" fill="#FC2C38" stroke="#333333" stroke-miterlimit="10"/>
<path d="M61.2636 71.7046C61.2152 78.6766 55.9132 84.336 49.4163 84.3423C42.9194 84.3486 37.694 78.7012 37.7423 71.7293" stroke="#333333" stroke-miterlimit="10"/>
<path d="M33.2658 71.7357L42.2453 71.7297" stroke="#333333" stroke-miterlimit="10"/>
<path d="M56.787 71.7111L65.7614 71.6994" stroke="#333333" stroke-miterlimit="10"/>
</svg>
