<svg width="122" height="135" viewBox="0 0 122 135" fill="none" xmlns="http://www.w3.org/2000/svg">
<path d="M1.0731 105.678C0.721811 102.754 1.63713 99.7706 3.80916 96.792C13.2889 83.7896 34.9993 86.2634 35.9196 86.3772C37.3 86.5454 38.2796 87.7576 38.1065 89.0885C37.9333 90.4194 36.6716 91.3595 35.2912 91.1913C35.0092 91.1566 15.644 89.0044 7.93553 99.5825C6.19394 101.972 5.66454 104.139 6.31763 106.212C7.68814 110.566 14.0954 113.797 16.4455 114.678C17.7121 115.153 18.3652 116.509 17.9199 117.741L16.0299 122.955C15.5698 124.222 14.135 124.89 12.8189 124.45C11.5028 124.009 10.8151 122.624 11.2703 121.357L12.4033 118.23C9.12297 116.632 3.22534 113.09 1.4986 107.642C1.29079 106.989 1.15226 106.336 1.0731 105.678Z" fill="#E5E8E8" stroke="#333333" stroke-miterlimit="10"/>
<path d="M50.075 17.263C60.8065 14.3735 71.9783 20.4344 74.9816 30.7701C77.876 40.7397 72.1169 51.1001 62.0731 54.4151L57.5806 46.6472L52.0243 46.385C51.1981 46.3454 50.4955 46.9589 50.4559 47.7555C50.4164 48.5521 51.0497 49.225 51.8759 49.2645L55.7747 49.4476L56.7444 51.1249L56.4278 50.9022L52.3657 52.1985C51.5791 52.4509 51.1536 53.2672 51.4158 54.0193C51.678 54.7763 52.5241 55.1968 53.3058 54.9346L55.9033 54.1034L57.9715 55.553L53.761 56.6861L52.6428 60.3028C52.4053 61.0648 52.8605 61.8712 53.6521 62.0939C53.9341 62.173 54.2162 62.173 54.4784 62.0988C54.9583 61.9702 55.3591 61.614 55.5125 61.1192L56.1606 59.0263L61.0588 57.7102L61.7564 57.5222L63.5871 57.0324L63.5475 56.9631C74.7688 52.9852 81.1365 41.2691 77.8661 29.9884C74.4225 18.1189 61.5932 11.1625 49.2734 14.4824" fill="#E5E8E8"/>
<path d="M50.075 17.263C60.8065 14.3735 71.9783 20.4344 74.9816 30.7701C77.876 40.7397 72.1169 51.1001 62.0731 54.4151L57.5806 46.6472L52.0243 46.385C51.1981 46.3454 50.4955 46.9589 50.4559 47.7555C50.4164 48.5521 51.0497 49.225 51.8759 49.2645L55.7747 49.4476L56.7444 51.1249L56.4278 50.9022L52.3657 52.1985C51.5791 52.4509 51.1536 53.2672 51.4158 54.0193C51.678 54.7763 52.5241 55.1968 53.3058 54.9346L55.9033 54.1034L57.9715 55.553L53.761 56.6861L52.6428 60.3028C52.4053 61.0648 52.8605 61.8712 53.6521 62.0939C53.9341 62.173 54.2162 62.173 54.4784 62.0988C54.9583 61.9702 55.3591 61.614 55.5125 61.1192L56.1606 59.0263L61.0588 57.7102L61.7564 57.5222L63.5871 57.0324L63.5475 56.9631C74.7688 52.9852 81.1365 41.2691 77.8661 29.9884C74.4225 18.1189 61.5932 11.1625 49.2734 14.4824" stroke="#333333" stroke-miterlimit="10"/>
<path d="M64.7203 1.46013C64.7203 1.46013 64.4284 1 55.1614 1C29.6561 1 18.8652 11.6919 18.8652 18.4801C18.8652 27.8609 19.5381 43.2086 19.5381 43.2086C19.5381 43.2086 22.2346 39.4088 54.9388 39.4088C64.2602 39.4088 64.0425 39.8343 64.0425 39.8343L64.7203 1.46013Z" fill="#E5E8E8" stroke="#333333" stroke-miterlimit="10"/>
<path d="M97.7602 97.7568C97.7602 97.7568 64.4277 98.4594 55.1607 98.4594C29.6555 98.4594 23.2284 86.4217 20.8882 76.3284C17.5831 62.0692 18.8646 17.8865 18.8646 17.8865C18.8646 17.8865 22.2339 39.963 54.9381 39.963C64.2595 39.963 97.7553 39.3149 97.7553 39.3149V97.7568H97.7602Z" fill="#E5E8E8" stroke="#333333" stroke-miterlimit="10"/>
<path d="M18.8652 43.8568C18.8652 43.8568 22.2346 65.9334 54.9387 65.9334C64.2602 65.9334 97.756 65.2852 97.756 65.2852" stroke="#333333" stroke-miterlimit="10"/>
<path d="M18.8652 53.5988C18.8652 53.5988 22.2346 74.379 54.9387 74.379C64.2602 74.379 97.756 73.7309 97.756 73.7309" stroke="#333333" stroke-miterlimit="10"/>
<path d="M19.5381 65.2852C19.5381 65.2852 22.2346 82.8197 54.9387 82.8197C64.2601 82.8197 97.7559 82.1716 97.7559 82.1716" stroke="#333333" stroke-miterlimit="10"/>
<path d="M45.34 55.845H64.0818C65.9817 55.845 67.5204 54.3063 67.5204 52.4064C67.5204 50.5065 65.9817 48.9678 64.0818 48.9678H45.34C43.4401 48.9678 41.9014 50.5065 41.9014 52.4064C41.9014 54.3063 43.4401 55.845 45.34 55.845Z" fill="white" stroke="#333333" stroke-miterlimit="10"/>
<path d="M60.8012 55.0336C62.4243 55.0336 63.7401 53.7665 63.7401 52.2035C63.7401 50.6405 62.4243 49.3734 60.8012 49.3734C59.1781 49.3734 57.8623 50.6405 57.8623 52.2035C57.8623 53.7665 59.1781 55.0336 60.8012 55.0336Z" fill="#FC2C38" stroke="#333333" stroke-miterlimit="10"/>
<path d="M14.2882 49.3537H33.03C34.93 49.3537 36.4687 47.815 36.4687 45.9151C36.4687 44.0152 34.93 42.4764 33.03 42.4764H14.2882C12.3883 42.4764 10.8496 44.0152 10.8496 45.9151C10.8546 47.815 12.3933 49.3537 14.2882 49.3537Z" fill="white" stroke="#333333" stroke-miterlimit="10"/>
<path d="M29.7495 48.5422C31.3726 48.5422 32.6884 47.2752 32.6884 45.7122C32.6884 44.1491 31.3726 42.8821 29.7495 42.8821C28.1263 42.8821 26.8105 44.1491 26.8105 45.7122C26.8105 47.2752 28.1263 48.5422 29.7495 48.5422Z" fill="#FC2C38" stroke="#333333" stroke-miterlimit="10"/>
<path d="M91.8826 52.3272C102.614 49.4377 113.786 55.4986 116.789 65.8343C119.684 75.8039 113.924 86.1643 103.881 89.4793L99.3882 81.7114L93.832 81.4492C93.0057 81.4096 92.3031 82.0231 92.2635 82.8197C92.224 83.6163 92.8573 84.2892 93.6835 84.3288L97.5823 84.5118L98.552 86.1891L98.2354 85.9664L94.1734 87.2627C93.3867 87.5151 92.9612 88.3314 93.2234 89.0835C93.4856 89.8405 94.3317 90.261 95.1134 89.9988L97.7109 89.1676L99.7791 90.6173L95.5686 91.7503L94.4504 95.367C94.2129 96.129 94.6681 96.9354 95.4597 97.1581C95.7418 97.2372 96.0238 97.2372 96.286 97.163C96.7659 97.0344 97.1667 96.6782 97.3201 96.1834L97.9682 94.0905L102.866 92.7744L103.564 92.5864L105.395 92.0966L105.355 92.0273C116.576 88.0494 122.944 76.3333 119.674 65.0526C116.23 53.1831 103.401 46.2267 91.0811 49.5466" fill="#E5E8E8"/>
<path d="M91.8826 52.3272C102.614 49.4377 113.786 55.4986 116.789 65.8343C119.684 75.8039 113.924 86.1643 103.881 89.4793L99.3882 81.7114L93.832 81.4492C93.0057 81.4096 92.3031 82.0231 92.2635 82.8197C92.224 83.6163 92.8573 84.2892 93.6835 84.3288L97.5823 84.5118L98.552 86.1891L98.2354 85.9664L94.1734 87.2627C93.3867 87.5151 92.9612 88.3314 93.2234 89.0835C93.4856 89.8405 94.3317 90.261 95.1134 89.9988L97.7109 89.1676L99.7791 90.6173L95.5686 91.7503L94.4504 95.367C94.2129 96.129 94.6681 96.9354 95.4597 97.1581C95.7418 97.2372 96.0238 97.2372 96.286 97.163C96.7659 97.0344 97.1667 96.6782 97.3201 96.1834L97.9682 94.0905L102.866 92.7744L103.564 92.5864L105.395 92.0966L105.355 92.0273C116.576 88.0494 122.944 76.3333 119.674 65.0526C116.23 53.1831 103.401 46.2267 91.0811 49.5466" stroke="#333333" stroke-miterlimit="10"/>
<path d="M73.096 96.7574C72.903 96.9603 59.6779 110.749 64.0071 122.985C64.9818 125.751 66.4958 127.438 68.6134 128.15C73.0762 129.65 79.5626 126.572 81.6851 125.261C82.8281 124.553 84.3519 124.845 85.1238 125.919L88.3843 130.461C89.1759 131.564 88.889 133.073 87.746 133.835C86.6031 134.597 85.0298 134.32 84.2431 133.217L82.2888 130.491C79.0134 132.099 72.5666 134.602 66.9757 132.732C66.3078 132.509 65.6745 132.232 65.0807 131.906C62.4189 130.451 60.4596 127.982 59.2425 124.539C53.9237 109.503 68.7964 94.0708 69.4347 93.4177" fill="#E5E8E8"/>
<path d="M73.096 96.7574C72.903 96.9603 59.6779 110.749 64.0071 122.985C64.9818 125.751 66.4958 127.438 68.6134 128.15C73.0762 129.65 79.5626 126.572 81.6851 125.261C82.8281 124.553 84.3519 124.845 85.1238 125.919L88.3843 130.461C89.1759 131.564 88.889 133.073 87.746 133.835C86.6031 134.597 85.0298 134.32 84.2431 133.217L82.2888 130.491C79.0134 132.099 72.5666 134.602 66.9757 132.732C66.3078 132.509 65.6745 132.232 65.0807 131.906C62.4189 130.451 60.4596 127.982 59.2425 124.539C53.9237 109.503 68.7964 94.0708 69.4347 93.4177" stroke="#333333" stroke-miterlimit="10"/>
<path d="M35.5089 64.6221C32.6937 64.6221 30.205 65.9975 28.6613 68.1003C27.1127 65.9926 24.624 64.6221 21.8137 64.6221C17.1184 64.6221 11.9629 74.0573 11.9629 74.0573C11.9629 74.0573 13.3087 92.5418 28.6613 92.5418C45.3795 92.5418 45.3795 74.0573 45.3795 74.0573C45.3795 74.0573 40.2042 64.6221 35.5089 64.6221Z" fill="#FC2C38" stroke="#333333" stroke-miterlimit="10"/>
<path d="M49.397 79.4701L45.3745 74.0623C42.2822 77.0952 35.5039 80.9494 29.3391 80.9494C22.2985 80.9494 14.6791 77.8373 11.9431 74.0623L8.24219 78.7823" stroke="#333333" stroke-miterlimit="10"/>
</svg>
