<svg width="115" height="194" viewBox="0 0 115 194" fill="none" xmlns="http://www.w3.org/2000/svg">
<path d="M62.2482 188.667C66.2841 188.667 70.1959 187.009 73.9214 183.705C90.1833 169.301 83.5395 141.334 83.2476 140.152C82.813 138.376 81.0123 137.287 79.2303 137.721C77.4483 138.154 76.3554 139.948 76.7901 141.724C76.877 142.089 82.7323 167.036 69.5005 178.749C66.5139 181.397 63.639 182.424 60.7207 181.898C54.586 180.784 49.2275 172.926 47.6752 169.994C46.8432 168.416 44.8997 167.772 43.2853 168.552L36.4738 171.831C34.8222 172.629 34.1267 174.609 34.9277 176.255C35.7287 177.901 37.7156 178.588 39.3673 177.796L43.4529 175.828C46.1229 179.862 51.8353 187.009 59.5099 188.413C60.4289 188.587 61.3416 188.667 62.2482 188.667Z" fill="#E5E8E8" stroke="#333333" stroke-miterlimit="10"/>
<path d="M49.8936 191.748C53.6812 190.356 56.7796 187.454 59.1267 183.074C69.3905 163.955 53.4577 140.004 52.7747 138.995C51.7502 137.479 49.6825 137.077 48.1612 138.098C46.64 139.119 46.2364 141.179 47.2609 142.695C47.472 143.011 61.6103 164.4 53.2652 179.949C51.3776 183.464 49.0429 185.419 46.1184 185.926C39.9775 186.997 32.2222 181.465 29.751 179.244C28.4222 178.05 26.3732 178.118 25.1313 179.399L19.8784 184.825C18.6055 186.143 18.6427 188.24 19.9591 189.509C21.2816 190.777 23.3866 190.74 24.6595 189.428L27.8137 186.174C31.7193 189.038 39.5553 193.784 47.2423 192.454C48.1612 192.293 49.0429 192.058 49.8936 191.748Z" fill="#E5E8E8" stroke="#333333" stroke-miterlimit="10"/>
<path d="M55.9908 0.76416H0.729004V29.9683H55.9908V0.76416Z" fill="#FC2C38" stroke="#333333" stroke-miterlimit="10"/>
<path d="M48.0371 29.9684H8.68945V35.8093H48.0371V29.9684Z" fill="#FC2C38" stroke="#333333" stroke-miterlimit="10"/>
<path d="M55.9906 35.8091H0.72876V65.0133H55.9906V35.8091Z" fill="#FC2C38" stroke="#333333" stroke-miterlimit="10"/>
<path d="M48.0371 65.0137H8.68945V70.8545H48.0371V65.0137Z" fill="#FC2C38" stroke="#333333" stroke-miterlimit="10"/>
<path d="M55.9906 70.8543H0.72876V100.059H55.9906V70.8543Z" fill="#FC2C38" stroke="#333333" stroke-miterlimit="10"/>
<path d="M48.0371 100.065H8.68945V105.905H48.0371V100.065Z" fill="#FC2C38" stroke="#333333" stroke-miterlimit="10"/>
<path d="M55.9906 105.906H0.72876V135.11H55.9906V105.906Z" fill="#FC2C38" stroke="#333333" stroke-miterlimit="10"/>
<path d="M48.0371 135.109H8.68945V140.95H48.0371V135.109Z" fill="#FC2C38" stroke="#333333" stroke-miterlimit="10"/>
<path d="M16.8826 29.9687L113.665 29.9688L113.665 0.764578L16.8826 0.764578L16.8826 29.9687Z" fill="#E5E8E8" stroke="#333333" stroke-miterlimit="10"/>
<path d="M30.8212 35.8099L99.7308 35.8099L99.7308 29.969L30.8212 29.969L30.8212 35.8099Z" fill="#E5E8E8" stroke="#333333" stroke-miterlimit="10"/>
<path d="M16.8826 65.0146L113.665 65.0146L113.665 35.8104L16.8826 35.8104L16.8826 65.0146Z" fill="#E5E8E8" stroke="#333333" stroke-miterlimit="10"/>
<path d="M30.8212 70.8561L99.7308 70.8561L99.7308 65.0152L30.8212 65.0152L30.8212 70.8561Z" fill="#E5E8E8" stroke="#333333" stroke-miterlimit="10"/>
<path d="M16.8826 100.061L113.665 100.061L113.665 70.8563L16.8826 70.8563L16.8826 100.061Z" fill="#E5E8E8" stroke="#333333" stroke-miterlimit="10"/>
<path d="M30.8212 105.902L99.7308 105.902L99.7308 100.061L30.8212 100.061L30.8212 105.902Z" fill="#E5E8E8" stroke="#333333" stroke-miterlimit="10"/>
<path d="M16.8826 135.107L113.665 135.107L113.665 105.902L16.8826 105.902L16.8826 135.107Z" fill="#E5E8E8" stroke="#333333" stroke-miterlimit="10"/>
<path d="M30.8212 140.947L99.7308 140.947L99.7308 135.107L30.8212 135.107L30.8212 140.947Z" fill="#E5E8E8" stroke="#333333" stroke-miterlimit="10"/>
<path d="M77.5292 17.8724H101.9C104.502 17.8724 106.607 15.7749 106.607 13.1824C106.607 10.5899 104.502 8.49237 101.9 8.49237H77.5292C74.9276 8.49237 72.8226 10.5899 72.8226 13.1824C72.8164 15.7749 74.9276 17.8724 77.5292 17.8724Z" fill="white" stroke="#333333" stroke-miterlimit="10"/>
<path d="M97.7379 16.7649C99.8778 16.7649 101.612 15.0363 101.612 12.904C101.612 10.7717 99.8778 9.04309 97.7379 9.04309C95.5981 9.04309 93.8634 10.7717 93.8634 12.904C93.8634 15.0363 95.5981 16.7649 97.7379 16.7649Z" fill="#FC2C38" stroke="#333333" stroke-miterlimit="10"/>
<path d="M27.6819 17.8727H52.053C54.6546 17.8727 56.7596 15.7752 56.7596 13.1827C56.7596 10.5902 54.6546 8.49268 52.053 8.49268H27.6819C25.0803 8.49268 22.9753 10.5902 22.9753 13.1827C22.9753 15.7752 25.0803 17.8727 27.6819 17.8727Z" fill="white" stroke="#333333" stroke-miterlimit="10"/>
<path d="M47.8997 16.7648C50.0395 16.7648 51.7742 15.0362 51.7742 12.9039C51.7742 10.7716 50.0395 9.04303 47.8997 9.04303C45.7598 9.04303 44.0251 10.7716 44.0251 12.9039C44.0251 15.0362 45.7598 16.7648 47.8997 16.7648Z" fill="#FC2C38" stroke="#333333" stroke-miterlimit="10"/>
<path d="M58.5933 19.9697C58.5933 23.3851 61.3688 26.1508 64.7962 26.1508C68.2237 26.1508 70.9992 23.3851 70.9992 19.9697" stroke="#333333" stroke-miterlimit="10"/>
<path d="M73.3634 19.9697H68.6257" stroke="#333333" stroke-miterlimit="10"/>
<path d="M60.9521 19.9696H56.2207" stroke="#333333" stroke-miterlimit="10"/>
<path d="M102.173 56.5058C104.621 56.5058 106.606 54.528 106.606 52.0881C106.606 49.6482 104.621 47.6703 102.173 47.6703C99.7245 47.6703 97.7396 49.6482 97.7396 52.0881C97.7396 54.528 99.7245 56.5058 102.173 56.5058Z" fill="white" stroke="#333333" stroke-miterlimit="10"/>
<path d="M97.739 52.0879H22.9741" stroke="#333333" stroke-miterlimit="10"/>
<path d="M102.173 89.6206C104.621 89.6206 106.606 87.6427 106.606 85.2028C106.606 82.763 104.621 80.7851 102.173 80.7851C99.7245 80.7851 97.7396 82.763 97.7396 85.2028C97.7396 87.6427 99.7245 89.6206 102.173 89.6206Z" fill="white" stroke="#333333" stroke-miterlimit="10"/>
<path d="M97.739 85.2028H22.9741" stroke="#333333" stroke-miterlimit="10"/>
<path d="M102.173 124.944C104.621 124.944 106.606 122.966 106.606 120.526C106.606 118.086 104.621 116.109 102.173 116.109C99.7245 116.109 97.7396 118.086 97.7396 120.526C97.7396 122.966 99.7245 124.944 102.173 124.944Z" fill="white" stroke="#333333" stroke-miterlimit="10"/>
<path d="M97.739 120.526H22.9741" stroke="#333333" stroke-miterlimit="10"/>
</svg>
