<svg width="222" height="152" viewBox="0 0 222 152" fill="none" xmlns="http://www.w3.org/2000/svg">
<path d="M51.3653 60.6168C44.5356 74.3809 34.8008 89.1088 31.2044 89.1088C26.7351 89.1088 19.1581 79.4369 15.436 73.3404L15.1218 72.8236L13.6413 71.9507L15.7433 63.1168C16.0575 61.79 15.3103 60.4352 14.0743 60.093C12.8312 59.7578 11.5742 60.5539 11.26 61.8877L10.5198 64.9883L10.841 61.5386C10.9667 60.1768 10.0449 58.9547 8.77392 58.8221C7.48899 58.6824 6.37166 59.681 6.24596 61.0497L5.83394 65.4353L5.61047 63.2216C5.4708 61.8598 4.33252 60.8752 3.05457 61.0288C1.7836 61.1824 0.868786 62.4115 1.01544 63.7732L2.1188 74.4717L12.098 76.9089C13.0407 78.3754 15.1637 81.5598 17.8523 84.8001C23.0269 91.0432 27.3985 94.0809 31.2044 94.0809C39.354 94.0809 51.8192 70.2608 55.4436 62.9562" fill="#FC2C38"/>
<path d="M51.3653 60.6168C44.5356 74.3809 34.8008 89.1088 31.2044 89.1088C26.7351 89.1088 19.1581 79.4369 15.436 73.3404L15.1218 72.8236L13.6413 71.9507L15.7433 63.1168C16.0575 61.79 15.3103 60.4352 14.0743 60.093C12.8312 59.7578 11.5742 60.5539 11.26 61.8877L10.5198 64.9883L10.841 61.5386C10.9667 60.1768 10.0449 58.9547 8.77392 58.8221C7.48899 58.6824 6.37166 59.681 6.24596 61.0497L5.83394 65.4353L5.61047 63.2216C5.4708 61.8598 4.33252 60.8752 3.05457 61.0288C1.7836 61.1824 0.868786 62.4115 1.01544 63.7732L2.1188 74.4717L12.098 76.9089C13.0407 78.3754 15.1637 81.5598 17.8523 84.8001C23.0269 91.0432 27.3985 94.0809 31.2044 94.0809C39.354 94.0809 51.8192 70.2608 55.4436 62.9562" stroke="#333333" stroke-miterlimit="10" stroke-linecap="square" stroke-linejoin="round"/>
<path d="M139.194 122.447H104.047V141.274H139.194V122.447Z" fill="#333333" stroke="#333333" stroke-miterlimit="10"/>
<path d="M139.19 141.281H148.674V122.454H139.19V141.281Z" fill="#FC2C38" stroke="#333333" stroke-miterlimit="10"/>
<path d="M154.46 141.281H88.7891V151.219H154.46V141.281Z" fill="#E5E8E8" stroke="#333333" stroke-miterlimit="10"/>
<path d="M154.455 151.212H162.549V141.274H154.455V151.212Z" fill="#FC2C38" stroke="#333333" stroke-miterlimit="10"/>
<path d="M191.221 1H51.6309V103.571H191.221V1Z" fill="#333333" stroke="#333333" stroke-miterlimit="10"/>
<path d="M191.219 122.399H198.621L198.621 1.00073H191.219L191.219 122.399Z" fill="#FC2C38" stroke="#333333" stroke-miterlimit="10"/>
<path d="M191.221 103.571H51.6309V122.398H191.221V103.571Z" fill="#E5E8E8" stroke="#333333" stroke-miterlimit="10"/>
<path d="M185.11 7.711H57.7344V96.8533H185.11V7.711Z" fill="#FC2C38" stroke="#333333" stroke-miterlimit="10"/>
<path d="M121.423 118.104C124.126 118.104 126.318 115.793 126.318 112.943C126.318 110.093 124.126 107.782 121.423 107.782C118.719 107.782 116.527 110.093 116.527 112.943C116.527 115.793 118.719 118.104 121.423 118.104Z" fill="#FC2C38" stroke="#333333" stroke-miterlimit="10"/>
<path d="M104.886 45.8191H77.5811C74.3618 45.8191 71.75 43.2073 71.75 39.988C71.75 36.7687 74.3618 34.1569 77.5811 34.1569H104.886C108.105 34.1569 110.717 36.7687 110.717 39.988C110.717 43.2073 108.105 45.8191 104.886 45.8191Z" fill="white" stroke="#333333" stroke-miterlimit="10"/>
<path d="M81.9674 44.4434C84.4357 44.4434 86.4367 42.2923 86.4367 39.6388C86.4367 36.9854 84.4357 34.8343 81.9674 34.8343C79.499 34.8343 77.498 36.9854 77.498 39.6388C77.498 42.2923 79.499 44.4434 81.9674 44.4434Z" fill="#E5E8E8" stroke="#333333" stroke-miterlimit="10"/>
<path d="M162.386 45.8191H135.081C131.862 45.8191 129.25 43.2073 129.25 39.988C129.25 36.7687 131.862 34.1569 135.081 34.1569H162.386C165.605 34.1569 168.217 36.7687 168.217 39.988C168.224 43.2073 165.612 45.8191 162.386 45.8191Z" fill="white" stroke="#333333" stroke-miterlimit="10"/>
<path d="M139.467 44.4434C141.936 44.4434 143.937 42.2923 143.937 39.6388C143.937 36.9854 141.936 34.8343 139.467 34.8343C136.999 34.8343 134.998 36.9854 134.998 39.6388C134.998 42.2923 136.999 44.4434 139.467 44.4434Z" fill="#E5E8E8" stroke="#333333" stroke-miterlimit="10"/>
<path d="M97.2871 56.0775C97.2871 70.2677 107.993 81.7692 121.198 81.7692C134.404 81.7692 145.109 70.2677 145.109 56.0775" stroke="#333333" stroke-miterlimit="10"/>
<path d="M154.221 56.0775H135.967" stroke="#333333" stroke-miterlimit="10"/>
<path d="M106.393 56.0776H88.1387" stroke="#333333" stroke-miterlimit="10"/>
<path d="M195.627 48.368C206.27 58.9826 217.045 72.8515 216.123 76.5806C214.978 81.2246 204.342 86.6227 197.904 88.9342L197.359 89.1297L196.193 90.4426L188.777 86.0012C187.659 85.3308 186.256 85.7637 185.634 86.9579C185.013 88.159 185.411 89.6674 186.528 90.3378L189.133 91.8951L186.109 90.68C184.915 90.1981 183.581 90.8476 183.134 92.1395C182.68 93.4384 183.295 94.856 184.489 95.3379L188.33 96.8812L186.284 96.553C185.02 96.3505 183.846 97.2792 183.658 98.648C183.469 100.003 184.342 101.267 185.606 101.469L195.516 103.054L200.257 93.3057C201.814 92.7052 205.222 91.3085 208.833 89.3462C215.774 85.5612 219.622 81.8042 220.593 77.8446C222.674 69.3738 204.419 50.3512 198.77 44.7227" fill="#FC2C38"/>
<path d="M195.627 48.368C206.27 58.9826 217.045 72.8515 216.123 76.5806C214.978 81.2246 204.342 86.6227 197.904 88.9342L197.359 89.1297L196.193 90.4426L188.777 86.0012C187.659 85.3308 186.256 85.7637 185.634 86.9579C185.013 88.159 185.411 89.6674 186.528 90.3378L189.133 91.8951L186.109 90.68C184.915 90.1981 183.581 90.8476 183.134 92.1395C182.68 93.4384 183.295 94.856 184.489 95.3379L188.33 96.8812L186.284 96.553C185.02 96.3505 183.846 97.2792 183.658 98.648C183.469 100.003 184.342 101.267 185.606 101.469L195.516 103.054L200.257 93.3057C201.814 92.7052 205.222 91.3085 208.833 89.3462C215.774 85.5612 219.622 81.8042 220.593 77.8446C222.674 69.3738 204.419 50.3512 198.77 44.7227" stroke="#333333" stroke-miterlimit="10" stroke-linecap="square" stroke-linejoin="round"/>
</svg>
