<svg width="212" height="111" viewBox="0 0 212 111" fill="none" xmlns="http://www.w3.org/2000/svg">
<path d="M111.766 105.802C109.544 106.405 106.52 105.625 105.154 105.198C104.027 104.849 103.344 103.595 103.626 102.403C103.907 101.212 105.049 100.53 106.176 100.884C107.662 101.342 109.451 101.602 110.295 101.508C110.379 97.5379 109.935 77.7324 109.591 64.5461C109.56 63.3024 110.473 62.3137 111.635 62.3293C112.798 62.3449 113.763 63.3648 113.794 64.6085C113.888 68.2199 114.696 99.9733 114.456 102.695C114.363 103.741 113.862 104.641 113.043 105.224C112.668 105.489 112.235 105.677 111.766 105.802Z" fill="#E5E8E8" stroke="#333333" stroke-miterlimit="10"/>
<path d="M84.3951 105.802C86.6165 106.405 89.6409 105.625 91.0072 105.198C92.1335 104.849 92.8166 103.595 92.535 102.403C92.2534 101.212 91.1114 100.53 89.9851 100.884C88.499 101.342 86.7104 101.602 85.8656 101.508C85.7822 97.5379 86.2254 77.7324 86.5696 64.5461C86.6009 63.3024 85.6883 62.3137 84.5255 62.3293C83.3627 62.3449 82.398 63.3648 82.3667 64.6085C82.2728 68.2199 81.4646 99.9733 81.7044 102.695C81.7983 103.741 82.2989 104.641 83.1176 105.224C83.493 105.489 83.9258 105.677 84.3951 105.802Z" fill="#E5E8E8" stroke="#333333" stroke-miterlimit="10"/>
<path d="M203.181 1.49207H9.2002V71.9146H203.181V1.49207Z" fill="#E5E8E8" stroke="#333333" stroke-miterlimit="10"/>
<path d="M203.178 71.9163H211V1.49373H203.178V71.9163Z" fill="#FC2C38" stroke="#333333" stroke-miterlimit="10"/>
<path d="M30.0586 6.86755H14.415V22.4788H30.0586V6.86755Z" fill="#E5E8E8" stroke="#333333" stroke-miterlimit="10"/>
<path d="M52.6533 6.86755H37.0098V22.4788H52.6533V6.86755Z" fill="#E5E8E8" stroke="#333333" stroke-miterlimit="10"/>
<path d="M75.2471 6.86755H59.6035V22.4788H75.2471V6.86755Z" fill="#E5E8E8" stroke="#333333" stroke-miterlimit="10"/>
<path d="M97.8477 6.86755H82.2041V22.4788H97.8477V6.86755Z" fill="white" stroke="#333333" stroke-miterlimit="10"/>
<path d="M120.442 6.86755H104.799V22.4788H120.442V6.86755Z" fill="white" stroke="#333333" stroke-miterlimit="10"/>
<path d="M143.037 6.86755H127.394V22.4788H143.037V6.86755Z" fill="#E5E8E8" stroke="#333333" stroke-miterlimit="10"/>
<path d="M173.454 22.4824L196.398 22.4824V6.87113L173.454 6.87113V22.4824Z" fill="#E5E8E8" stroke="#333333" stroke-miterlimit="10"/>
<path d="M165.636 6.86755H149.992V22.4788H165.636V6.86755Z" fill="#E5E8E8" stroke="#333333" stroke-miterlimit="10"/>
<path d="M196.402 29.7642H180.759V45.3755H196.402V29.7642Z" fill="#E5E8E8" stroke="#333333" stroke-miterlimit="10"/>
<path d="M157.811 67.755H173.455V29.7675H157.811V67.755Z" fill="#E5E8E8" stroke="#333333" stroke-miterlimit="10"/>
<path d="M151.035 67.755V52.1437L44.6588 52.1437V67.755L151.035 67.755Z" fill="#E5E8E8" stroke="#333333" stroke-miterlimit="10"/>
<path d="M135.219 45.3789H150.862V29.7676H135.219V45.3789Z" fill="#E5E8E8" stroke="#333333" stroke-miterlimit="10"/>
<path d="M181.276 67.755H196.92V52.1437H181.276V67.755Z" fill="#E5E8E8" stroke="#333333" stroke-miterlimit="10"/>
<path d="M14.4116 67.755H37.877V52.1437H14.4116L14.4116 67.755Z" fill="#E5E8E8" stroke="#333333" stroke-miterlimit="10"/>
<path d="M112.62 45.3789H128.264V29.7676H112.62V45.3789Z" fill="#E5E8E8" stroke="#333333" stroke-miterlimit="10"/>
<path d="M90.0234 45.3789H105.667V29.7676H90.0234V45.3789Z" fill="#E5E8E8" stroke="#333333" stroke-miterlimit="10"/>
<path d="M67.4297 45.3789H83.0732V29.7676H67.4297V45.3789Z" fill="#E5E8E8" stroke="#333333" stroke-miterlimit="10"/>
<path d="M44.832 45.3789H60.4756V29.7676H44.832V45.3789Z" fill="#E5E8E8" stroke="#333333" stroke-miterlimit="10"/>
<path d="M14.4116 45.3789H37.877V29.7676L14.4116 29.7676L14.4116 45.3789Z" fill="#E5E8E8" stroke="#333333" stroke-miterlimit="10"/>
<path d="M30.0584 6.86768H26.9297V22.479H30.0584V6.86768Z" fill="#FC2C38" stroke="#333333" stroke-miterlimit="10"/>
<path d="M52.4813 6.86743H49.3525V22.4787H52.4813V6.86743Z" fill="#FC2C38" stroke="#333333" stroke-miterlimit="10"/>
<path d="M75.4246 6.86743H72.2959V22.4787H75.4246V6.86743Z" fill="#FC2C38" stroke="#333333" stroke-miterlimit="10"/>
<path d="M97.8475 6.86743H94.7188V22.4787H97.8475V6.86743Z" fill="#FC2C38" stroke="#333333" stroke-miterlimit="10"/>
<path d="M120.269 6.86743H117.141V22.4787H120.269V6.86743Z" fill="#FC2C38" stroke="#333333" stroke-miterlimit="10"/>
<path d="M143.214 6.86743H140.085V22.4787H143.214V6.86743Z" fill="#FC2C38" stroke="#333333" stroke-miterlimit="10"/>
<path d="M165.637 6.86743H162.508V22.4787H165.637V6.86743Z" fill="#FC2C38" stroke="#333333" stroke-miterlimit="10"/>
<path d="M37.8807 29.7642H34.752V45.3755H37.8807V29.7642Z" fill="#FC2C38" stroke="#333333" stroke-miterlimit="10"/>
<path d="M60.3035 29.764H57.1748V45.3753H60.3035V29.764Z" fill="#FC2C38" stroke="#333333" stroke-miterlimit="10"/>
<path d="M83.2479 29.764H80.1191V45.3753H83.2479V29.764Z" fill="#FC2C38" stroke="#333333" stroke-miterlimit="10"/>
<path d="M105.67 29.764H102.541V45.3753H105.67V29.764Z" fill="#FC2C38" stroke="#333333" stroke-miterlimit="10"/>
<path d="M128.093 29.764H124.964V45.3753H128.093V29.764Z" fill="#FC2C38" stroke="#333333" stroke-miterlimit="10"/>
<path d="M151.036 29.764H147.907V45.3753H151.036V29.764Z" fill="#FC2C38" stroke="#333333" stroke-miterlimit="10"/>
<path d="M173.459 29.764H170.33V67.2311H173.459V29.764Z" fill="#FC2C38" stroke="#333333" stroke-miterlimit="10"/>
<path d="M196.402 6.86755H193.273V22.4788H196.402V6.86755Z" fill="#FC2C38" stroke="#333333" stroke-miterlimit="10"/>
<path d="M196.402 29.7642H193.273V45.3755H196.402V29.7642Z" fill="#FC2C38" stroke="#333333" stroke-miterlimit="10"/>
<path d="M196.402 52.1403H193.273V67.7515H196.402V52.1403Z" fill="#FC2C38" stroke="#333333" stroke-miterlimit="10"/>
<path d="M151.036 52.1403H147.907V67.7515H151.036V52.1403Z" fill="#FC2C38" stroke="#333333" stroke-miterlimit="10"/>
<path d="M37.8807 52.1403H34.752V67.7515H37.8807V52.1403Z" fill="#FC2C38" stroke="#333333" stroke-miterlimit="10"/>
<path d="M87.6805 18.3158C89.5524 18.3158 91.0699 16.8014 91.0699 14.9334C91.0699 13.0653 89.5524 11.5509 87.6805 11.5509C85.8085 11.5509 84.291 13.0653 84.291 14.9334C84.291 16.8014 85.8085 18.3158 87.6805 18.3158Z" fill="#75787B" stroke="#333333" stroke-miterlimit="10"/>
<path d="M111.666 18.3158C113.538 18.3158 115.055 16.8014 115.055 14.9334C115.055 13.0653 113.538 11.5509 111.666 11.5509C109.794 11.5509 108.276 13.0653 108.276 14.9334C108.276 16.8014 109.794 18.3158 111.666 18.3158Z" fill="#75787B" stroke="#333333" stroke-miterlimit="10"/>
<path d="M10.6663 23.7798C10.3221 24.5447 2.19789 42.7371 1.13413 61.7568C0.0703665 80.7922 5.67598 97.5223 5.91585 98.2248L6.04621 98.5943L6.30694 98.8805C6.75018 99.3592 7.19341 100.083 7.25599 100.41C6.69803 101.654 5.38397 103.267 4.76866 103.465C3.96562 102.903 2.85492 103.075 2.26047 103.866C1.65558 104.672 1.81723 105.812 2.62548 106.416C3.25123 106.884 3.97083 107.123 4.71651 107.123C5.02938 107.123 5.34747 107.082 5.66555 106.993C7.31856 106.546 8.72127 104.953 9.63381 103.569C9.68595 103.965 9.71724 104.423 9.71724 104.953C9.71724 106.27 8.41361 106.842 8.28846 106.894C7.34463 107.253 6.87532 108.305 7.22991 109.246C7.50628 109.975 8.19981 110.422 8.93506 110.422C9.14886 110.422 9.36787 110.386 9.58166 110.303C10.9896 109.772 13.3674 108.044 13.3674 104.958C13.3674 104.011 13.284 103.205 13.1536 102.492C13.2944 102.653 13.4143 102.83 13.4978 103.033C14.3321 105.115 13.9149 107.758 13.9149 107.779C13.7481 108.773 14.4207 109.71 15.4167 109.876C15.5158 109.892 15.6201 109.902 15.7192 109.902C16.5952 109.902 17.367 109.272 17.5182 108.377C17.5442 108.232 18.1074 104.719 16.8924 101.675C16.3293 100.275 14.7232 97.9282 10.2439 97.9282C10.2022 97.9282 10.1657 97.9386 10.124 97.9386C9.82675 97.4286 9.50345 97.0019 9.26358 96.7157C8.48661 94.27 3.83526 78.8252 4.77908 61.9546C5.80113 43.6269 13.9149 25.4502 13.9932 25.2681" fill="#E5E8E8"/>
<path d="M10.6663 23.7798C10.3221 24.5447 2.19789 42.7371 1.13413 61.7568C0.0703665 80.7922 5.67598 97.5223 5.91585 98.2248L6.04621 98.5943L6.30694 98.8805C6.75018 99.3592 7.19341 100.083 7.25599 100.41C6.69803 101.654 5.38397 103.267 4.76866 103.465C3.96562 102.903 2.85492 103.075 2.26047 103.866C1.65558 104.672 1.81723 105.812 2.62548 106.416C3.25123 106.884 3.97083 107.123 4.71651 107.123C5.02938 107.123 5.34747 107.082 5.66555 106.993C7.31856 106.546 8.72127 104.953 9.63381 103.569C9.68595 103.965 9.71724 104.423 9.71724 104.953C9.71724 106.27 8.41361 106.842 8.28846 106.894C7.34463 107.253 6.87532 108.305 7.22991 109.246C7.50628 109.975 8.19981 110.422 8.93506 110.422C9.14886 110.422 9.36787 110.386 9.58166 110.303C10.9896 109.772 13.3674 108.044 13.3674 104.958C13.3674 104.011 13.284 103.205 13.1536 102.492C13.2944 102.653 13.4143 102.83 13.4978 103.033C14.3321 105.115 13.9149 107.758 13.9149 107.779C13.7481 108.773 14.4207 109.71 15.4167 109.876C15.5158 109.892 15.6201 109.902 15.7192 109.902C16.5952 109.902 17.367 109.272 17.5182 108.377C17.5442 108.232 18.1074 104.719 16.8924 101.675C16.3293 100.275 14.7232 97.9282 10.2439 97.9282C10.2022 97.9282 10.1657 97.9386 10.124 97.9386C9.82675 97.4286 9.50345 97.0019 9.26358 96.7157C8.48661 94.27 3.83526 78.8252 4.77908 61.9546C5.80113 43.6269 13.9149 25.4502 13.9932 25.2681" stroke="#333333" stroke-miterlimit="10"/>
<path d="M200.944 23.7798C201.288 24.5447 209.413 42.7371 210.476 61.7568C211.54 80.7922 205.934 97.5223 205.695 98.2248L205.564 98.5943L205.304 98.8805C204.86 99.3592 204.417 100.083 204.354 100.41C204.912 101.654 206.226 103.267 206.842 103.465C207.645 102.903 208.756 103.075 209.35 103.866C209.955 104.672 209.793 105.812 208.985 106.416C208.359 106.884 207.64 107.123 206.894 107.123C206.581 107.123 206.263 107.082 205.945 106.993C204.292 106.546 202.889 104.953 201.977 103.569C201.925 103.965 201.893 104.423 201.893 104.953C201.893 106.27 203.197 106.842 203.322 106.894C204.266 107.253 204.735 108.305 204.381 109.246C204.104 109.975 203.411 110.422 202.675 110.422C202.462 110.422 202.243 110.386 202.029 110.303C200.621 109.772 198.243 108.044 198.243 104.958C198.243 104.011 198.326 103.205 198.457 102.492C198.316 102.653 198.196 102.83 198.113 103.033C197.278 105.115 197.696 107.758 197.696 107.779C197.862 108.773 197.19 109.71 196.194 109.876C196.095 109.892 195.99 109.902 195.891 109.902C195.015 109.902 194.243 109.272 194.092 108.377C194.066 108.232 193.503 104.719 194.718 101.675C195.281 100.275 196.887 97.9282 201.367 97.9282C201.408 97.9282 201.445 97.9386 201.486 97.9386C201.784 97.4286 202.107 97.0019 202.347 96.7157C203.124 94.27 207.775 78.8252 206.831 61.9546C205.809 43.6269 197.696 25.4502 197.617 25.2681" fill="#E5E8E8"/>
<path d="M200.944 23.7798C201.288 24.5447 209.413 42.7371 210.476 61.7568C211.54 80.7922 205.934 97.5223 205.695 98.2248L205.564 98.5943L205.304 98.8805C204.86 99.3592 204.417 100.083 204.354 100.41C204.912 101.654 206.226 103.267 206.842 103.465C207.645 102.903 208.756 103.075 209.35 103.866C209.955 104.672 209.793 105.812 208.985 106.416C208.359 106.884 207.64 107.123 206.894 107.123C206.581 107.123 206.263 107.082 205.945 106.993C204.292 106.546 202.889 104.953 201.977 103.569C201.925 103.965 201.893 104.423 201.893 104.953C201.893 106.27 203.197 106.842 203.322 106.894C204.266 107.253 204.735 108.305 204.381 109.246C204.104 109.975 203.411 110.422 202.675 110.422C202.462 110.422 202.243 110.386 202.029 110.303C200.621 109.772 198.243 108.044 198.243 104.958C198.243 104.011 198.326 103.205 198.457 102.492C198.316 102.653 198.196 102.83 198.113 103.033C197.278 105.115 197.696 107.758 197.696 107.779C197.862 108.773 197.19 109.71 196.194 109.876C196.095 109.892 195.99 109.902 195.891 109.902C195.015 109.902 194.243 109.272 194.092 108.377C194.066 108.232 193.503 104.719 194.718 101.675C195.281 100.275 196.887 97.9282 201.367 97.9282C201.408 97.9282 201.445 97.9386 201.486 97.9386C201.784 97.4286 202.107 97.0019 202.347 96.7157C203.124 94.27 207.775 78.8252 206.831 61.9546C205.809 43.6269 197.696 25.4502 197.617 25.2681" stroke="#333333" stroke-miterlimit="10"/>
</svg>
