<svg width="266" height="52" viewBox="0 0 266 52" fill="none" xmlns="http://www.w3.org/2000/svg">
<g clip-path="url(#clip0)">
<path d="M51.1132 25.5566C51.1132 34.321 47.0134 38.47 41.8579 38.47C38.8382 38.47 36.2359 36.8988 34.7383 34.5665C32.4061 36.9479 29.1655 38.4454 25.5566 38.4454C18.4371 38.4454 12.6924 32.6761 12.6924 25.5812C12.6924 18.4617 18.4616 12.7169 25.5566 12.7169C32.6761 12.7169 38.4209 18.4862 38.4209 25.5812V29.7547C38.4209 31.866 39.8939 33.3635 41.8333 33.3635C44.1165 33.3635 46.0068 31.4241 46.0068 25.5812C46.0068 14.2881 36.8251 5.10641 25.5321 5.10641C14.239 5.10641 5.05731 14.2881 5.05731 25.5812C5.05731 36.8742 14.239 46.0559 25.5321 46.0559C32.0624 46.0559 36.555 42.8153 36.555 42.8153L39.9184 46.6942C39.9184 46.6942 34.1491 51.1378 25.5321 51.1378C11.4649 51.1133 0 39.6238 0 25.5566C0 11.4894 11.4649 0 25.5566 0C39.6238 0 51.1132 11.4649 51.1132 25.5566ZM25.5566 33.339C29.8283 33.339 33.339 29.8283 33.339 25.5566C33.339 21.2358 29.8283 17.7743 25.5566 17.7743C21.2358 17.7743 17.7742 21.2358 17.7742 25.5566C17.7742 29.8283 21.2358 33.339 25.5566 33.339Z" fill="#FC2C38"/>
<path d="M85.7047 37.4388H80.9911V18.9772H72.4232L72.1531 29.1409C72.0304 34.5419 69.6245 37.6352 64.4198 37.6352H62.8486V32.9216C66.0892 32.9216 67.3904 32.1606 67.4886 28.3799L67.8568 14.4845H85.7293V37.4388H85.7047Z" fill="black"/>
<path d="M113.544 28.2573H94.7385C95.6714 31.326 98.4211 33.4373 102.251 33.4373C105.32 33.4373 107.652 32.038 109.272 30.344L112.365 33.4373C109.665 36.3588 105.884 38.0282 101.981 38.0282C95.1068 38.0282 89.7549 32.7254 89.7549 25.9741C89.7549 19.272 95.0577 13.92 101.711 13.92C108.413 13.92 113.667 19.2229 113.667 26.0723C113.691 26.6861 113.642 27.398 113.544 28.2573ZM94.714 23.9365H108.978C108.217 20.5731 105.369 18.4127 101.858 18.4127C98.3474 18.3882 95.475 20.5486 94.714 23.9365Z" fill="black"/>
<path d="M127.881 23.6172L132.816 14.4845H138.045L131.883 25.7285L138.954 37.4143H133.43L127.808 28.0116H122.26V37.4143H117.546V14.4845H122.26V23.6172H127.881Z" fill="black"/>
<path d="M152.677 18.9772V37.4143H147.964V18.9772H139.862V14.4845H160.779V18.9772H152.677Z" fill="black"/>
<path d="M173.741 38.0036C166.916 38.0036 161.466 32.7008 161.466 25.9495C161.466 19.1983 166.916 13.8955 173.741 13.8955C180.59 13.8955 186.016 19.1983 186.016 25.9495C186.016 32.7008 180.59 38.0036 173.741 38.0036ZM173.741 33.4128C177.963 33.4128 181.081 30.2704 181.081 25.9495C181.081 21.6287 177.988 18.4863 173.741 18.4863C169.518 18.4863 166.4 21.6287 166.4 25.9495C166.4 30.2704 169.518 33.4128 173.741 33.4128Z" fill="black"/>
<path d="M214.421 25.9497C214.421 32.7991 209.241 38.0037 202.539 38.0037C199.396 38.0037 196.745 36.8253 194.805 34.8859V45.5161H190.092V14.4848H194.805V17.0134C196.745 15.074 199.396 13.9201 202.539 13.9201C209.241 13.8956 214.421 19.1247 214.421 25.9497ZM194.756 25.9497C194.756 30.2705 197.825 33.4129 202.121 33.4129C206.344 33.4129 209.462 30.3196 209.462 25.9497C209.462 21.5798 206.368 18.4864 202.121 18.4864C197.825 18.4864 194.756 21.6289 194.756 25.9497Z" fill="black"/>
<path d="M218.496 37.4388V14.4845H223.21V29.681L235.632 14.4845H239.536V37.4143H234.822V22.4142L222.498 37.4388H218.496Z" fill="black"/>
<path d="M244.961 37.4389V14.4846H249.675V29.6811L262.097 14.4846H266V37.4144H261.287V22.4143L248.963 37.4389H244.961ZM255.468 7.56148C258.439 7.56148 259.838 5.03282 259.961 4.76277L263.202 6.87408C262.981 7.31598 260.869 11.4158 255.468 11.4158C250.067 11.4158 247.956 7.31598 247.735 6.87408L250.976 4.76277C251.123 5.03282 252.522 7.56148 255.468 7.56148Z" fill="black"/>
</g>
<defs>
<clipPath id="clip0">
<rect width="266" height="51.1132" fill="white"/>
</clipPath>
</defs>
</svg>
