<svg width="242" height="36" viewBox="0 0 242 36" fill="none" xmlns="http://www.w3.org/2000/svg">
<path d="M35.2101 17.605C35.2101 23.6458 32.3898 26.4968 28.8245 26.4968C26.7493 26.4968 24.9512 25.4131 23.9291 23.7997C22.3157 25.4439 20.0866 26.4661 17.605 26.4661C12.7096 26.4661 8.74402 22.5005 8.74402 17.605C8.74402 12.7096 12.7096 8.74402 17.605 8.74402C22.5005 8.74402 26.4661 12.7096 26.4661 17.605V20.4869C26.4661 21.9463 27.4882 22.9684 28.8245 22.9684C30.407 22.9684 31.7063 21.6384 31.7063 17.605C31.7063 9.82779 25.3823 3.50377 17.605 3.50377C9.82779 3.50377 3.50377 9.82779 3.50377 17.605C3.50377 25.3823 9.82779 31.7063 17.605 31.7063C22.1002 31.7063 25.1976 29.4772 25.1976 29.4772L27.519 32.1435C27.519 32.1435 23.5534 35.2101 17.5989 35.2101C7.90041 35.2101 0 27.3035 0 17.605C0 7.90041 7.90041 0 17.605 0C27.3035 0 35.2101 7.90041 35.2101 17.605ZM17.605 22.9684C20.5484 22.9684 22.9684 20.5484 22.9684 17.605C22.9684 14.6308 20.5484 12.2416 17.605 12.2416C14.6308 12.2416 12.2416 14.6308 12.2416 17.605C12.2416 20.5484 14.6308 22.9684 17.605 22.9684Z" fill="#FC2C38"/>
<path d="M52.8763 16.6444V25.7887H49.625V9.98174H52.8763V11.4411C53.9601 10.265 55.5734 9.58149 57.3407 9.58149C59.3543 9.58149 61.06 10.4497 62.2361 12.0323C63.5354 10.4805 65.5551 9.58149 67.7227 9.58149C71.719 9.58149 74.3854 12.5249 74.3854 16.743V25.7949H71.1341V16.7676C71.1341 14.3476 69.7055 12.7404 67.5379 12.7404C65.3396 12.7404 63.6339 14.4153 63.6339 16.6444V25.7887H60.3826V16.7676C60.3826 14.3476 58.954 12.7404 56.7865 12.7404C54.582 12.7404 52.8763 14.4092 52.8763 16.6444Z" fill="#333333"/>
<path d="M90.5319 11.7182V9.98173H93.7832V25.7887H90.5319V24.0522C89.2018 25.3823 87.373 26.189 85.1993 26.189C80.581 26.189 77.0156 22.5928 77.0156 17.8821C77.0156 13.1714 80.581 9.57531 85.1993 9.57531C87.373 9.57531 89.2018 10.382 90.5319 11.7182ZM80.4332 17.8821C80.4332 20.8871 82.5699 23.03 85.4826 23.03C88.4567 23.03 90.5627 20.8625 90.5627 17.8821C90.5627 14.9079 88.4567 12.7342 85.4826 12.7342C82.5699 12.7404 80.4332 14.8771 80.4332 17.8821Z" fill="#333333"/>
<path d="M101.381 5.20947C101.381 6.3856 100.451 7.31542 99.2754 7.31542C98.0992 7.31542 97.2002 6.3856 97.2002 5.20947C97.2002 4.03334 98.0992 3.1343 99.2754 3.1343C100.451 3.12815 101.381 4.02718 101.381 5.20947ZM100.919 25.7887H97.6682V9.98173H100.919V25.7887Z" fill="#333333"/>
<path d="M108.198 25.7887H104.946V3.47299H108.198V25.7887Z" fill="#333333"/>
<path d="M114.275 26.2198C113.13 26.2198 112.077 25.2592 112.077 23.9907C112.077 22.7222 113.13 21.7615 114.275 21.7615C115.421 21.7615 116.474 22.7222 116.474 23.9907C116.474 25.2592 115.421 26.2198 114.275 26.2198Z" fill="#333333"/>
<path d="M123.451 17.5743V25.7887H120.199V9.98175H123.451V12.1185C124.627 10.6283 126.148 9.98175 128.408 9.98175H129.707V13.0175H128.408C125.464 13.0175 123.451 14.8464 123.451 17.5743Z" fill="#333333"/>
<path d="M143.162 18.9659V9.97557H146.413V25.7825H143.162V24.2C142.016 25.4377 140.249 26.1828 138.297 26.1828C134.362 26.1828 131.727 23.2394 131.727 18.929V9.98173H134.978V18.8427C134.978 21.4167 136.53 23.0239 138.851 23.0239C141.302 23.03 143.162 21.2012 143.162 18.9659Z" fill="#333333"/>
<path d="M170.465 11.6197V9.97557H173.717V23.6766C173.717 28.726 170.466 31.8603 165.318 31.8603C162.774 31.8603 160.237 31.0844 158.532 29.8775L160.053 27.1496C161.444 28.1102 163.464 28.7013 165.355 28.7013C168.575 28.7013 170.465 26.9956 170.465 24.0214V23.7135C169.135 25.0436 167.307 25.7579 165.133 25.7579C160.515 25.7579 156.949 22.2849 156.949 17.6666C156.949 13.0483 160.515 9.57531 165.133 9.57531C167.307 9.57531 169.135 10.2896 170.465 11.6197ZM160.361 17.6666C160.361 20.5792 162.497 22.5928 165.41 22.5928C168.384 22.5928 170.49 20.5484 170.49 17.6666C170.49 14.7848 168.384 12.7404 165.41 12.7404C162.504 12.7404 160.361 14.754 160.361 17.6666Z" fill="#333333"/>
<path d="M180.693 17.5743V25.7887H177.436V9.98175H180.693V12.1185C181.869 10.6283 183.39 9.98175 185.65 9.98175H186.949V13.0175H185.65C182.707 13.0175 180.693 14.8464 180.693 17.5743Z" fill="#333333"/>
<path d="M195.724 26.189C191.014 26.189 187.264 22.5312 187.264 17.8821C187.264 13.233 191.014 9.57531 195.724 9.57531C200.435 9.57531 204.185 13.233 204.185 17.8821C204.185 22.5312 200.435 26.189 195.724 26.189ZM195.724 23.03C198.637 23.03 200.774 20.8625 200.774 17.8821C200.774 14.9079 198.637 12.7342 195.724 12.7342C192.812 12.7342 190.675 14.9018 190.675 17.8821C190.675 20.8563 192.812 23.03 195.724 23.03Z" fill="#333333"/>
<path d="M218.262 18.9659V9.97557H221.513V25.7825H218.262V24.2C217.117 25.4377 215.349 26.1828 213.397 26.1828C209.463 26.1828 206.827 23.2394 206.827 18.929V9.98173H210.078V18.8427C210.078 21.4167 211.63 23.0239 213.952 23.0239C216.402 23.03 218.262 21.2012 218.262 18.9659Z" fill="#333333"/>
<path d="M242 17.8822C242 22.5928 238.435 26.189 233.817 26.189C231.649 26.189 229.82 25.3823 228.484 24.0522V31.3677H225.227V9.98175H228.484V11.7182C229.814 10.3882 231.643 9.5815 233.817 9.5815C238.435 9.57534 242 13.1715 242 17.8822ZM228.459 17.8822C228.459 20.8564 230.565 23.03 233.54 23.03C236.452 23.03 238.589 20.8933 238.589 17.8822C238.589 14.8772 236.452 12.7343 233.54 12.7343C230.565 12.7404 228.459 14.908 228.459 17.8822Z" fill="#333333"/>
</svg>
