<svg width="258" height="52" viewBox="0 0 258 52" fill="none" xmlns="http://www.w3.org/2000/svg">
<path d="M221.457 2.81708C221.457 0.692753 223.132 -0.46889 225.192 0.17932L252.231 8.4841C254.291 9.1259 255.966 11.3144 255.966 13.4387V41.8958C255.966 44.0201 254.291 45.1818 252.231 44.5335L225.192 36.2288C223.132 35.587 221.457 33.3985 221.457 31.2741V2.81708Z" fill="url(#paint0_radial)"/>
<path d="M215.02 15.8198C215.02 14.0163 216.438 12.9895 218.241 13.5029L238.907 19.8759C240.646 20.3893 242.129 22.3211 242.129 24.1246V45.8877C242.129 47.6912 240.71 48.718 238.907 48.2046L218.241 41.8316C216.502 41.3182 215.02 39.3864 215.02 37.5829V15.8198V15.8198Z" fill="url(#paint1_radial)"/>
<path d="M208.582 28.2449C208.582 26.6981 209.744 25.7355 211.22 26.1847L225.641 30.6259C227.123 31.0752 228.279 32.6861 228.279 34.297V49.1673C228.279 50.714 227.117 51.6767 225.641 51.2274L211.22 46.7926C209.744 46.337 208.582 44.7261 208.582 43.1216V28.2449Z" fill="#F8B74D"/>
<path d="M8.96838 19.22C3.9153 19.22 0 23.2102 0 28.2825C0 33.3549 3.98223 37.3451 9.03531 37.3451C12.3148 37.3451 15.2596 35.6543 16.8325 32.8476L14.1219 31.0216C12.8502 32.9491 11.177 33.8959 9.16917 33.8959C6.02354 33.8959 3.68105 31.5288 3.68105 28.2825C3.68105 25.0701 5.92315 22.6692 9.03531 22.6692C10.9762 22.6692 12.7164 23.5822 13.9545 25.273L16.5982 23.3117C14.9585 20.7417 12.114 19.22 8.96838 19.22Z" fill="#1E1F20"/>
<path d="M22.2821 19.6596H19.3373V36.9055H22.851V26.5241L27.9041 34.2341H30.4139L35.467 26.4903V36.9055H38.9807V19.6596H36.0359L29.2092 30.1086L22.2821 19.6596Z" fill="#1E1F20"/>
<path d="M60.2649 28.2825C60.2649 23.2102 56.2158 19.22 51.1292 19.22C46.0427 19.22 41.9935 23.2102 41.9935 28.2825C41.9935 33.3549 46.0427 37.3451 51.1292 37.3451C56.2158 37.3451 60.2649 33.3549 60.2649 28.2825ZM45.6746 28.2825C45.6746 25.0362 47.9836 22.6692 51.1292 22.6692C54.2749 22.6692 56.5839 25.0362 56.5839 28.2825C56.5839 31.5288 54.2749 33.8959 51.1292 33.8959C47.9836 33.8959 45.6746 31.5288 45.6746 28.2825Z" fill="#1E1F20"/>
<path d="M76.3335 23.0411V19.6596H60.7727V23.0411H66.7962V36.9055H70.3099V23.0411H76.3335Z" fill="#1E1F20"/>
<path d="M88.1168 19.22C85.7743 19.22 83.7999 20.0992 82.3609 21.5532V19.6596H78.8472V42.9923H82.3609V35.0118C83.7999 36.4659 85.7743 37.3451 88.1168 37.3451C93.1029 37.3451 96.9513 33.4225 96.9513 28.2825C96.9513 23.1426 93.1029 19.22 88.1168 19.22ZM87.8156 22.6692C90.9612 22.6692 93.2702 25.0024 93.2702 28.2825C93.2702 31.5627 90.9612 33.8959 87.8156 33.8959C84.603 33.8959 82.3275 31.5288 82.3275 28.2825C82.3275 25.0362 84.603 22.6692 87.8156 22.6692Z" fill="#1E1F20"/>
<path d="M102.937 36.9055L112.106 25.6111V36.9055H115.62V19.6596H112.708L103.472 31.0892V19.6596H99.9583V36.9055H102.937Z" fill="#1E1F20"/>
<path d="M135.728 22.6692C138.07 22.6692 139.61 24.4276 139.61 27.0652V36.9055H143.123V26.9299C143.123 24.4952 144.964 22.6692 147.34 22.6692C149.682 22.6692 151.222 24.4276 151.222 27.0652V36.9055H154.735V27.0314C154.735 22.4324 151.858 19.22 147.541 19.22C145.198 19.22 143.023 20.2006 141.618 21.8914C140.346 20.1668 138.505 19.22 136.33 19.22C134.423 19.22 132.683 19.9639 131.511 21.2489V19.6596H127.998V36.9055H131.511V26.9299C131.511 24.4952 133.352 22.6692 135.728 22.6692Z" fill="#1E1F20"/>
<path d="M166.417 19.22C161.43 19.22 157.582 23.1426 157.582 28.2825C157.582 33.4225 161.43 37.3451 166.417 37.3451C168.759 37.3451 170.733 36.4659 172.172 35.0118V36.9055H175.686V19.6596H172.172V21.5532C170.733 20.0992 168.759 19.22 166.417 19.22ZM166.718 22.6692C169.93 22.6692 172.206 25.0362 172.206 28.2825C172.206 31.5288 169.93 33.8959 166.718 33.8959C163.572 33.8959 161.263 31.5627 161.263 28.2825C161.263 25.0024 163.572 22.6692 166.718 22.6692Z" fill="#1E1F20"/>
<path d="M183.378 19.6596H179.864V36.9055H183.378V19.6596ZM181.605 12.1863C180.333 12.1863 179.362 13.167 179.362 14.452C179.362 15.737 180.333 16.7514 181.605 16.7514C182.876 16.7514 183.88 15.737 183.88 14.452C183.88 13.167 182.876 12.1863 181.605 12.1863Z" fill="#1E1F20"/>
<path d="M191.254 12.5583H187.74V36.9055H191.254V12.5583Z" fill="#1E1F20"/>
<defs>
<radialGradient id="paint0_radial" cx="0" cy="0" r="1" gradientUnits="userSpaceOnUse" gradientTransform="translate(241.094 40.854) rotate(-73.6949) scale(49.3057 47.838)">
<stop stop-color="#340EA4"/>
<stop offset="0.524" stop-color="#5E26FA"/>
</radialGradient>
<radialGradient id="paint1_radial" cx="0" cy="0" r="1" gradientUnits="userSpaceOnUse" gradientTransform="translate(228.53 45.9682) rotate(-76.1028) scale(32.1681 30.4889)">
<stop offset="0.0855" stop-color="#631EB1"/>
<stop offset="1" stop-color="#9555DC"/>
</radialGradient>
</defs>
</svg>
