<svg width="124" height="39" viewBox="0 0 124 39" fill="none" xmlns="http://www.w3.org/2000/svg">
<path d="M0.72 10.84C1.104 10.456 1.452 9.95803 1.764 9.34603C2.016 8.81803 2.25 8.14002 2.466 7.31202C2.682 6.48402 2.79 5.47002 2.79 4.27002V0.400024H11.16V10.84H12.69V15.61H10.44V13H2.25V15.61H0V10.84H0.72ZM3.15 10.84H8.91V2.56002H5.04V4.27002C5.04 5.47002 4.944 6.48402 4.752 7.31202C4.56 8.14002 4.344 8.81803 4.104 9.34603C3.816 9.95803 3.498 10.45 3.15 10.822V10.84Z" fill="white"/>
<path d="M22.043 11.65C21.803 11.938 21.503 12.19 21.143 12.406C20.831 12.61 20.447 12.79 19.991 12.946C19.535 13.102 18.989 13.18 18.353 13.18C17.705 13.18 17.093 13.06 16.517 12.82C15.953 12.58 15.455 12.25 15.023 11.83C14.603 11.41 14.273 10.924 14.033 10.372C13.793 9.80802 13.673 9.21402 13.673 8.59002C13.673 7.95402 13.793 7.36002 14.033 6.80802C14.273 6.25602 14.603 5.77002 15.023 5.35002C15.443 4.93002 15.929 4.60003 16.481 4.36002C17.045 4.12003 17.639 4.00003 18.263 4.00003C18.899 4.00003 19.481 4.12003 20.009 4.36002C20.537 4.58802 20.987 4.90002 21.359 5.29602C21.743 5.69203 22.043 6.16003 22.259 6.70003C22.475 7.22803 22.583 7.79802 22.583 8.41002C22.583 8.54202 22.577 8.66802 22.565 8.78802C22.565 8.90802 22.559 9.01602 22.547 9.11202C22.523 9.22002 22.505 9.31602 22.493 9.40002H15.923C15.983 9.65202 16.079 9.89202 16.211 10.12C16.343 10.348 16.511 10.552 16.715 10.732C16.931 10.9 17.183 11.038 17.471 11.146C17.759 11.242 18.083 11.29 18.443 11.29C18.827 11.29 19.169 11.236 19.469 11.128C19.769 11.008 20.021 10.876 20.225 10.732C20.477 10.576 20.693 10.396 20.873 10.192L22.043 11.65ZM20.333 7.69002C20.201 7.18602 19.955 6.77802 19.595 6.46602C19.235 6.14202 18.761 5.98002 18.173 5.98002C17.537 5.98002 17.033 6.14202 16.661 6.46602C16.301 6.77802 16.055 7.18602 15.923 7.69002H20.333Z" fill="white"/>
<path d="M24.4807 4.18003H30.7807V6.16003H26.5507V13H24.4807V4.18003Z" fill="white"/>
<path d="M33.293 4.18003L35.633 10.3H35.723L37.973 4.18003H40.223L36.443 13.81C36.071 14.758 35.627 15.49 35.111 16.006C34.607 16.522 33.971 16.78 33.203 16.78C32.999 16.78 32.801 16.762 32.609 16.726C32.417 16.702 32.255 16.678 32.123 16.654C31.955 16.606 31.805 16.558 31.673 16.51V14.53C31.769 14.578 31.871 14.626 31.979 14.674C32.075 14.698 32.189 14.722 32.321 14.746C32.453 14.782 32.597 14.8 32.753 14.8C33.161 14.8 33.479 14.692 33.707 14.476C33.935 14.26 34.127 13.978 34.283 13.63L34.553 13L31.043 4.18003H33.293Z" fill="white"/>
<path d="M49.1287 11.38C48.8887 11.716 48.5888 12.016 48.2288 12.28C47.9288 12.508 47.5507 12.718 47.0947 12.91C46.6387 13.09 46.0868 13.18 45.4388 13.18C44.8148 13.18 44.2207 13.06 43.6567 12.82C43.1047 12.58 42.6187 12.25 42.1987 11.83C41.7787 11.41 41.4488 10.924 41.2088 10.372C40.9688 9.80802 40.8488 9.21402 40.8488 8.59002C40.8488 7.95402 40.9688 7.36002 41.2088 6.80802C41.4488 6.25602 41.7787 5.77002 42.1987 5.35002C42.6187 4.93002 43.1047 4.60003 43.6567 4.36002C44.2207 4.12003 44.8148 4.00003 45.4388 4.00003C46.0748 4.00003 46.6208 4.09602 47.0768 4.28802C47.5328 4.46802 47.9168 4.67202 48.2288 4.90002C48.5888 5.16402 48.8887 5.46403 49.1287 5.80003L47.7788 7.15002C47.5988 6.93402 47.3888 6.73602 47.1488 6.55603C46.9448 6.41203 46.6988 6.28003 46.4108 6.16003C46.1228 6.04003 45.7988 5.98002 45.4388 5.98002C45.0788 5.98002 44.7428 6.04602 44.4308 6.17802C44.1308 6.29802 43.8668 6.47802 43.6388 6.71802C43.4108 6.94602 43.2308 7.22202 43.0988 7.54602C42.9788 7.85802 42.9188 8.20602 42.9188 8.59002C42.9188 8.97402 42.9788 9.32803 43.0988 9.65203C43.2308 9.96403 43.4108 10.24 43.6388 10.48C43.8668 10.708 44.1308 10.888 44.4308 11.02C44.7428 11.14 45.0788 11.2 45.4388 11.2C45.7988 11.2 46.1228 11.14 46.4108 11.02C46.6988 10.9 46.9448 10.762 47.1488 10.606C47.3888 10.438 47.5988 10.246 47.7788 10.03L49.1287 11.38Z" fill="white"/>
<path d="M49.9303 4.18003H57.7603V6.16003H54.8803V13H52.8103V6.16003H49.9303V4.18003Z" fill="white"/>
<path d="M61.4433 4.18003V9.63403H61.4793L65.5833 4.18003H67.4733V13H65.4033V7.54602H65.3673L61.2633 13H59.3733V4.18003H61.4433Z" fill="white"/>
<path d="M69.9905 4.18003H72.0605V5.44002H72.1505C72.3185 5.17602 72.5405 4.93603 72.8165 4.72003C73.0565 4.54003 73.3565 4.37802 73.7165 4.23402C74.0765 4.07802 74.5145 4.00003 75.0305 4.00003C75.5465 4.00003 76.0445 4.11402 76.5245 4.34202C77.0045 4.55802 77.4245 4.87003 77.7845 5.27803C78.1565 5.68603 78.4505 6.17203 78.6665 6.73603C78.8825 7.30003 78.9905 7.91802 78.9905 8.59002C78.9905 9.26202 78.8825 9.88002 78.6665 10.444C78.4505 11.008 78.1565 11.494 77.7845 11.902C77.4245 12.298 77.0045 12.61 76.5245 12.838C76.0445 13.066 75.5465 13.18 75.0305 13.18C74.5145 13.18 74.0765 13.108 73.7165 12.964C73.3565 12.808 73.0565 12.64 72.8165 12.46C72.5405 12.244 72.3185 12.004 72.1505 11.74H72.0605V16.78H69.9905V4.18003ZM72.0605 8.59002C72.0605 8.95002 72.1205 9.28602 72.2405 9.59802C72.3725 9.89802 72.5465 10.162 72.7625 10.39C72.9905 10.618 73.2485 10.798 73.5365 10.93C73.8365 11.05 74.1545 11.11 74.4905 11.11C74.8265 11.11 75.1385 11.05 75.4265 10.93C75.7265 10.798 75.9845 10.618 76.2005 10.39C76.4285 10.162 76.6025 9.89802 76.7225 9.59802C76.8545 9.28602 76.9205 8.95002 76.9205 8.59002C76.9205 8.23002 76.8545 7.90002 76.7225 7.60002C76.6025 7.28802 76.4285 7.01802 76.2005 6.79002C75.9845 6.56202 75.7265 6.38802 75.4265 6.26802C75.1385 6.13602 74.8265 6.07002 74.4905 6.07002C74.1545 6.07002 73.8365 6.13602 73.5365 6.26802C73.2485 6.38802 72.9905 6.56202 72.7625 6.79002C72.5465 7.01802 72.3725 7.28802 72.2405 7.60002C72.1205 7.90002 72.0605 8.23002 72.0605 8.59002Z" fill="white"/>
<path d="M81.8789 4.18003L84.2189 10.3H84.3089L86.5589 4.18003H88.8089L85.0289 13.81C84.6569 14.758 84.2129 15.49 83.6969 16.006C83.1929 16.522 82.5569 16.78 81.7889 16.78C81.5849 16.78 81.3869 16.762 81.1949 16.726C81.0029 16.702 80.8409 16.678 80.7089 16.654C80.5409 16.606 80.3909 16.558 80.2589 16.51V14.53C80.3549 14.578 80.4569 14.626 80.5649 14.674C80.6609 14.698 80.7749 14.722 80.9069 14.746C81.0389 14.782 81.1829 14.8 81.3389 14.8C81.7469 14.8 82.0649 14.692 82.2929 14.476C82.5209 14.26 82.7129 13.978 82.8689 13.63L83.1389 13L79.6289 4.18003H81.8789Z" fill="white"/>
<path d="M97.8047 11.65C97.5647 11.938 97.2647 12.19 96.9047 12.406C96.5927 12.61 96.2087 12.79 95.7527 12.946C95.2967 13.102 94.7507 13.18 94.1147 13.18C93.4667 13.18 92.8547 13.06 92.2787 12.82C91.7147 12.58 91.2167 12.25 90.7847 11.83C90.3647 11.41 90.0347 10.924 89.7947 10.372C89.5547 9.80802 89.4347 9.21402 89.4347 8.59002C89.4347 7.95402 89.5547 7.36002 89.7947 6.80802C90.0347 6.25602 90.3647 5.77002 90.7847 5.35002C91.2047 4.93002 91.6907 4.60003 92.2427 4.36002C92.8067 4.12003 93.4007 4.00003 94.0247 4.00003C94.6607 4.00003 95.2427 4.12003 95.7707 4.36002C96.2987 4.58802 96.7487 4.90002 97.1207 5.29602C97.5047 5.69203 97.8047 6.16003 98.0207 6.70003C98.2367 7.22803 98.3447 7.79802 98.3447 8.41002C98.3447 8.54202 98.3387 8.66802 98.3267 8.78802C98.3267 8.90802 98.3207 9.01602 98.3087 9.11202C98.2847 9.22002 98.2667 9.31602 98.2547 9.40002H91.6847C91.7447 9.65202 91.8407 9.89202 91.9727 10.12C92.1047 10.348 92.2727 10.552 92.4767 10.732C92.6927 10.9 92.9447 11.038 93.2327 11.146C93.5207 11.242 93.8447 11.29 94.2047 11.29C94.5887 11.29 94.9307 11.236 95.2307 11.128C95.5307 11.008 95.7827 10.876 95.9867 10.732C96.2387 10.576 96.4547 10.396 96.6347 10.192L97.8047 11.65ZM96.0947 7.69002C95.9627 7.18602 95.7167 6.77802 95.3567 6.46602C94.9967 6.14202 94.5227 5.98002 93.9347 5.98002C93.2987 5.98002 92.7947 6.14202 92.4227 6.46602C92.0627 6.77802 91.8167 7.18602 91.6847 7.69002H96.0947Z" fill="white"/>
<path d="M102.042 4.18003L104.922 7.78003L107.802 4.18003H109.602V13H107.532V7.42003L104.922 10.75L102.312 7.42003V13H100.242V4.18003H102.042Z" fill="white"/>
<path d="M3.33 26.18V31.634H3.366L7.47 26.18H9.36V35H7.29V29.546H7.254L3.15 35H1.26V26.18H3.33Z" fill="white"/>
<path d="M11.8772 26.18H18.1772V28.16H13.9472V35H11.8772V26.18Z" fill="white"/>
<path d="M19.6995 26.18H21.7695V27.44H21.8595C22.0275 27.176 22.2495 26.936 22.5255 26.72C22.7655 26.54 23.0655 26.378 23.4255 26.234C23.7855 26.078 24.2235 26 24.7395 26C25.2555 26 25.7535 26.114 26.2335 26.342C26.7135 26.558 27.1335 26.87 27.4935 27.278C27.8655 27.686 28.1595 28.172 28.3755 28.736C28.5915 29.3 28.6995 29.918 28.6995 30.59C28.6995 31.262 28.5915 31.88 28.3755 32.444C28.1595 33.008 27.8655 33.494 27.4935 33.902C27.1335 34.298 26.7135 34.61 26.2335 34.838C25.7535 35.066 25.2555 35.18 24.7395 35.18C24.2235 35.18 23.7855 35.108 23.4255 34.964C23.0655 34.808 22.7655 34.64 22.5255 34.46C22.2495 34.244 22.0275 34.004 21.8595 33.74H21.7695V38.78H19.6995V26.18ZM21.7695 30.59C21.7695 30.95 21.8295 31.286 21.9495 31.598C22.0815 31.898 22.2555 32.162 22.4715 32.39C22.6995 32.618 22.9575 32.798 23.2455 32.93C23.5455 33.05 23.8635 33.11 24.1995 33.11C24.5355 33.11 24.8475 33.05 25.1355 32.93C25.4355 32.798 25.6935 32.618 25.9095 32.39C26.1375 32.162 26.3115 31.898 26.4315 31.598C26.5635 31.286 26.6295 30.95 26.6295 30.59C26.6295 30.23 26.5635 29.9 26.4315 29.6C26.3115 29.288 26.1375 29.018 25.9095 28.79C25.6935 28.562 25.4355 28.388 25.1355 28.268C24.8475 28.136 24.5355 28.07 24.1995 28.07C23.8635 28.07 23.5455 28.136 23.2455 28.268C22.9575 28.388 22.6995 28.562 22.4715 28.79C22.2555 29.018 22.0815 29.288 21.9495 29.6C21.8295 29.9 21.7695 30.23 21.7695 30.59Z" fill="white"/>
<path d="M32.6679 26.18V31.634H32.7039L36.8079 26.18H38.6979V35H36.6279V29.546H36.5919L32.4879 35H30.5979V26.18H32.6679Z" fill="white"/>
<path d="M48.8651 33.38C48.6251 33.716 48.3251 34.016 47.9651 34.28C47.6651 34.508 47.2871 34.718 46.8311 34.91C46.3751 35.09 45.8231 35.18 45.1751 35.18C44.5511 35.18 43.9571 35.06 43.3931 34.82C42.8411 34.58 42.3551 34.25 41.9351 33.83C41.5151 33.41 41.1851 32.924 40.9451 32.372C40.7051 31.808 40.5851 31.214 40.5851 30.59C40.5851 29.954 40.7051 29.36 40.9451 28.808C41.1851 28.256 41.5151 27.77 41.9351 27.35C42.3551 26.93 42.8411 26.6 43.3931 26.36C43.9571 26.12 44.5511 26 45.1751 26C45.8111 26 46.3571 26.096 46.8131 26.288C47.2691 26.468 47.6531 26.672 47.9651 26.9C48.3251 27.164 48.6251 27.464 48.8651 27.8L47.5151 29.15C47.3351 28.934 47.1251 28.736 46.8851 28.556C46.6811 28.412 46.4351 28.28 46.1471 28.16C45.8591 28.04 45.5351 27.98 45.1751 27.98C44.8151 27.98 44.4791 28.046 44.1671 28.178C43.8671 28.298 43.6031 28.478 43.3751 28.718C43.1471 28.946 42.9671 29.222 42.8351 29.546C42.7151 29.858 42.6551 30.206 42.6551 30.59C42.6551 30.974 42.7151 31.328 42.8351 31.652C42.9671 31.964 43.1471 32.24 43.3751 32.48C43.6031 32.708 43.8671 32.888 44.1671 33.02C44.4791 33.14 44.8151 33.2 45.1751 33.2C45.5351 33.2 45.8591 33.14 46.1471 33.02C46.4351 32.9 46.6811 32.762 46.8851 32.606C47.1251 32.438 47.3351 32.246 47.5151 32.03L48.8651 33.38Z" fill="white"/>
<path d="M49.6666 26.18H57.4966V28.16H54.6166V35H52.5466V28.16H49.6666V26.18Z" fill="white"/>
<path d="M59.1096 26.18H61.1796V28.88H62.8896C63.3816 28.88 63.8316 28.958 64.2396 29.114C64.6476 29.27 64.9956 29.486 65.2836 29.762C65.5836 30.038 65.8116 30.362 65.9676 30.734C66.1356 31.106 66.2196 31.508 66.2196 31.94C66.2196 32.372 66.1356 32.774 65.9676 33.146C65.8116 33.518 65.5836 33.842 65.2836 34.118C64.9956 34.394 64.6476 34.61 64.2396 34.766C63.8316 34.922 63.3816 35 62.8896 35H59.1096V26.18ZM69.4596 26.18V35H67.3896V26.18H69.4596ZM61.1796 33.02H62.7996C63.2076 33.02 63.5196 32.918 63.7356 32.714C63.9516 32.51 64.0596 32.252 64.0596 31.94C64.0596 31.628 63.9516 31.37 63.7356 31.166C63.5196 30.962 63.2076 30.86 62.7996 30.86H61.1796V33.02Z" fill="white"/>
<path d="M79.7168 33.65C79.4768 33.938 79.1768 34.19 78.8168 34.406C78.5048 34.61 78.1208 34.79 77.6648 34.946C77.2088 35.102 76.6628 35.18 76.0268 35.18C75.3788 35.18 74.7668 35.06 74.1908 34.82C73.6268 34.58 73.1288 34.25 72.6968 33.83C72.2768 33.41 71.9468 32.924 71.7068 32.372C71.4668 31.808 71.3468 31.214 71.3468 30.59C71.3468 29.954 71.4668 29.36 71.7068 28.808C71.9468 28.256 72.2768 27.77 72.6968 27.35C73.1168 26.93 73.6028 26.6 74.1548 26.36C74.7188 26.12 75.3128 26 75.9368 26C76.5728 26 77.1548 26.12 77.6828 26.36C78.2108 26.588 78.6608 26.9 79.0328 27.296C79.4168 27.692 79.7168 28.16 79.9328 28.7C80.1488 29.228 80.2568 29.798 80.2568 30.41C80.2568 30.542 80.2508 30.668 80.2388 30.788C80.2388 30.908 80.2328 31.016 80.2208 31.112C80.1968 31.22 80.1788 31.316 80.1668 31.4H73.5968C73.6568 31.652 73.7528 31.892 73.8848 32.12C74.0168 32.348 74.1848 32.552 74.3888 32.732C74.6048 32.9 74.8568 33.038 75.1448 33.146C75.4328 33.242 75.7568 33.29 76.1168 33.29C76.5008 33.29 76.8428 33.236 77.1428 33.128C77.4428 33.008 77.6948 32.876 77.8988 32.732C78.1508 32.576 78.3668 32.396 78.5468 32.192L79.7168 33.65ZM78.0068 29.69C77.8748 29.186 77.6288 28.778 77.2688 28.466C76.9088 28.142 76.4348 27.98 75.8468 27.98C75.2108 27.98 74.7068 28.142 74.3348 28.466C73.9748 28.778 73.7288 29.186 73.5968 29.69H78.0068Z" fill="white"/>
<path d="M85.9338 35V26.18H90.0738C90.5418 26.18 90.9618 26.246 91.3338 26.378C91.7178 26.51 92.0418 26.69 92.3058 26.918C92.5698 27.146 92.7738 27.41 92.9178 27.71C93.0618 27.998 93.1338 28.298 93.1338 28.61C93.1338 28.922 93.0738 29.192 92.9538 29.42C92.8338 29.636 92.7078 29.816 92.5758 29.96C92.4078 30.14 92.2158 30.284 91.9998 30.392V30.428C92.2758 30.512 92.5278 30.638 92.7558 30.806C92.9358 30.95 93.1038 31.148 93.2598 31.4C93.4158 31.652 93.4938 31.982 93.4938 32.39C93.4938 32.726 93.4158 33.05 93.2598 33.362C93.1158 33.674 92.8998 33.956 92.6118 34.208C92.3358 34.448 91.9938 34.64 91.5858 34.784C91.1898 34.928 90.7458 35 90.2538 35H85.9338ZM90.1638 33.2C90.4758 33.2 90.7338 33.104 90.9378 32.912C91.1418 32.72 91.2438 32.486 91.2438 32.21C91.2438 31.934 91.1418 31.7 90.9378 31.508C90.7338 31.316 90.4758 31.22 90.1638 31.22H88.0038V33.2H90.1638ZM89.9838 29.6C90.2598 29.6 90.4758 29.522 90.6318 29.366C90.7998 29.21 90.8838 29.018 90.8838 28.79C90.8838 28.562 90.7998 28.37 90.6318 28.214C90.4758 28.058 90.2598 27.98 89.9838 27.98H88.0038V29.6H89.9838Z" fill="white"/>
<path d="M97.4609 26.18V31.634H97.4969L101.601 26.18H103.491V35H101.421V29.546H101.385L97.2809 35H95.3909V26.18H97.4609Z" fill="white"/>
<path d="M108.078 26.18V29.51H111.858V26.18H113.928V35H111.858V31.49H108.078V35H106.008V26.18H108.078Z" fill="white"/>
<path d="M118.787 35.18C118.355 35.18 117.959 35.114 117.599 34.982C117.251 34.838 116.951 34.652 116.699 34.424C116.447 34.196 116.249 33.932 116.105 33.632C115.973 33.32 115.907 32.996 115.907 32.66C115.907 31.94 116.147 31.328 116.627 30.824C117.119 30.32 117.749 30.002 118.517 29.87L121.487 29.33V29.312C121.487 29.168 121.445 29.018 121.361 28.862C121.277 28.694 121.157 28.55 121.001 28.43C120.845 28.298 120.665 28.19 120.461 28.106C120.257 28.022 120.029 27.98 119.777 27.98C119.453 27.98 119.159 28.04 118.895 28.16C118.631 28.268 118.403 28.388 118.211 28.52C117.983 28.676 117.785 28.856 117.617 29.06L116.357 27.8C116.609 27.464 116.915 27.164 117.275 26.9C117.575 26.672 117.941 26.468 118.373 26.288C118.805 26.096 119.303 26 119.867 26C120.407 26 120.899 26.096 121.343 26.288C121.799 26.468 122.189 26.72 122.513 27.044C122.849 27.356 123.107 27.728 123.287 28.16C123.467 28.58 123.557 29.03 123.557 29.51V35H121.487V33.83H121.397C121.229 34.082 121.019 34.304 120.767 34.496C120.551 34.664 120.281 34.82 119.957 34.964C119.633 35.108 119.243 35.18 118.787 35.18ZM119.417 31.31C118.877 31.406 118.499 31.544 118.283 31.724C118.079 31.892 117.977 32.114 117.977 32.39C117.977 32.666 118.097 32.918 118.337 33.146C118.589 33.362 118.919 33.47 119.327 33.47C119.615 33.47 119.891 33.416 120.155 33.308C120.419 33.188 120.647 33.026 120.839 32.822C121.043 32.618 121.199 32.378 121.307 32.102C121.427 31.826 121.487 31.532 121.487 31.22V30.95L119.417 31.31Z" fill="white"/>
</svg>
