<svg width="103" height="16" viewBox="0 0 103 16" fill="none" xmlns="http://www.w3.org/2000/svg">
<path d="M0.72 10.84C1.104 10.456 1.452 9.95803 1.764 9.34603C2.016 8.81803 2.25 8.14002 2.466 7.31202C2.682 6.48402 2.79 5.47002 2.79 4.27002V0.400024H11.16V10.84H12.69V15.61H10.44V13H2.25V15.61H0V10.84H0.72ZM3.15 10.84H8.91V2.56002H5.04V4.27002C5.04 5.47002 4.944 6.48402 4.752 7.31202C4.56 8.14002 4.344 8.81803 4.104 9.34603C3.816 9.95803 3.498 10.45 3.15 10.822V10.84Z" fill="white"/>
<path d="M16.373 4.18003V9.63403H16.409L20.513 4.18003H22.403V13H20.333V7.54602H20.297L16.193 13H14.303V4.18003H16.373Z" fill="white"/>
<path d="M32.5702 11.38C32.3302 11.716 32.0302 12.016 31.6702 12.28C31.3702 12.508 30.9922 12.718 30.5362 12.91C30.0802 13.09 29.5282 13.18 28.8802 13.18C28.2562 13.18 27.6622 13.06 27.0982 12.82C26.5462 12.58 26.0602 12.25 25.6402 11.83C25.2202 11.41 24.8902 10.924 24.6502 10.372C24.4102 9.80802 24.2902 9.21402 24.2902 8.59002C24.2902 7.95402 24.4102 7.36002 24.6502 6.80802C24.8902 6.25602 25.2202 5.77002 25.6402 5.35002C26.0602 4.93002 26.5462 4.60003 27.0982 4.36002C27.6622 4.12003 28.2562 4.00003 28.8802 4.00003C29.5162 4.00003 30.0622 4.09602 30.5182 4.28802C30.9742 4.46802 31.3582 4.67202 31.6702 4.90002C32.0302 5.16402 32.3302 5.46403 32.5702 5.80003L31.2202 7.15002C31.0402 6.93402 30.8302 6.73602 30.5902 6.55603C30.3862 6.41203 30.1402 6.28003 29.8522 6.16003C29.5642 6.04003 29.2402 5.98002 28.8802 5.98002C28.5202 5.98002 28.1842 6.04602 27.8722 6.17802C27.5722 6.29802 27.3082 6.47802 27.0802 6.71802C26.8522 6.94602 26.6722 7.22202 26.5402 7.54602C26.4202 7.85802 26.3602 8.20602 26.3602 8.59002C26.3602 8.97402 26.4202 9.32803 26.5402 9.65203C26.6722 9.96403 26.8522 10.24 27.0802 10.48C27.3082 10.708 27.5722 10.888 27.8722 11.02C28.1842 11.14 28.5202 11.2 28.8802 11.2C29.2402 11.2 29.5642 11.14 29.8522 11.02C30.1402 10.9 30.3862 10.762 30.5902 10.606C30.8302 10.438 31.0402 10.246 31.2202 10.03L32.5702 11.38Z" fill="white"/>
<path d="M33.3717 4.18003H41.2017V6.16003H38.3217V13H36.2517V6.16003H33.3717V4.18003Z" fill="white"/>
<path d="M44.8847 4.18003V9.63403H44.9207L49.0247 4.18003H50.9147V13H48.8447V7.54602H48.8087L44.7047 13H42.8147V4.18003H44.8847Z" fill="white"/>
<path d="M52.0819 11.11C52.1299 11.122 52.1899 11.134 52.2619 11.146C52.3699 11.182 52.5199 11.2 52.7119 11.2C52.9399 11.2 53.1439 11.146 53.3239 11.038C53.5159 10.93 53.6779 10.72 53.8099 10.408C53.9539 10.096 54.0619 9.65203 54.1339 9.07603C54.2059 8.50003 54.2419 7.73802 54.2419 6.79002V4.18003H61.1719V13H59.1019V6.16003H56.3119V6.79002C56.3119 8.05002 56.2339 9.10003 56.0779 9.94003C55.9339 10.768 55.7239 11.428 55.4479 11.92C55.1839 12.412 54.8659 12.76 54.4939 12.964C54.1219 13.168 53.7079 13.27 53.2519 13.27C53.0719 13.27 52.9099 13.252 52.7659 13.216C52.6219 13.192 52.5019 13.168 52.4059 13.144C52.2859 13.096 52.1779 13.048 52.0819 13V11.11Z" fill="white"/>
<path d="M62.3475 11.11C62.3955 11.122 62.4555 11.134 62.5275 11.146C62.6355 11.182 62.7855 11.2 62.9775 11.2C63.2055 11.2 63.4095 11.146 63.5895 11.038C63.7815 10.93 63.9435 10.72 64.0755 10.408C64.2195 10.096 64.3275 9.65203 64.3995 9.07603C64.4715 8.50003 64.5075 7.73802 64.5075 6.79002V4.18003H71.4375V13H69.3675V6.16003H66.5775V6.79002C66.5775 8.05002 66.4995 9.10003 66.3435 9.94003C66.1995 10.768 65.9895 11.428 65.7135 11.92C65.4495 12.412 65.1315 12.76 64.7595 12.964C64.3875 13.168 63.9735 13.27 63.5175 13.27C63.3375 13.27 63.1755 13.252 63.0315 13.216C62.8875 13.192 62.7675 13.168 62.6715 13.144C62.5515 13.096 62.4435 13.048 62.3475 13V11.11Z" fill="white"/>
<path d="M73.2431 13L75.1331 9.85003C74.8331 9.69403 74.5631 9.49603 74.3231 9.25603C74.1191 9.05203 73.9331 8.78202 73.7651 8.44602C73.5971 8.11002 73.5131 7.70803 73.5131 7.24003C73.5131 6.80803 73.5911 6.40602 73.7471 6.03402C73.9151 5.66202 74.1491 5.33802 74.4491 5.06202C74.7491 4.78602 75.1091 4.57002 75.5291 4.41402C75.9491 4.25803 76.4171 4.18003 76.9331 4.18003H80.8931V13H78.8231V10.3H77.1131L75.5831 13H73.2431ZM77.0231 6.16003C76.5671 6.16003 76.2251 6.26202 75.9971 6.46602C75.7811 6.67002 75.6731 6.92803 75.6731 7.24003C75.6731 7.55203 75.7811 7.81003 75.9971 8.01403C76.2131 8.21803 76.5251 8.32002 76.9331 8.32002H78.8231V6.16003H77.0231Z" fill="white"/>
<path d="M82.5202 4.18003H90.3502V6.16003H87.4702V13H85.4002V6.16003H82.5202V4.18003Z" fill="white"/>
<path d="M91.9631 4.18003H94.0331V6.88003H95.7431C96.2351 6.88003 96.6851 6.95802 97.0931 7.11402C97.5011 7.27002 97.8491 7.48603 98.1371 7.76203C98.4371 8.03803 98.6651 8.36202 98.8211 8.73402C98.9891 9.10602 99.0731 9.50803 99.0731 9.94003C99.0731 10.372 98.9891 10.774 98.8211 11.146C98.6651 11.518 98.4371 11.842 98.1371 12.118C97.8491 12.394 97.5011 12.61 97.0931 12.766C96.6851 12.922 96.2351 13 95.7431 13H91.9631V4.18003ZM102.313 4.18003V13H100.243V4.18003H102.313ZM94.0331 11.02H95.6531C96.0611 11.02 96.3731 10.918 96.5891 10.714C96.8051 10.51 96.9131 10.252 96.9131 9.94003C96.9131 9.62803 96.8051 9.37003 96.5891 9.16603C96.3731 8.96203 96.0611 8.86003 95.6531 8.86003H94.0331V11.02Z" fill="white"/>
</svg>
